<svg width="203" height="23" viewBox="0 0 203 23" fill="none"
    xmlns="http://www.w3.org/2000/svg">
    <path d="M170.817 0L181.978 11.5805L170.796 22.9753H180.816L186.894 16.6804L192.961 22.9753H202.98L191.819 11.5805L186.903 6.56233L180.474 0H170.817ZM193.343 0L187.68 5.77042L187.683 5.77341L192.591 10.7796L203 0H193.343Z" fill="#BEBEBE"/>
    <path d="M28.4639 0V7.01036V15.9649C28.4639 19.8488 31.5559 22.9753 35.3972 22.9753H49.7518C53.5931 22.9753 56.6851 19.8488 56.6851 15.9649V0H49.6459V12.3118H49.6429V15.0262C49.6429 16.2376 48.6047 17.2124 47.3151 17.2124H37.8354C36.5457 17.2124 35.5076 16.2376 35.5076 15.0262V0H28.4646H28.4639Z" fill="#BEBEBE"/>
    <path d="M150.096 0C146.254 0 143.163 3.12645 143.163 7.01036V15.9657C143.163 19.8496 146.254 22.976 150.096 22.976H165.948C169.789 22.976 172.881 19.8496 172.881 15.9657V7.01036C172.881 3.12645 169.789 0 165.948 0L150.096 0ZM146.837 5.76292H163.511C164.8 5.76292 165.839 6.7384 165.839 7.94912V15.0254C165.839 16.2361 164.8 17.2116 163.511 17.2116H152.534C151.244 17.2116 150.205 16.2369 150.205 15.0254V8.42337L146.837 5.76292Z" fill="#BEBEBE"/>
    <path d="M87.4148 0V22.9753H94.5168L94.3451 5.85583L106.389 22.9753H117.781V0H110.678L110.85 17.1195L98.8752 0H87.4148Z" fill="#BEBEBE"/>
    <path d="M59.0262 0.0234375V10.3588V15.9891V17.3699V22.9995H65.967V17.3699H70.98L77.5267 22.9755H87.1736L80.1859 17.2695C83.4629 16.7083 85.9444 13.8389 85.9444 10.3603V9.65678V9.59684V7.03455C85.9444 3.15064 82.8525 0.0241867 79.0112 0.0241867H59.0277L59.0262 0.0234375ZM62.6071 5.76239L76.7125 5.78786C78.0021 5.78786 79.041 6.76258 79.041 7.97406V9.59684H79.0328C78.938 10.7252 77.9409 11.6085 76.714 11.6085H68.1828L65.9677 11.6182V9.59834V8.41759L62.6071 5.76314V5.76239Z" fill="#BEBEBE"/>
    <path d="M0 0.0398117V1.02128V1.9016V22.9357H20.6566C24.9576 22.9357 26.3913 20.6468 26.3913 17.1465V15.281C26.3913 13.4492 25.7069 12.0437 24.3053 11.1281C25.5435 10.2126 26.2271 8.83853 26.2271 7.0719V5.50155C26.2271 1.83867 24.5009 0.0390625 19.9715 0.0390625H0V0.0398117ZM3.28902 5.37044H18.7012C19.9715 5.37044 20.5245 5.82746 20.5245 6.84189V7.55963C20.5245 8.5411 20.0028 9.03108 18.537 9.03108H6.64148V8.0174L3.28977 5.37119L3.28902 5.37044ZM3.33156 13.6357H18.5378C20.0043 13.6357 20.5581 14.1916 20.5581 15.2383V16.0002C20.5581 17.0469 20.0043 17.5046 18.7333 17.5046H6.64148V16.249L3.33231 13.6357H3.33156Z" fill="#BEBEBE"/>
    <path d="M119.377 0V22.9753H126.342V15.0187H141.121V9.74872H126.342V8.03528L123.014 5.4063L141.979 5.41005V0.00149842L119.377 0H119.377Z" fill="#BEBEBE"/>
</svg>
