<svg width="171" height="84" viewBox="0 0 171 84" fill="none"
    xmlns="http://www.w3.org/2000/svg">
    <mask id="mask0_3_209" style="mask-type:luminance" maskUnits="userSpaceOnUse" x="0" y="0" width="171" height="84">
        <path d="M170.999 0H0V83.4641H170.999V0Z" fill="white"/>
    </mask>
    <g mask="url(#mask0_3_209)">
        <path d="M86.3791 4.78393C87.3056 3.96124 88.2751 3.18833 89.2835 2.46845C90.9627 1.26819 92.8939 0.467386 94.9297 0.127168C96.9881 -0.198455 99.0968 0.0974661 100.986 0.977067C102.855 1.87002 104.45 3.24727 105.606 4.96557C106.932 6.93813 107.791 9.18682 108.119 11.5411C108.401 13.5008 108.498 15.4829 108.406 17.4607C108.318 19.5444 108.055 21.6171 107.619 23.6567C106.522 28.0157 104.92 32.2321 102.847 36.2206C100.11 41.4787 96.3657 46.8038 89.6162 43.7923C84.2243 41.387 76.1506 31.2188 74.8648 25.4243C73.1249 17.585 81.794 13.9263 85.8036 18.4282C89.3036 14.4952 96.033 16.7542 96.6812 22.1366C97.3322 27.5391 91.6142 33.3622 87.8303 33.4979C90.1401 30.692 93.1382 27.3928 93.1411 23.5553C93.1411 20.4578 90.6305 18.0965 85.8036 20.9397C82.4116 18.7466 77.6928 18.9512 78.3333 24.215C78.8142 26.7323 79.8085 29.1235 81.254 31.2398C83.8199 35.1738 87.5723 38.7923 90.2224 39.9941C95.0541 42.1795 97.273 38.4482 99.2357 34.779C101.242 31.0019 102.784 26.9962 103.829 22.8488C104.221 21.0237 104.459 19.1689 104.54 17.3039C104.618 15.5689 104.531 13.8303 104.28 12.1118C104.043 10.3411 103.407 8.64734 102.419 7.15868C101.653 6.00981 100.592 5.08717 99.3485 4.48661C98.1485 3.93094 96.8101 3.74587 95.5044 3.95506C94.0519 4.20477 92.6755 4.78288 91.4804 5.6453C90.5844 6.29038 89.7229 6.98189 88.8992 7.71699C85.4499 10.6806 82.1659 13.498 75.9604 11.0631C81.1229 10.5458 81.2252 9.20169 86.381 4.77246" fill="#2A9389"/>
        <path d="M83.4699 3.85558C80.7816 0.28007 74.4489 -1.00099 69.8514 1.14335C68.0253 2.01784 66.4665 3.36532 65.3371 5.04582C64.0407 6.97541 63.2001 9.17459 62.8791 11.4769C62.6001 13.3937 62.5042 15.3326 62.5924 17.2675C62.6773 19.3054 62.9331 21.3326 63.3571 23.3277C64.7992 29.1091 67.186 34.6127 70.4212 39.6164C73.7816 44.385 80.7232 47.6469 82.1018 40.5542C79.2844 43.3716 76.4555 41.6058 73.5187 37.4376C70.5609 32.8617 68.3792 27.8288 67.0617 22.5419C66.6792 20.7566 66.447 18.9425 66.3677 17.1184C66.2907 15.4211 66.3756 13.7203 66.621 12.0391C66.852 10.3077 67.4731 8.65133 68.4375 7.19494C69.1874 6.0715 70.2242 5.16907 71.4403 4.58119C74.7156 2.69019 79.9632 2.90243 83.4583 3.85462" fill="#353537"/>
        <path d="M170.999 67.4586H162.991V63.7416H170.624V61.6852H162.991V57.928H170.936V55.7722H160.776V69.6345H170.999V67.4586ZM149.367 57.8085C149.712 57.7852 150.058 57.8347 150.382 57.9536C150.706 58.0725 151.002 58.2583 151.25 58.4989C151.498 58.7395 151.693 59.0295 151.822 59.3501C151.95 59.6707 152.01 60.0148 151.997 60.3601C152.012 60.7041 151.952 61.0472 151.822 61.3659C151.691 61.6845 151.493 61.9711 151.241 62.2059C150.989 62.4408 150.69 62.6183 150.363 62.7263C150.036 62.8342 149.689 62.8701 149.347 62.8314H145.134V57.8085H149.367ZM154.625 69.2387L150.492 64.6316C151.558 64.5476 152.549 64.0492 153.251 63.2432C153.953 62.4373 154.312 61.3882 154.25 60.3209C154.25 57.9873 152.569 55.7923 149.365 55.7923C147.209 55.7923 145.074 55.7722 142.919 55.7722V69.6345H145.133V64.8486H148.059L152.272 69.6345H154.862L154.625 69.2387ZM132.914 64.7109H127.06L129.987 58.1144L132.914 64.7109ZM135.049 69.6345H137.402L131.193 55.7722H128.78L122.566 69.6345H124.92L126.226 66.7281H133.72L135.049 69.6345ZM116.759 66.3323C115.771 67.2849 114.454 67.8224 113.082 67.8343C112.405 67.8811 111.725 67.7833 111.089 67.5473C110.453 67.3113 109.874 66.9426 109.392 66.4656C108.909 65.9886 108.533 65.4144 108.29 64.781C108.046 64.1477 107.94 63.4697 107.979 62.7922C107.938 62.1095 108.041 61.4258 108.282 60.7858C108.523 60.1458 108.897 59.564 109.379 59.0786C109.86 58.5932 110.439 58.2152 111.077 57.9693C111.716 57.7234 112.399 57.6152 113.082 57.6517C114.415 57.6383 115.7 58.1496 116.66 59.0752L118.143 57.6517C117.481 56.9834 116.692 56.4536 115.823 56.0937C114.954 55.7337 114.022 55.5506 113.082 55.5551C112.113 55.5021 111.144 55.6533 110.237 55.9987C109.33 56.3441 108.506 56.8761 107.818 57.5603C107.13 58.2445 106.594 59.0655 106.244 59.9702C105.893 60.875 105.737 61.8432 105.784 62.8123C105.804 66.4509 108.059 69.9117 113.082 69.9117C114.041 69.93 114.995 69.7577 115.888 69.4047C116.78 69.0517 117.594 68.5251 118.281 67.8553L116.759 66.3323ZM87.0616 55.7722V69.6345H96.5721V67.5781H89.2758V55.7722H87.0616ZM77.055 64.7109H71.2032L74.1296 58.1144L77.055 64.7109ZM79.1898 69.6345H81.5483L75.3399 55.7722H72.9241L66.7099 69.6345H69.0627L70.3686 66.7281H77.8628L79.1898 69.6345ZM57.0828 69.6345H59.3209V57.7693H63.8486V55.7722H52.537V57.7693H57.0848L57.0828 69.6345ZM36.7952 55.7722H35.0973V69.6345H37.3315V59.8524L45.1833 69.6345H46.864V55.7722H44.646V65.6335L36.7952 55.7722ZM28.6518 67.4586H20.6433V63.7416H28.2761V61.6852H20.6433V57.928H28.5926V55.7722H18.4291V69.6345H28.6518V67.4586ZM2.19884 57.8888H5.23993C6.51428 57.8888 7.73644 58.395 8.63754 59.2961C9.53864 60.1972 10.0449 61.4194 10.0449 62.6938C10.0449 63.9681 9.53864 65.1902 8.63754 66.0913C7.73644 66.9924 6.51428 67.4987 5.23993 67.4987H2.19884V57.8888ZM0 55.7722V69.6345H5.23993C10.085 69.6345 12.26 66.0924 12.1806 62.5848C12.1223 59.1565 9.96648 55.7722 5.23993 55.7722H0Z" fill="#353537"/>
        <path d="M122.665 76.3886V81.1821L119.127 76.3886H117.714V83.2901H119.101V78.4871L122.625 83.2901H124.041V76.3886H122.665ZM104.648 80.8418L105.788 77.7959L106.919 80.8418H104.648ZM107.83 83.2901H109.33L106.558 76.3886H105.003L102.231 83.2901H103.731L104.219 81.9842H107.342L107.83 83.2901ZM91.8083 77.5761C92.1978 77.5752 92.5829 77.6586 92.9372 77.8204C93.2915 77.9823 93.6066 78.2188 93.8609 78.5139V76.9327C93.2119 76.5042 92.4481 76.2827 91.6706 76.2978C91.1998 76.3051 90.7351 76.405 90.3029 76.5919C89.8707 76.7788 89.4796 77.0491 89.1519 77.3871C88.8241 77.7252 88.5661 78.1244 88.3927 78.5622C88.2192 78.9999 88.1337 79.4675 88.141 79.9383C88.1483 80.4091 88.2482 80.8739 88.4351 81.3061C88.622 81.7382 88.8922 82.1293 89.2302 82.4571C89.5683 82.7849 89.9676 83.0429 90.4054 83.2164C90.8431 83.3898 91.3107 83.4752 91.7815 83.468C92.5203 83.4529 93.2405 83.2332 93.8618 82.8332V79.3734H91.2949V80.5598H92.6094V82.0034C92.3229 82.0894 92.0252 82.1329 91.7261 82.1324C91.4233 82.1511 91.1201 82.1059 90.8359 81.9997C90.5518 81.8936 90.2931 81.7288 90.0768 81.5162C89.8604 81.3037 89.6912 81.0481 89.58 80.7659C89.4689 80.4836 89.4183 80.1811 89.4317 79.8781C89.4162 79.5656 89.4676 79.2535 89.5825 78.9625C89.6973 78.6714 89.873 78.4082 90.0977 78.1905C90.3224 77.9728 90.5909 77.8055 90.8854 77.6999C91.1799 77.5942 91.4936 77.5527 91.8054 77.5779M76.1066 82.0406C75.6624 82.0787 75.2171 81.9818 74.8289 81.7625C74.4408 81.5431 74.128 81.2116 73.9316 80.8114C73.7351 80.4112 73.6641 79.961 73.728 79.5197C73.7918 79.0785 73.9874 78.6668 74.2893 78.3387C74.5912 78.0106 74.9852 77.7814 75.4196 77.6811C75.854 77.5808 76.3085 77.6139 76.7237 77.7764C77.1389 77.9389 77.4952 78.2232 77.7461 78.5917C77.997 78.9603 78.1307 79.396 78.1296 79.8418C78.1554 80.1222 78.1221 80.4047 78.032 80.6714C77.9418 80.9381 77.7967 81.183 77.6061 81.3902C77.4155 81.5974 77.1836 81.7623 76.9254 81.8743C76.6671 81.9863 76.3882 82.043 76.1066 82.0406ZM76.1066 83.379C76.8151 83.4148 77.5179 83.2373 78.1245 82.8695C78.731 82.5017 79.2133 81.9606 79.5091 81.3159C79.8049 80.6712 79.9007 79.9526 79.7839 79.2529C79.6671 78.5533 79.3432 77.9047 78.8541 77.391C78.3649 76.8773 77.733 76.522 77.04 76.3711C76.3469 76.2202 75.6244 76.2806 74.966 76.5444C74.3076 76.8083 73.7434 77.2636 73.3464 77.8514C72.9493 78.4391 72.7376 79.1325 72.7386 79.8418C72.716 80.2981 72.7863 80.7541 72.9453 81.1824C73.1044 81.6106 73.3488 82.0021 73.6638 82.3329C73.9789 82.6638 74.3578 82.9272 74.7778 83.107C75.1977 83.2868 75.6498 83.3793 76.1066 83.379ZM60.9404 83.2835H64.6564V82.0731H62.3324V76.3868H60.9433L60.9404 83.2835ZM49.6756 83.379C51.0829 83.379 52.233 82.727 52.233 81.3274C52.233 79.989 51.037 79.5244 50.0427 79.1287C49.3439 78.8514 48.7454 78.6124 48.7454 78.143C48.7454 77.7195 49.1279 77.4527 49.6852 77.4527C49.9879 77.4423 50.2889 77.5018 50.565 77.6265C50.841 77.7511 51.0846 77.9376 51.277 78.1716L52.1785 77.2969C51.8477 76.9657 51.4524 76.7058 51.0171 76.5335C50.5819 76.3611 50.1158 76.28 49.6479 76.295C48.3229 76.295 47.32 77.0397 47.32 78.1994C47.32 79.3122 48.3143 79.7356 49.2531 80.1037C50.0619 80.4154 50.8257 80.7013 50.8257 81.3466C50.8171 81.88 50.3477 82.0914 49.7215 82.0914C49.3635 82.1044 49.0083 82.0249 48.6901 81.8604C48.3719 81.6959 48.1015 81.4521 47.9051 81.1525L46.9491 82.1009C47.2771 82.5058 47.6926 82.831 48.1643 83.0524C48.636 83.2738 49.1518 83.3854 49.6728 83.379" fill="#2A9389"/>
        <path fill-rule="evenodd" clip-rule="evenodd" d="M134.621 80.5311H156.729V79.228H134.621V80.5311ZM14.2695 80.5311H36.3774V79.228H14.2695V80.5311Z" fill="#2A9389"/>
    </g>
</svg>
