<svg width="205" height="65" viewBox="0 0 205 65" fill="none"
    xmlns="http://www.w3.org/2000/svg">
    <mask id="mask0_3_194" style="mask-type:luminance" maskUnits="userSpaceOnUse" x="0" y="0" width="62" height="65">
        <path d="M24.6483 45.3412C22.073 48.5332 20.2279 52.5715 20.3431 56.7633C20.4198 59.4938 21.458 62.7242 24.11 63.9552C25.3667 64.5368 26.8006 64.6056 28.1073 64.1471C29.272 63.6477 30.482 63.2615 31.7207 62.9938C32.565 63.6179 33.5482 64.028 34.5858 64.1887C35.6234 64.3495 36.6845 64.2562 37.6781 63.9168C40.0999 62.917 41.1764 60.456 41.3299 57.9942C41.5602 53.8068 39.4465 49.2259 37.2943 45.7651C36.3722 44.3039 34.7958 43.8808 33.9505 45.5732C33.1802 47.1608 32.0007 48.5144 30.5333 49.4946L29.8032 49.9561L30.6485 49.7258C32.4298 49.2087 33.9523 48.0422 34.9153 46.4569C35.492 45.5723 35.799 46.108 36.2239 46.8417C38.4921 50.4568 41.6056 57.879 37.9154 61.4977C34.61 64.6897 29.5362 60.1132 27.7679 57.2675L27.7295 57.1907L27.4992 57.2675L27.5376 57.3826C28.2626 59.2569 29.4063 60.9407 30.8814 62.3055C28.5748 62.3823 27.0761 63.7283 24.7695 62.152C22.0791 60.306 21.6944 57.0756 22.2326 54.0763C22.5397 52.1152 24.0393 47.7306 25.7693 46.5738C26.2691 46.1891 26.6539 46.4587 26.9226 46.9969C28.9596 51.5735 32.5346 59.8803 38.8742 55.6117L38.951 55.5349L38.8358 55.3421L38.7206 55.3805C32.7239 58.4182 29.572 49.8043 28.0348 45.6509C27.9762 45.284 27.7922 44.9488 27.5141 44.7024C27.236 44.456 26.8812 44.3137 26.5099 44.2995C26.1424 44.3271 25.7854 44.4352 25.4643 44.6161C25.1432 44.797 24.8658 45.0463 24.6517 45.3464M45.7128 33.4192C43.9828 33.496 42.8339 34.6501 43.8677 36.2649C44.8799 37.7018 45.4663 39.3951 45.5592 41.1502L45.5976 41.9965L45.8279 41.1886C46.2769 39.383 46.03 37.4745 45.1361 35.8427C44.6746 34.9197 45.2897 34.9197 46.0958 34.8831C50.3634 34.7234 58.3623 35.765 59.6273 40.7647C60.7805 45.226 54.2455 47.3407 50.9034 47.4558H50.8249L50.7865 47.6861H50.9017C52.8807 48.0089 54.9078 47.864 56.8208 47.263C55.7443 49.3009 56.1674 51.2629 53.6689 52.4973C50.7089 53.8818 47.7114 52.6125 45.3664 50.6514C43.8293 49.382 40.7925 45.9213 40.639 43.8468C40.6006 43.1934 40.988 43.0006 41.5611 43.039C46.5581 43.5772 55.5524 44.577 55.0141 37.0012V36.886H54.7855V37.0012C54.4008 43.7316 45.3638 42.1544 40.9862 41.4242C39.1027 40.9627 38.4109 42.5775 39.026 44.1931C40.4244 48.1381 43.1571 51.4707 46.7518 53.6148C49.1735 54.9234 52.479 55.6143 54.9007 53.9638C56.016 53.1575 56.7852 51.9593 57.0537 50.6095C57.2098 49.3475 57.4668 48.1001 57.8223 46.8792C58.7946 46.4777 59.6497 45.8371 60.3084 45.017C60.9671 44.1968 61.4079 43.2235 61.5901 42.1875C61.9748 39.6105 60.3984 37.4191 58.3231 36.073C55.1432 33.9793 50.6932 33.4035 46.8486 33.4035C46.4639 33.4035 46.0853 33.4096 45.7145 33.4201M4.42995 35.458C2.08499 36.8808 -0.1832 39.3802 0.047981 42.3027C0.173859 43.6788 0.836732 44.9501 1.89307 45.841C2.91318 46.6176 3.86467 47.4803 4.73703 48.4198C4.60073 49.4551 4.7266 50.508 5.10308 51.482C5.47957 52.456 6.09462 53.3199 6.89181 53.9943C8.92882 55.6091 11.6192 55.3404 13.8491 54.2246C17.5776 52.3403 20.4992 48.2253 22.4211 44.6101C23.228 43.1105 22.8058 41.5332 20.8831 41.6109C19.1359 41.76 17.3813 41.4281 15.8093 40.6512L15.0407 40.2281L15.6558 40.8432C16.977 42.152 18.7548 42.8967 20.6144 42.9203C21.6525 42.9971 21.3446 43.497 20.9633 44.2289C18.9647 47.9976 14.0829 54.42 9.08585 53.0356C4.70388 51.7663 6.12586 45.0751 7.70225 42.1142L7.74064 42.0375L7.54872 41.9223L7.47195 41.9991C6.20691 43.5549 5.32482 45.386 4.89668 47.345C3.705 45.3839 1.74476 44.7279 1.97507 41.9991C2.20538 38.7303 4.81991 36.7648 7.66387 35.731C9.54734 35.0383 14.0829 34.1162 15.9663 35.0383C16.543 35.3079 16.5046 35.7694 16.1582 36.2309C13.2366 40.2691 7.85579 47.5718 14.6595 50.9218L14.7746 50.9602L14.8898 50.7683L14.813 50.6915C9.16262 46.9996 15.0433 39.9612 17.8882 36.5388C19.2334 35.1544 18.1569 33.7315 16.4662 33.462C15.3529 33.2808 14.2268 33.1892 13.0988 33.188C10.0562 33.1291 7.05689 33.9162 4.43519 35.4614M6.77491 10.6527C5.66199 11.4571 4.89369 12.6519 4.62362 13.9983C4.46761 15.2602 4.21059 16.5077 3.85505 17.7286C2.88166 18.135 2.02432 18.7766 1.35988 19.5959C0.695448 20.4152 0.24468 21.3865 0.047981 22.4228C0.0164592 22.6565 0.000430508 22.892 0 23.1277L0 23.1356C0 25.395 1.47258 27.2811 3.35343 28.5356C6.85168 30.8431 11.8871 31.3046 15.9611 31.1528C17.691 31.1144 18.8399 29.9602 17.8062 28.3454C16.7935 26.8948 16.2075 25.1894 16.1146 23.4226L16.0762 22.5764L15.8459 23.4226C15.3993 25.2283 15.6461 27.136 16.5377 28.7685C16.9992 29.6915 16.3842 29.6915 15.5781 29.6915C11.3113 29.8451 3.31592 28.8453 2.00909 23.8073C0.894191 19.3843 7.4292 17.2697 10.7329 17.1545H10.8481L10.8864 16.9242L10.7713 16.8858C8.78926 16.576 6.76224 16.734 4.85218 17.3473C5.9287 15.3094 5.5056 13.3475 8.0041 12.113C10.9641 10.6902 13.9616 11.9979 16.3066 13.9206C17.8437 15.2292 20.8804 18.689 21.0349 20.7662C21.0732 21.3812 20.6501 21.6124 20.0752 21.5356C15.1166 21.0358 6.12237 19.9976 6.66063 27.6118V27.7269H6.89181V27.5699C7.27653 20.8787 16.3135 22.4551 20.6911 23.1862C22.5746 23.6477 23.2664 21.9936 22.6514 20.4172C21.191 16.5718 18.5774 12.9566 14.9256 10.9955C13.4543 10.1712 11.8054 9.71502 10.1196 9.66601C8.92992 9.64011 7.76163 9.98493 6.77666 10.6527M47.8266 10.384C44.098 12.2299 41.1764 16.3833 39.2572 19.9976C38.4502 21.4972 38.8724 23.0745 40.7943 22.9585C42.5439 22.8421 44.2934 23.1868 45.8681 23.9582L46.6366 24.343L46.0216 23.7663C44.696 22.4642 42.9209 21.7209 41.063 21.69C40.0249 21.6133 40.3328 21.1134 40.714 20.3815C42.7127 16.5744 47.5945 10.1903 52.5915 11.5748C56.9735 12.8057 55.5515 19.5353 53.9751 22.4577L53.9367 22.5729L54.1286 22.688L54.2054 22.6113C55.4704 21.0554 56.3525 19.2243 56.7807 17.2653C57.9724 19.1846 59.9326 19.8825 59.7023 22.6113C59.472 25.8801 56.8574 27.8456 54.0135 28.8793C52.13 29.5711 47.5945 30.4941 45.711 29.5711C45.1344 29.3024 45.1728 28.8409 45.5191 28.3786C48.4407 24.3019 53.8216 17.0376 47.0179 13.6877L46.9027 13.6493L46.7876 13.8412L46.8643 13.918C52.5147 17.6099 46.634 24.6483 43.7892 28.0706C42.444 29.4551 43.5205 30.878 45.2112 31.1475C49.2477 31.8009 53.7064 31.3394 57.2422 29.148C59.5871 27.7252 61.8545 25.2223 61.6241 22.2641C61.481 20.893 60.8213 19.6279 59.7791 18.7257C58.7595 17.9635 57.808 17.1144 56.9351 16.1879C57.063 15.148 56.9339 14.0927 56.5591 13.1142C56.1844 12.1358 55.5754 11.2643 54.7855 10.5759C53.8298 9.83363 52.65 9.43861 51.44 9.45576C50.1801 9.48325 48.9436 9.80088 47.8266 10.384ZM33.5657 0.423129C32.4088 0.95227 31.197 1.3522 29.9523 1.61567C29.1117 0.982279 28.1275 0.566563 27.0873 0.40553C26.0471 0.244498 24.9833 0.343147 23.9905 0.692695C21.5688 1.65231 20.4922 4.11505 20.3387 6.61529C20.1084 10.8071 22.2222 15.3836 24.3743 18.8443C25.2973 20.3056 26.8728 20.7287 27.7182 19.0363C28.4781 17.4396 29.6612 16.0819 31.1388 15.1105L31.869 14.6491L31.0236 14.8794C29.2393 15.3667 27.7112 16.5227 26.7568 18.1072C26.1802 18.9918 25.8731 18.4561 25.4482 17.7582C23.18 14.1431 20.0665 6.67898 23.7567 3.10221C27.0621 -0.125599 32.1359 4.48668 33.9042 7.294L33.9426 7.40916L34.1729 7.294L34.1345 7.17885C33.3897 5.32043 32.2503 3.64586 30.7951 2.27083C33.0632 2.23245 34.6004 0.886363 36.907 2.46276C39.5974 4.27033 39.9821 7.53914 39.4438 10.5384C39.1368 12.4995 37.6371 16.8457 35.9072 18.0409C35.4073 18.3898 34.9851 18.156 34.7539 17.6178C32.7169 13.0413 29.1419 4.73444 22.8023 9.003L22.7255 9.04138L22.8407 9.27169L22.9558 9.19492C28.9535 6.15293 32.1036 14.7677 33.6425 18.9595C34.1808 20.8054 35.9491 20.5743 37.0247 19.2674C39.6 16.0754 41.4451 11.9988 41.3299 7.84535C41.2532 5.1148 40.2168 1.88437 37.563 0.613308C36.8799 0.305103 36.1384 0.147985 35.389 0.152691C34.7718 0.156835 34.1581 0.246976 33.5657 0.420512" fill="white"/>
    </mask>
    <g mask="url(#mask0_3_194)">
        <path d="M34.9847 -30.9218L-32.3199 28.0385L26.8047 95.5308L94.1094 36.5706L34.9847 -30.9218Z" fill="url(#paint0_linear_3_194)"/>
    </g>
    <mask id="mask1_3_194" style="mask-type:luminance" maskUnits="userSpaceOnUse" x="0" y="0" width="205" height="65">
        <path d="M205 0H0V64.6077H205V0Z" fill="white"/>
    </mask>
    <g mask="url(#mask1_3_194)">
        <path d="M80.2679 7.30711H86.6869C88.1491 7.28039 89.5972 7.59649 90.9153 8.23008C92.079 8.80146 93.0534 9.69618 93.7217 10.8071C94.4271 11.9779 94.787 13.3243 94.7599 14.6909C94.7871 16.0455 94.4269 17.3796 93.7217 18.5364C93.0666 19.6679 92.0897 20.5789 90.9153 21.1535C89.5972 21.7871 88.1491 22.1032 86.6869 22.0765H80.2679V7.30711ZM86.5726 19.7289C87.5564 19.7572 88.5323 19.5461 89.4165 19.1139C90.2166 18.7262 90.8843 18.1107 91.3358 17.3447C91.7649 16.5261 91.989 15.6156 91.989 14.6914C91.989 13.7671 91.7649 12.8566 91.3358 12.038C90.8954 11.2632 90.2246 10.6448 89.4165 10.2688C88.5355 9.82365 87.5595 9.5994 86.5726 9.61542H82.9958V19.7289H86.5726ZM109.636 19.7673V22.0748H98.5652V7.30711H109.328V9.61455H101.294V13.46H108.405V15.6907H101.294V19.7673H109.636ZM126.702 7.30711V22.0748H124.434L116.285 12.0755V22.0748H113.595V7.30711H115.824L123.973 17.3055V7.30711H126.702ZM134.543 9.61455H129.658V7.30711H142.15V9.61455H137.265V22.0748H134.536L134.543 9.61455ZM153.954 18.6524H146.612L145.152 22.0748H142.308L148.958 7.30711H151.649L158.299 22.0748H155.455L153.954 18.6524ZM153.071 16.4985L150.265 10.0377L147.536 16.4985H153.071ZM161.104 7.30711H163.833V19.7289H171.521V22.0748H161.104L161.104 7.30711ZM101.795 30.0763L96.9094 44.8055H94.0305L90.3788 33.8833L86.6502 44.8055H83.7286L78.8433 30.0763H81.6872L85.3391 41.2672L89.1897 30.0736H91.6882L95.4168 41.3413L99.1837 30.0736L101.795 30.0763ZM116.321 42.4955V44.8029H105.25V30.0736H116.015V32.3418H108.02V36.1873H115.131V38.4555H108.02V42.4937L116.321 42.4955ZM120.28 30.0736H123.008V42.4955H130.734V44.8029H120.282L120.28 30.0736ZM133.809 30.0736H136.538V42.4955H144.264V44.8029H133.812L133.809 30.0736ZM160.408 30.0736V44.8029H158.179L150.03 34.8421V44.8029H147.343V30.0736H149.572L157.721 40.0345V30.0736H160.408ZM176.36 42.4955V44.8029H165.289V30.0736H176.052V32.3418H168.018V36.1873H175.172V38.4555H168.018V42.4937L176.36 42.4955ZM184.893 45.0332C183.774 45.0235 182.661 44.8552 181.588 44.5334C180.671 44.3015 179.817 43.8679 179.089 43.264L180.012 41.1101C180.679 41.6355 181.434 42.0392 182.241 42.3027C183.093 42.6047 183.99 42.7607 184.893 42.7642C185.747 42.8135 186.598 42.6273 187.354 42.2259C187.599 42.088 187.804 41.8869 187.945 41.6435C188.087 41.4001 188.162 41.1232 188.161 40.8414C188.166 40.6449 188.127 40.4497 188.047 40.2701C187.968 40.0904 187.849 39.931 187.699 39.8033C187.372 39.4973 186.976 39.2733 186.546 39.1499C186.084 38.9964 185.469 38.8009 184.662 38.6116C183.736 38.4008 182.825 38.131 181.933 37.8038C181.246 37.5355 180.628 37.1146 180.127 36.5729C179.608 35.9196 179.348 35.0982 179.397 34.2654C179.394 33.4744 179.621 32.6996 180.05 32.0347C180.556 31.3334 181.249 30.7874 182.049 30.4584C183.079 30.0156 184.195 29.8056 185.316 29.8433C186.211 29.8407 187.103 29.9581 187.968 30.1923C188.773 30.3796 189.541 30.7042 190.236 31.1519L189.352 33.3058C188.138 32.5546 186.744 32.1427 185.317 32.1133C184.469 32.0542 183.624 32.2554 182.895 32.6899C182.648 32.8358 182.443 33.044 182.301 33.2936C182.16 33.5433 182.086 33.8257 182.088 34.1128C182.082 34.3093 182.121 34.5045 182.201 34.6841C182.281 34.8638 182.4 35.0233 182.549 35.1509C182.886 35.4434 183.279 35.6655 183.703 35.8043C184.164 35.9579 184.818 36.1123 185.586 36.3042C186.511 36.5205 187.422 36.7902 188.315 37.112C189.001 37.3814 189.609 37.8177 190.083 38.3813C190.62 39.0114 190.895 39.823 190.852 40.6495C190.854 41.4286 190.627 42.1911 190.198 42.8418C189.686 43.553 188.978 44.1007 188.161 44.4191C187.131 44.8619 186.015 45.0719 184.894 45.0341M199.039 45.0341C197.919 45.0244 196.806 44.8561 195.734 44.5342C194.82 44.294 193.968 43.8612 193.235 43.2649L194.157 41.111C194.825 41.6364 195.58 42.0401 196.387 42.3036C197.239 42.6056 198.135 42.7616 199.039 42.765C199.893 42.8193 200.746 42.6328 201.499 42.2268C201.745 42.0889 201.949 41.8878 202.091 41.6444C202.233 41.401 202.307 41.1241 202.306 40.8423C202.312 40.6458 202.273 40.4506 202.193 40.2709C202.113 40.0913 201.994 39.9318 201.845 39.8042C201.517 39.4981 201.122 39.2742 200.691 39.1508C200.23 38.9972 199.615 38.8018 198.808 38.6125C197.882 38.4017 196.971 38.1319 196.079 37.8047C195.392 37.5363 194.774 37.1155 194.272 36.5738C193.77 35.9119 193.512 35.0967 193.542 34.2663C193.54 33.4752 193.767 32.7005 194.196 32.0356C194.702 31.3343 195.394 30.7883 196.194 30.4592C197.238 30.0166 198.366 29.8068 199.5 29.8442C200.395 29.8466 201.286 29.9639 202.152 30.1932C202.943 30.3876 203.696 30.7119 204.382 31.1528L203.536 33.3067C202.898 32.9251 202.214 32.6278 201.499 32.4221C200.837 32.2287 200.152 32.1251 199.462 32.1141C198.615 32.0551 197.77 32.2563 197.04 32.6908C196.804 32.8448 196.609 33.0557 196.475 33.3043C196.341 33.5529 196.271 33.8311 196.272 34.1136C196.268 34.3063 196.304 34.4977 196.377 34.6762C196.45 34.8547 196.558 35.0165 196.695 35.1518C197.032 35.4442 197.424 35.6664 197.848 35.8052C198.31 35.9587 198.963 36.1131 199.768 36.3051C200.68 36.5207 201.578 36.7904 202.458 37.1129C203.155 37.3813 203.776 37.8173 204.265 38.3822C204.788 39.0175 205.05 39.8289 204.995 40.6504C204.997 41.4295 204.77 42.1919 204.341 42.8427C203.835 43.5443 203.143 44.0906 202.343 44.42C201.299 44.8626 200.171 45.0724 199.037 45.035" fill="#333333"/>
        <path d="M82.8432 59.8776C82.3309 59.885 81.822 59.7934 81.3444 59.608C80.9158 59.4994 80.5201 59.2884 80.1912 58.993L80.5401 58.2235C80.8487 58.4765 81.2004 58.6718 81.5782 58.8002C81.9842 58.9512 82.4135 59.0294 82.8466 59.0314C83.3036 59.0592 83.7586 58.9521 84.1552 58.7234C84.2891 58.6459 84.3993 58.5332 84.4739 58.3976C84.5485 58.262 84.5846 58.1086 84.5784 57.954C84.5889 57.8464 84.5735 57.738 84.5334 57.6376C84.4933 57.5373 84.4297 57.448 84.348 57.3773C84.1859 57.2173 83.9884 57.0977 83.7714 57.0284C83.4651 56.8956 83.1424 56.8049 82.8118 56.7588C82.2735 56.6053 81.8522 56.4892 81.5433 56.3741C81.2278 56.2367 80.941 56.0411 80.698 55.7975C80.4581 55.4911 80.3345 55.1097 80.349 54.7209C80.3448 54.3638 80.4522 54.0143 80.6561 53.7212C80.8777 53.4009 81.1835 53.1482 81.5398 52.991C82.0123 52.7881 82.525 52.6959 83.0386 52.7214C83.4411 52.7156 83.8423 52.7673 84.2302 52.875C84.6007 52.9666 84.9521 53.1228 85.2684 53.3365L84.9605 54.1443C84.6674 53.949 84.3427 53.8058 84.0008 53.7212C83.6924 53.6143 83.3676 53.5623 83.0412 53.5677C82.5969 53.5392 82.1546 53.6466 81.7728 53.8756C81.6346 53.9581 81.5219 54.0772 81.4472 54.2198C81.3726 54.3624 81.3388 54.5228 81.3497 54.6834C81.3469 54.7901 81.3658 54.8963 81.4054 54.9955C81.445 55.0946 81.5044 55.1847 81.58 55.2601C81.742 55.4202 81.9396 55.5397 82.1566 55.609C82.4705 55.719 82.791 55.8091 83.1162 55.8786C83.5483 55.9742 83.9723 56.1028 84.3847 56.2633C84.7149 56.3725 85.0079 56.5723 85.23 56.8399C85.4697 57.1315 85.5938 57.501 85.579 57.8781C85.5774 58.2343 85.4706 58.5821 85.2719 58.8778C85.0443 59.208 84.7232 59.4626 84.3498 59.6089C83.877 59.8118 83.364 59.904 82.8502 59.8784M87.3866 52.8026H88.3863V58.9171H92.1532V59.8017H87.3866V52.8026ZM96.6887 59.8784C96.0202 59.8897 95.3599 59.7309 94.7695 59.417C94.2067 59.1164 93.7403 58.6627 93.4243 58.1084C93.1149 57.5566 92.9557 56.9334 92.9628 56.3008C92.9558 55.6561 93.1147 55.0204 93.4243 54.4549C93.7529 53.9206 94.2171 53.4826 94.7695 53.1855C95.3598 52.8716 96.0202 52.7128 96.6887 52.7241C97.3454 52.7169 97.9932 52.8757 98.5722 53.1855C99.1247 53.4826 99.5888 53.9205 99.9174 54.4549C100.232 55.0186 100.391 55.6555 100.379 56.3008C100.386 56.9455 100.227 57.5812 99.9174 58.1468C99.5888 58.6811 99.1247 59.119 98.5722 59.4161C97.9932 59.7259 97.3454 59.8855 96.6887 59.8784ZM96.6887 58.993C97.1721 58.9962 97.6483 58.8761 98.0723 58.644C98.4802 58.4032 98.8181 58.0601 99.0529 57.6487C99.2877 57.2373 99.4112 56.7719 99.4112 56.2982C99.4112 55.8245 99.2877 55.3591 99.0529 54.9477C98.8181 54.5363 98.4802 54.1932 98.0723 53.9524C97.6483 53.7202 97.1721 53.6001 96.6887 53.6034C96.2042 53.5905 95.7255 53.7112 95.3051 53.9524C94.8933 54.1787 94.5484 54.5097 94.3054 54.912C94.0783 55.3381 93.9594 55.8136 93.9594 56.2965C93.9594 56.7793 94.0783 57.2548 94.3054 57.6809C94.5484 58.0832 94.8933 58.4142 95.3051 58.6406C95.7255 58.8817 96.2042 59.0024 96.6887 58.9895M107.106 56.2589H108.065V58.9895C107.695 59.2746 107.279 59.4955 106.835 59.6429C106.377 59.7971 105.897 59.8749 105.413 59.8732C104.745 59.8798 104.086 59.7213 103.494 59.4117C102.952 59.1135 102.5 58.6751 102.186 58.1424C101.847 57.5872 101.673 56.9468 101.686 56.2965C101.668 55.6455 101.842 55.0036 102.186 54.4505C102.5 53.9178 102.952 53.4794 103.494 53.1812C104.086 52.8716 104.745 52.713 105.413 52.7197C105.939 52.7053 106.462 52.797 106.951 52.9892C107.392 53.1672 107.787 53.4435 108.105 53.7971L107.494 54.4121C107.232 54.15 106.92 53.9434 106.577 53.8046C106.234 53.6658 105.866 53.5977 105.495 53.6043C104.987 53.5964 104.485 53.7164 104.035 53.9532C103.623 54.1792 103.278 54.5103 103.035 54.9129C102.808 55.339 102.689 55.8145 102.689 56.2973C102.689 56.7802 102.808 57.2557 103.035 57.6818C103.287 58.0945 103.644 58.4331 104.07 58.663C104.495 58.8928 104.974 59.0058 105.457 58.9904C106.042 59.0082 106.619 58.8472 107.11 58.5289L107.106 56.2589ZM114.755 58.0281H111.065L110.296 59.7973H109.258L112.41 52.7982H113.41L116.6 59.7973H115.523L114.755 58.0281ZM114.406 57.2587L112.907 53.7979L111.408 57.2587H114.406ZM123.977 52.7973V59.7964H123.165L118.977 54.5622V59.7964H117.977V52.7973H118.784L122.972 58.0316V52.7973H123.977ZM135.124 52.7973V59.7964H134.124V56.6882H130.089V59.8034H129.089V52.8043H130.089V55.8044H134.124V52.8043L135.124 52.7973ZM142.62 58.9118V59.7964H137.546V52.7973H142.504V53.6819H138.546V55.7975H142.044V56.6437H138.546V58.9118H142.62ZM149.27 59.7964L147.766 57.6478H145.575V59.8017H144.576V52.8026H147.304C148.076 52.7655 148.836 52.9967 149.456 53.4568C149.708 53.6759 149.908 53.9484 150.041 54.2545C150.174 54.5606 150.237 54.8925 150.225 55.2261C150.245 55.7164 150.11 56.2007 149.84 56.6105C149.551 57.0037 149.149 57.299 148.687 57.4567L150.34 59.8026L149.27 59.7964ZM147.31 56.7972C147.814 56.8392 148.317 56.703 148.732 56.4125C148.905 56.269 149.041 56.0856 149.129 55.8778C149.216 55.6701 149.251 55.4443 149.231 55.2199C149.247 55.0017 149.21 54.7829 149.122 54.5822C149.035 54.3814 148.901 54.2046 148.732 54.0666C148.317 53.7761 147.814 53.6399 147.31 53.6819H145.58V56.7972H147.31ZM157.265 58.9127V59.7973H152.191V52.7982H157.15V53.6828H153.191V55.7983H156.689V56.6445H153.191V58.9127H157.265Z" fill="#333333"/>
        <path d="M71.8503 0H70.7354V64.6077H71.8503V0Z" fill="#333333"/>
    </g>
    <defs>
        <linearGradient id="paint0_linear_3_194" x1="28.9595" y1="76.943" x2="29.0268" y2="76.8841" gradientUnits="userSpaceOnUse">
            <stop stop-color="#2CAAE1"/>
            <stop offset="0.197" stop-color="#30ADCB"/>
            <stop offset="0.605" stop-color="#3AB792"/>
            <stop offset="1" stop-color="#46C257"/>
        </linearGradient>
    </defs>
</svg>
