<svg width="203" height="55" viewBox="0 0 203 55" fill="none"
    xmlns="http://www.w3.org/2000/svg">
    <path d="M78.4619 28.3946H90.8957V25.8948H80.9563V22.8877H88.9456V20.3701H80.9563V17.363H90.8957V14.8633H78.4619V28.3946Z" fill="#BEBEBE"/>
    <path d="M99.334 19.6746L95.2829 14.8633H92.6021V15.5588L97.6834 21.6289L92.6021 27.6991V28.3946H95.2829L99.315 23.6023L103.347 28.3946H106.048V27.6813L100.947 21.6289L106.048 15.5588V14.8633H103.347L99.334 19.6746Z" fill="#BEBEBE"/>
    <path d="M107.341 17.363H112.855V28.3946H115.35V17.363H120.845V14.8633H107.341V17.363Z" fill="#BEBEBE"/>
    <path d="M122.287 28.3946H134.721V25.8948H124.781V22.8877H132.771V20.3701H124.781V17.363H134.721V14.8633H122.287V28.3946Z" fill="#BEBEBE"/>
    <path d="M147.623 24.7492L139.334 14.8633H136.615V28.3946H139.09V18.4909L147.398 28.3946H150.117V14.8633H147.623V24.7492Z" fill="#BEBEBE"/>
    <path d="M164.36 15.2206C163.967 14.9828 163.532 14.8633 163.057 14.8633H154.768C154.293 14.8633 153.859 14.9828 153.465 15.2206C153.072 15.4583 152.756 15.7749 152.519 16.1691C152.282 16.5633 152.162 16.9994 152.162 17.4749V20.257C152.162 20.7452 152.282 21.1877 152.519 21.5819C152.756 21.9761 153.072 22.2927 153.465 22.5304C153.859 22.7682 154.294 22.8877 154.768 22.8877H162.944C163.006 22.8877 163.06 22.9068 163.104 22.9437C163.147 22.9818 163.17 23.0314 163.17 23.0937V25.6685C163.17 25.7308 163.149 25.7842 163.104 25.8287C163.06 25.8732 163.008 25.8948 162.944 25.8948H154.861C154.799 25.8948 154.746 25.8732 154.701 25.8287C154.657 25.7855 154.635 25.7321 154.635 25.6685V24.7479H152.16V25.7817C152.16 26.2585 152.279 26.6933 152.516 27.0875C152.754 27.4816 153.07 27.7983 153.463 28.036C153.856 28.2738 154.291 28.3933 154.766 28.3933H163.055C163.529 28.3933 163.964 28.2738 164.358 28.036C164.751 27.7983 165.067 27.4816 165.304 27.0875C165.541 26.6933 165.661 26.2572 165.661 25.7817V22.9996C165.661 22.5114 165.541 22.0689 165.304 21.6747C165.067 21.2805 164.751 20.9639 164.358 20.7262C163.964 20.4884 163.529 20.3689 163.055 20.3689H154.86C154.798 20.3689 154.744 20.3498 154.7 20.3129C154.656 20.2748 154.634 20.2252 154.634 20.1629V17.5881C154.634 17.5258 154.656 17.4724 154.7 17.4279C154.743 17.3847 154.796 17.3618 154.86 17.3618H162.943C163.005 17.3618 163.058 17.3834 163.103 17.4279C163.146 17.4724 163.169 17.5245 163.169 17.5881V18.5087H165.663V17.4749C165.663 16.9994 165.544 16.5633 165.307 16.1691C165.069 15.7749 164.754 15.4583 164.36 15.2206Z" fill="#BEBEBE"/>
    <path d="M169.901 14.8633H167.444V28.3946H169.901V14.8633Z" fill="#BEBEBE"/>
    <path d="M180.252 25.3875L174.214 14.8633H171.325L179.146 28.3946H181.359L189.179 14.8633H186.309L180.252 25.3875Z" fill="#BEBEBE"/>
    <path d="M203 17.363V14.8633H190.566V28.3946H203V25.8948H193.061V22.8877H201.05V20.3701H193.061V17.363H203Z" fill="#BEBEBE"/>
    <path d="M105.698 32.6563C105.475 32.5215 105.228 32.4541 104.959 32.4541H100.253C99.9826 32.4541 99.7364 32.5215 99.5131 32.6563C99.2898 32.791 99.1097 32.9716 98.9752 33.1954C98.8407 33.4192 98.7734 33.6671 98.7734 33.9367V35.5159C98.7734 35.7931 98.8407 36.0435 98.9752 36.2686C99.1097 36.4924 99.2898 36.6729 99.5131 36.8077C99.7364 36.9425 99.9838 37.0099 100.253 37.0099H104.895C104.931 37.0099 104.961 37.0201 104.985 37.0417C105.011 37.0633 105.022 37.0913 105.022 37.1269V38.5891C105.022 38.6247 105.009 38.6552 104.985 38.6794C104.96 38.7048 104.931 38.7162 104.895 38.7162H100.306C100.271 38.7162 100.24 38.7035 100.216 38.6794C100.191 38.6539 100.179 38.6247 100.179 38.5891V38.0665H98.7734V38.6539C98.7734 38.9248 98.8407 39.1714 98.9752 39.3952C99.1097 39.619 99.2898 39.7996 99.5131 39.9343C99.7364 40.0691 99.9838 40.1365 100.253 40.1365H104.959C105.229 40.1365 105.475 40.0691 105.698 39.9343C105.922 39.7996 106.1 39.619 106.236 39.3952C106.371 39.1714 106.438 38.9235 106.438 38.6539V37.0747C106.438 36.7975 106.371 36.5471 106.236 36.322C106.102 36.0982 105.922 35.9189 105.698 35.7829C105.475 35.6481 105.228 35.5807 104.959 35.5807H100.306C100.271 35.5807 100.24 35.5705 100.216 35.5489C100.191 35.5273 100.179 35.4993 100.179 35.4637V34.0015C100.179 33.9659 100.192 33.9354 100.216 33.9112C100.241 33.8871 100.271 33.8744 100.306 33.8744H104.895C104.931 33.8744 104.961 33.8871 104.985 33.9112C105.011 33.9367 105.022 33.9659 105.022 34.0015V34.5241H106.438V33.9367C106.438 33.6658 106.371 33.4192 106.236 33.1954C106.102 32.9716 105.922 32.7923 105.698 32.6563Z" fill="#BEBEBE"/>
    <path d="M115.093 33.8721H118.223V40.1355H119.64V33.8721H122.759V32.4531H115.093V33.8721Z" fill="#BEBEBE"/>
    <path d="M137.664 38.5891C137.664 38.6247 137.65 38.6552 137.621 38.6794C137.593 38.7048 137.56 38.7162 137.525 38.7162H132.947C132.912 38.7162 132.881 38.7035 132.857 38.6794C132.832 38.6539 132.82 38.6247 132.82 38.5891V32.4541H131.415V38.6527C131.415 38.9235 131.482 39.1702 131.616 39.3939C131.751 39.6177 131.931 39.7983 132.154 39.9331C132.378 40.0678 132.625 40.1352 132.894 40.1352H137.6C137.87 40.1352 138.116 40.0678 138.339 39.9331C138.563 39.7983 138.742 39.6177 138.877 39.3939C139.012 39.1702 139.079 38.9222 139.079 38.6527V32.4541H137.663V38.5891H137.664Z" fill="#BEBEBE"/>
    <path d="M155.072 32.6563C154.845 32.5215 154.596 32.4541 154.327 32.4541H148.152V40.1365H154.327C154.597 40.1365 154.845 40.0691 155.072 39.9343C155.299 39.7996 155.48 39.619 155.615 39.3952C155.749 39.1714 155.816 38.9235 155.816 38.6539V33.9379C155.816 33.6671 155.749 33.4204 155.615 33.1967C155.48 32.9729 155.299 32.7936 155.072 32.6575V32.6563ZM154.4 38.5891C154.4 38.6247 154.386 38.6552 154.357 38.6794C154.329 38.7048 154.296 38.7162 154.261 38.7162H149.672C149.636 38.7162 149.606 38.7035 149.582 38.6794C149.556 38.6539 149.545 38.6247 149.545 38.5891V34.0015C149.545 33.9659 149.558 33.9354 149.582 33.9112C149.607 33.8871 149.636 33.8744 149.672 33.8744H154.261C154.296 33.8744 154.328 33.8871 154.357 33.9112C154.385 33.9367 154.4 33.9659 154.4 34.0015V38.5891Z" fill="#BEBEBE"/>
    <path d="M166.134 32.4531H164.74V40.1355H166.134V32.4531Z" fill="#BEBEBE"/>
    <path d="M182.488 33.1954C182.354 32.9716 182.174 32.7923 181.95 32.6563C181.727 32.5215 181.48 32.4541 181.211 32.4541H176.505C176.235 32.4541 175.988 32.5215 175.765 32.6563C175.542 32.791 175.362 32.9716 175.227 33.1954C175.093 33.4192 175.025 33.6671 175.025 33.9367V38.6527C175.025 38.9235 175.093 39.1702 175.227 39.3939C175.362 39.6177 175.542 39.7983 175.765 39.9331C175.988 40.0678 176.236 40.1352 176.505 40.1352H181.211C181.481 40.1352 181.727 40.0678 181.95 39.9331C182.174 39.7983 182.352 39.6177 182.488 39.3939C182.623 39.1702 182.69 38.9222 182.69 38.6527V33.9367C182.69 33.6658 182.623 33.4192 182.488 33.1954ZM181.274 38.5891C181.274 38.6247 181.26 38.6552 181.231 38.6794C181.203 38.7048 181.17 38.7162 181.134 38.7162H176.557C176.521 38.7162 176.491 38.7035 176.467 38.6794C176.441 38.6539 176.43 38.6247 176.43 38.5891V34.0015C176.43 33.9659 176.443 33.9354 176.467 33.9112C176.492 33.8871 176.521 33.8744 176.557 33.8744H181.134C181.17 33.8744 181.202 33.8871 181.231 33.9112C181.259 33.9367 181.274 33.9659 181.274 34.0015V38.5891Z" fill="#BEBEBE"/>
    <path d="M35.1368 39.4259L47.5375 30.2876C49.2516 29.0237 51.6711 30.2507 51.6711 32.383C51.6711 33.2108 51.2791 33.9877 50.6142 34.4785L32.06 48.1636C31.3952 48.6544 31.0032 49.4313 31.0032 50.2591V52.3939C31.0032 54.5262 33.4214 55.7532 35.1368 54.4906L58.8801 37.0062C59.5462 36.5154 59.9396 35.7372 59.9396 34.9095V17.6705C59.9396 15.5382 57.5201 14.3112 55.806 15.5751L32.0626 33.0709C31.3978 33.5617 31.0044 34.3399 31.0044 35.1663V37.3279C31.0044 39.4602 33.424 40.6872 35.138 39.4233L35.1368 39.4259Z" fill="#BEBEBE"/>
    <path d="M31.002 20.0897V22.2487C31.002 24.381 33.4228 25.608 35.1369 24.3441L58.8802 6.83554C59.5451 6.34474 59.9371 5.56786 59.9371 4.74011V2.60653C59.9371 0.474227 57.5189 -0.752771 55.8035 0.509829L32.0601 17.9942C31.394 18.485 31.0007 19.2632 31.0007 20.0909L31.002 20.0897Z" fill="#BEBEBE"/>
    <path d="M1.05941 37.0075L24.8028 54.4919C26.5169 55.7545 28.9364 54.5275 28.9364 52.3952V50.2603C28.9364 49.4326 28.5443 48.6557 27.8795 48.1649L9.32531 34.4797C8.66049 33.9889 8.26844 33.2121 8.26844 32.3843C8.26844 30.252 10.688 29.025 12.402 30.2889L24.8028 39.4271C26.5169 40.691 28.9364 39.464 28.9364 37.3317V35.1702C28.9364 34.3424 28.5431 33.5643 27.8782 33.0747L4.13359 15.5751C2.41951 14.3112 0 15.5382 0 17.6705V34.9095C0 35.7372 0.393313 36.5154 1.05941 37.0062V37.0075Z" fill="#BEBEBE"/>
    <path d="M1.05687 6.83554L24.8003 24.3441C26.5143 25.608 28.9351 24.381 28.9351 22.2487V20.0897C28.9351 19.2619 28.5418 18.4838 27.8757 17.993L4.13359 0.509829C2.41824 -0.752771 0 0.474227 0 2.60653V4.74011C0 5.56786 0.392044 6.34474 1.05687 6.83554Z" fill="#BEBEBE"/>
</svg>
