<svg width="156" height="69" viewBox="0 0 156 69" fill="none"
    xmlns="http://www.w3.org/2000/svg">
    <mask id="mask0_3_232" style="mask-type:luminance" maskUnits="userSpaceOnUse" x="0" y="0" width="157" height="69">
        <path d="M156.001 0H0V68.628H156.001V0Z" fill="white"/>
    </mask>
    <g mask="url(#mask0_3_232)">
        <path d="M16.6316 31.2104C17.4594 29.1093 17.8541 28.0084 19.2304 31.1033C20.6663 34.3311 21.416 35.6333 24.2927 31.3884C27.7057 26.355 29.0522 16.0395 25.8848 14.2002C20.8837 12.0757 18.5136 17.3522 12.8336 17.8193L16.5091 15.8108C15.9406 15.1062 16.7572 15.4549 15.1224 14.5424C15.1224 14.5424 13.4497 13.9038 13.3804 13.8893C5.54374 12.2303 7.31547 24.721 11.355 30.9382C14.1423 35.2274 15.3052 34.567 16.6299 31.2104M3.61175 43.0198H19.1748C22.5687 43.0268 25.8216 44.3781 28.2214 46.778C30.6212 49.1778 31.9726 52.4307 31.9796 55.8246C31.9726 59.2185 30.6212 62.4713 28.2214 64.8712C25.8216 67.271 22.5687 68.6223 19.1748 68.6294H13.3764L9.2982 61.565H19.1748C20.6948 61.558 22.1506 60.951 23.2253 59.8761C24.3 58.8012 24.9068 57.3454 24.9136 55.8254C24.9068 54.3054 24.3 52.8495 23.2253 51.7746C22.1506 50.6997 20.6948 50.0928 19.1748 50.0858H7.68995L3.61175 43.0198ZM36.1754 -0.00268549C37.2233 -0.00268549 38.2476 0.308053 39.1189 0.890236C39.9902 1.47242 40.6693 2.2999 41.0703 3.26803C41.4714 4.23617 41.5763 5.30147 41.3718 6.32924C41.1674 7.35701 40.6628 8.30107 39.9218 9.04205C39.1808 9.78303 38.2368 10.2876 37.209 10.4921C36.1812 10.6965 35.1159 10.5916 34.1478 10.1906C33.1797 9.78956 32.3522 9.11046 31.77 8.23917C31.1878 7.36787 30.8771 6.3435 30.8771 5.2956C30.877 4.59979 31.014 3.91077 31.2802 3.26791C31.5464 2.62504 31.9367 2.04092 32.4287 1.54891C32.9207 1.0569 33.5048 0.666633 34.1477 0.400407C34.7905 0.134181 35.4796 -0.00279127 36.1754 -0.00268549ZM17.7977 5.54203C21.9153 5.54238 25.9055 6.97047 29.0882 9.58297C32.271 12.1955 34.4494 15.8307 35.2524 19.8693C36.0553 23.908 35.433 28.1 33.4916 31.7313C31.5502 35.3625 28.4098 38.2083 24.6054 39.7837C20.801 41.359 16.5681 41.5665 12.6279 40.3708C8.68764 39.1751 5.28392 36.6501 2.99667 33.2261C0.709411 29.8022 -0.319861 25.6911 0.0842286 21.5933C0.488318 17.4955 2.30077 13.6646 5.21275 10.7533C6.86362 9.09833 8.82533 7.78594 10.9851 6.89161C13.1448 5.99727 15.4601 5.53862 17.7977 5.54203Z" fill="#01B2BE"/>
        <path d="M145.202 40.091V55.8288H156.001V53.4934H147.716V40.091H145.202ZM135.206 50.2382H128.56L131.883 42.7486L135.206 50.2382ZM137.631 55.828H140.303L133.253 40.0902H130.515L123.465 55.828H126.136L127.618 52.5262H136.126L137.631 55.828ZM113.895 55.828H116.433V42.3588H121.575V40.091H108.73V42.3588H113.895V55.828ZM92.2242 40.0902H90.2914V55.828H92.8282V44.7225L101.742 55.828H103.65V40.091H101.136V51.2852L92.2242 40.0902ZM84.3384 53.3589H75.2454V49.1381H83.9116V46.8027H75.2454V42.5344H84.2716V40.087H72.7311V55.8248H84.3384V53.3589ZM55.6629 42.4925H59.1202C62.8248 42.4925 64.441 45.1453 64.5087 47.8021C64.5763 50.5708 62.9592 53.4032 59.1202 53.4032H55.6629V42.4925ZM53.1704 40.0902V55.828H59.1194C64.6198 55.828 67.0922 51.8062 67.0004 47.8246C66.9335 43.9333 64.4853 40.0935 59.1194 40.0935L53.1704 40.0902ZM131.164 32.7432H133.701V19.2732H138.843V17.0054H126.001V19.2732H131.165L131.164 32.7432ZM119.01 27.1542H112.364L115.687 19.6646L119.01 27.1542ZM121.435 32.744H124.107L117.057 17.0054H114.319L107.269 32.744H109.94L111.422 29.4421H119.931L121.435 32.744ZM103.087 30.274H93.9976V26.0533H102.662V23.7178H93.9976V19.4496H103.023V17.0021H91.4833V32.7408H103.091L103.087 30.274ZM79.8897 19.3215C80.2814 19.2948 80.6742 19.3507 81.0428 19.4858C81.4114 19.6209 81.7474 19.832 82.0291 20.1054C82.3107 20.3789 82.5317 20.7085 82.6776 21.073C82.8235 21.4374 82.8911 21.8285 82.8759 22.2207C82.8759 23.7025 81.9554 25.0273 79.868 25.0273H75.0859V19.3247L79.8897 19.3215ZM85.8621 32.2986L81.1694 27.064C82.3799 26.9695 83.5051 26.4039 84.3032 25.4888C85.1013 24.5737 85.5087 23.3821 85.4377 22.17C85.4377 19.5204 83.529 17.0287 79.8921 17.0287C77.4455 17.0287 75.0207 17.0054 72.5733 17.0054V32.744H75.0875V27.3112H78.4104L83.1924 32.744H86.1335L85.8621 32.2986ZM66.2796 19.03C64.7302 17.5018 62.6406 16.6464 60.4643 16.6494C55.0992 16.6494 52.2024 20.515 52.2024 25.0466C52.2024 29.2231 54.6941 33.0613 60.4643 33.0613C61.6318 33.0889 62.7909 32.8577 63.8585 32.3843C64.926 31.9109 65.8755 31.207 66.6388 30.3231V23.8805H59.9256V26.125H64.3033V29.3133C63.2438 30.2427 61.8733 30.7395 60.4643 30.7049C56.3781 30.7049 54.6724 27.9208 54.6724 25.0474C54.6498 21.7246 56.7823 18.9631 60.4643 18.9631C62.04 18.9713 63.5548 19.5722 64.7076 20.6463L66.2796 19.03Z" fill="#333333"/>
    </g>
</svg>
