<svg width="207" height="59" viewBox="0 0 207 59" fill="none"
    xmlns="http://www.w3.org/2000/svg">
    <path d="M67.0557 21.3964V29.271H70.2835V10.5891H67.0557V18.3538H58.2884V10.5891H55.0605V29.2723H58.2884V21.3977H67.0557V21.3964ZM83.0661 10.5878V29.271H86.2939V10.5891H83.0661V10.5878ZM108.67 23.5034L98.8266 10.5878H95.8343V29.271H99.0101V15.9782L109.141 29.271H111.846V10.5891H108.672V23.5047L108.67 23.5034ZM121.385 10.5878V29.271H124.613V10.5891H121.385V10.5878ZM141.922 13.6317H147.749V10.5878H132.841V13.6317H138.668V29.271H141.922V13.6317ZM155.978 10.5878V29.271H159.204V10.5891H155.978V10.5878ZM178.247 10.4541H175.254L167.17 29.271H170.476L172.367 24.7606H181.053L182.916 29.271H186.329L178.246 10.4541H178.247ZM179.873 21.849H173.55L176.697 14.3755L179.873 21.849ZM194.112 29.2696H207V26.28H197.341V10.5864H194.112V29.2696Z" fill="#BEBEBE"/>
    <path fill-rule="evenodd" clip-rule="evenodd" d="M16.4478 8.38265V17.2558H26.7618V8.38265H34.8543V34.9577V43.3403H43.2121V0H26.7618H16.4478H0V43.3403H16.4478V58.5455L26.7618 50.3846V26.0846H16.4478V34.9577H8.35655V8.38265H16.4478Z" fill="#BEBEBE"/>
</svg>
