<svg width="178" height="70" viewBox="0 0 178 70" fill="none"
    xmlns="http://www.w3.org/2000/svg">
    <mask id="mask0_3_219" style="mask-type:luminance" maskUnits="userSpaceOnUse" x="0" y="0" width="70" height="70">
        <path d="M36.6468 56.5345V36.6507H43.6692V56.5377C43.6692 58.9166 42.7242 61.198 41.0421 62.8801C39.36 64.5622 37.0785 65.5072 34.6997 65.5072C32.3208 65.5072 30.0394 64.5622 28.3573 62.8801C26.6751 61.198 25.7301 58.9166 25.7301 56.5377V47.5633H32.7525V56.5345C32.7525 57.0509 32.9576 57.5461 33.3228 57.9113C33.688 58.2765 34.1832 58.4816 34.6997 58.4816C35.2161 58.4816 35.7114 58.2765 36.0765 57.9113C36.4417 57.5461 36.6468 57.0509 36.6468 56.5345ZM6.5321 41.0328C5.28161 39.7783 4.43056 38.1815 4.08623 36.444C3.7419 34.7064 3.91971 32.9058 4.59725 31.2691C5.27478 29.6325 6.4217 28.2331 7.89342 27.2473C9.36514 26.2615 11.0958 25.7336 12.8671 25.7299H21.835V32.7523H12.8671C12.3502 32.7523 11.8544 32.9577 11.4888 33.3232C11.1233 33.6887 10.9179 34.1845 10.9179 34.7015C10.9179 35.2185 11.1233 35.7142 11.4888 36.0798C11.8544 36.4453 12.3502 36.6507 12.8671 36.6507H32.7541V43.673H12.8671C11.6898 43.6723 10.5242 43.4389 9.43736 42.9864C8.35049 42.5339 7.36372 41.8711 6.53372 41.0361M36.6468 25.7299H56.5338C58.9128 25.7299 61.1943 26.675 62.8765 28.3572C64.5587 30.0394 65.5038 32.3209 65.5038 34.6999C65.5038 37.0788 64.5587 39.3604 62.8765 41.0426C61.1943 42.7247 58.9128 43.6698 56.5338 43.6698H47.5643V36.6507H56.5347C57.0513 36.6507 57.5468 36.4455 57.9121 36.0802C58.2774 35.7148 58.4826 35.2194 58.4826 34.7027C58.4826 34.1861 58.2774 33.6906 57.9121 33.3253C57.5468 32.96 57.0513 32.7547 56.5347 32.7547H36.6468V25.7299ZM25.7342 23.7836V12.8653C25.7342 10.4864 26.6792 8.20498 28.3613 6.52287C30.0434 4.84076 32.3249 3.89576 34.7037 3.89576C37.0826 3.89576 39.364 4.84076 41.0461 6.52287C42.7282 8.20498 43.6732 10.4864 43.6732 12.8653V21.8356H36.6468V12.8653C36.6468 12.6096 36.5965 12.3564 36.4986 12.1201C36.4008 11.8839 36.2573 11.6692 36.0765 11.4884C35.8957 11.3076 35.6811 11.1642 35.4448 11.0663C35.2086 10.9685 34.9554 10.9181 34.6997 10.9181C34.444 10.9181 34.1908 10.9685 33.9545 11.0663C33.7183 11.1642 33.5036 11.3076 33.3228 11.4884C33.142 11.6692 32.9986 11.8839 32.9007 12.1201C32.8029 12.3564 32.7525 12.6096 32.7525 12.8653V32.7523H25.7342V23.7836ZM25.6129 3.77768C24.416 4.96917 23.4661 6.38529 22.8178 7.94477C22.1695 9.50426 21.8355 11.1764 21.835 12.8653V21.8356H12.8671C9.4986 21.9013 6.29022 23.2855 3.9312 25.6909C1.57218 28.0964 0.250732 31.3311 0.250732 34.7003C0.250732 38.0694 1.57218 41.3042 3.9312 43.7096C6.29022 46.1151 9.4986 47.4993 12.8671 47.5649H21.835V56.5345C21.9006 59.903 23.2849 63.1113 25.6903 65.4704C28.0958 67.8294 31.3305 69.1508 34.6997 69.1508C38.0688 69.1508 41.3036 67.8294 43.709 65.4704C46.1144 63.1113 47.4987 59.903 47.5643 56.5345V47.5633H56.5347C59.9032 47.4977 63.1115 46.1134 65.4706 43.708C67.8296 41.3025 69.151 38.0678 69.151 34.6986C69.151 31.3295 67.8296 28.0948 65.4706 25.6893C63.1115 23.2839 59.9032 21.8996 56.5347 21.834H47.5643V12.8653C47.5672 10.3207 46.8146 7.83263 45.4019 5.71627C43.9892 3.5999 41.98 1.95056 39.629 0.977262C37.278 0.00396566 34.6909 -0.24947 32.1957 0.249075C29.7005 0.747619 27.4094 1.9757 25.6129 3.77768Z" fill="white"/>
    </mask>
    <g mask="url(#mask0_3_219)">
        <path d="M34.7001 -34.6996L-34.699 34.6995L34.7001 104.099L104.099 34.6995L34.7001 -34.6996Z" fill="url(#paint0_linear_3_219)"/>
    </g>
    <mask id="mask1_3_219" style="mask-type:luminance" maskUnits="userSpaceOnUse" x="0" y="0" width="179" height="70">
        <path d="M178.001 0.000610352H0V69.3991H178.001V0.000610352Z" fill="white"/>
    </mask>
    <g mask="url(#mask1_3_219)">
        <path d="M174.447 12.2448H178.001V32.3598H174.447V12.2448ZM161.11 28.2667C161.465 28.6261 161.891 28.9082 162.361 29.0954C162.83 29.2826 163.333 29.3709 163.838 29.3547C164.345 29.37 164.85 29.2814 165.321 29.0943C165.793 28.9072 166.221 28.6255 166.579 28.2667C167.28 27.5038 167.668 26.5058 167.668 25.4702C167.668 24.4345 167.28 23.4366 166.579 22.6736C166.221 22.3147 165.793 22.033 165.321 21.8457C164.85 21.6585 164.345 21.5697 163.838 21.5848C163.333 21.5688 162.83 21.6572 162.36 21.8446C161.891 22.032 161.465 22.3142 161.11 22.6736C160.418 23.4409 160.036 24.4372 160.036 25.4702C160.036 26.5031 160.418 27.4995 161.11 28.2667ZM167.669 18.5814H171.223V32.3582H167.669V30.7294C167.133 31.396 166.446 31.9259 165.665 32.2756C164.884 32.6253 164.031 32.7847 163.177 32.7409C162.285 32.7475 161.401 32.5628 160.586 32.1991C159.772 31.8353 159.044 31.3011 158.453 30.6325C157.184 29.211 156.482 27.3719 156.482 25.4661C156.482 23.5603 157.184 21.7212 158.453 20.2997C159.044 19.6313 159.772 19.0974 160.587 18.734C161.401 18.3706 162.285 18.1861 163.177 18.1929C164.031 18.149 164.884 18.3083 165.665 18.6578C166.446 19.0073 167.133 19.5371 167.669 20.2036V18.5814ZM129.369 48.5862H136.395C136.257 47.7545 135.809 47.006 135.141 46.4916C134.513 46.0348 133.755 45.7933 132.978 45.8035C132.128 45.7711 131.293 46.0297 130.61 46.5364C129.967 47.0528 129.528 47.7801 129.37 48.5894M129.425 51.3445C129.902 53.0715 131.197 53.9347 133.31 53.9342C133.897 53.9716 134.485 53.8658 135.023 53.6257C135.56 53.3857 136.032 53.0187 136.396 52.5563L139.261 54.2094C138.597 55.1745 137.696 55.9526 136.644 56.4689C135.592 56.9852 134.426 57.2223 133.256 57.1575C132.249 57.2039 131.244 57.0445 130.301 56.6892C129.358 56.3338 128.497 55.7898 127.772 55.0906C126.725 54.0743 126.009 52.7665 125.716 51.3375C125.422 49.9084 125.566 48.4242 126.128 47.0778C126.689 45.7315 127.643 44.5853 128.865 43.7884C130.087 42.9915 131.521 42.5807 132.979 42.6095C133.914 42.5825 134.844 42.7552 135.706 43.1163C136.569 43.4774 137.344 44.0184 137.981 44.7033C139.296 46.1023 140.004 47.9644 139.951 49.8835C139.948 50.3733 139.902 50.8619 139.814 51.3437L129.425 51.3445ZM120.69 45.3653C120.983 44.5297 121.565 43.8262 122.33 43.3815C123.105 42.9373 123.985 42.709 124.878 42.7203V46.6879C123.861 46.544 122.827 46.7793 121.972 47.3491C121.531 47.671 121.182 48.1015 120.957 48.5988C120.732 49.0961 120.64 49.6431 120.69 50.1864V56.7723H117.136V42.9939H120.69V45.3653ZM103.8 52.6809C104.155 53.0405 104.581 53.3227 105.05 53.5099C105.519 53.6972 106.022 53.7853 106.527 53.7689C107.034 53.7843 107.539 53.6958 108.011 53.5087C108.482 53.3215 108.91 53.0398 109.269 52.6809C109.969 51.918 110.358 50.92 110.358 49.8843C110.358 48.8486 109.969 47.8506 109.269 47.0877C108.91 46.7288 108.482 46.447 108.011 46.2597C107.539 46.0725 107.034 45.9837 106.527 45.9989C106.022 45.9828 105.519 46.0712 105.05 46.2585C104.581 46.4459 104.155 46.7282 103.8 47.0877C103.108 47.8548 102.725 48.8512 102.725 49.8843C102.725 50.9174 103.108 51.9138 103.8 52.6809ZM110.357 42.9963H113.911V56.7731H110.357V55.1443C109.821 55.811 109.134 56.3409 108.353 56.6905C107.573 57.0402 106.72 57.1997 105.865 57.1558C104.973 57.1624 104.09 56.9777 103.275 56.6141C102.46 56.2506 101.733 55.7166 101.142 55.0482C99.8733 53.6264 99.1722 51.7874 99.1722 49.8818C99.1722 47.9763 99.8733 46.1373 101.142 44.7155C101.733 44.0472 102.46 43.5134 103.275 43.1499C104.09 42.7865 104.973 42.602 105.865 42.6087C106.72 42.5647 107.572 42.724 108.353 43.0735C109.134 43.4231 109.821 43.9529 110.357 44.6194V42.9963ZM89.3335 57.1583C88 57.1994 86.6724 56.9636 85.4347 56.4655C84.197 55.9675 83.076 55.2181 82.1426 54.2648C80.3198 52.3331 79.3044 49.7775 79.3044 47.1215C79.3044 44.4655 80.3198 41.91 82.1426 39.9783C83.0781 39.0287 84.1997 38.2829 85.4372 37.7875C86.6747 37.2921 88.0012 37.0578 89.3335 37.0994C91.0237 37.084 92.6892 37.5048 94.1693 38.321C95.6016 39.0941 96.797 40.2417 97.628 41.6412L94.3484 43.5428C93.8784 42.6863 93.1715 41.9834 92.3125 41.5182C91.1066 40.8976 89.7387 40.6637 88.3951 40.8485C87.0515 41.0333 85.7975 41.6277 84.804 42.5509C83.6936 43.8106 83.081 45.4321 83.081 47.1114C83.081 48.7906 83.6936 50.4121 84.804 51.6719C85.3963 52.2636 86.105 52.7259 86.8852 53.0295C87.6655 53.3332 88.5003 53.4715 89.3368 53.4358C90.3794 53.4496 91.4083 53.1973 92.3264 52.7029C93.1825 52.2499 93.8865 51.5552 94.3509 50.7052L97.6303 52.6059C96.8025 54.0033 95.6122 55.1507 94.1856 55.9269C92.7022 56.7479 91.0313 57.1705 89.336 57.1534M148.99 32.7417C148.025 32.7562 147.068 32.5787 146.172 32.2196C145.277 31.8605 144.462 31.327 143.775 30.6501C143.088 29.9733 142.543 29.1665 142.17 28.2768C141.798 27.3871 141.606 26.4322 141.606 25.4677C141.606 24.5032 141.798 23.5484 142.17 22.6587C142.543 21.769 143.088 20.9622 143.775 20.2853C144.462 19.6084 145.277 19.075 146.172 18.7159C147.068 18.3568 148.025 18.1793 148.99 18.1937C150.276 18.1791 151.542 18.512 152.654 19.1572C153.721 19.7628 154.591 20.6619 155.162 21.7477L152.104 23.5393C151.831 22.9731 151.394 22.5024 150.85 22.1891C150.278 21.855 149.625 21.6835 148.963 21.6931C148.473 21.6781 147.985 21.7644 147.53 21.9466C147.075 22.1287 146.662 22.4029 146.318 22.7518C145.644 23.4898 145.271 24.4528 145.271 25.4519C145.271 26.4509 145.644 27.4139 146.318 28.1519C146.662 28.5009 147.075 28.7751 147.53 28.9573C147.985 29.1395 148.473 29.2257 148.963 29.2106C149.633 29.2226 150.293 29.0559 150.877 28.7277C151.423 28.4222 151.86 27.9558 152.131 27.3921L155.217 29.1552C154.613 30.2382 153.728 31.1384 152.655 31.7612C151.545 32.4146 150.278 32.7525 148.99 32.7385M135.627 18.5757H139.181V32.3525H135.627V18.5757ZM137.391 16.9225C136.817 16.9135 136.268 16.6813 135.862 16.275C135.455 15.8687 135.223 15.3203 135.214 14.7457C135.213 14.4578 135.27 14.1728 135.382 13.9076C135.494 13.6424 135.658 13.4026 135.865 13.2025C136.061 12.9922 136.297 12.8248 136.561 12.711C136.824 12.5972 137.108 12.5393 137.395 12.5412C137.686 12.5374 137.975 12.5942 138.243 12.7081C138.511 12.8219 138.752 12.9903 138.952 13.2025C139.158 13.4029 139.321 13.6429 139.433 13.9081C139.544 14.1732 139.601 14.4581 139.599 14.7457C139.601 15.0312 139.545 15.3141 139.434 15.577C139.322 15.8399 139.158 16.0772 138.952 16.2743C138.751 16.4837 138.509 16.6496 138.241 16.7617C137.974 16.8738 137.686 16.9296 137.395 16.9258M122.282 28.2635C122.641 28.6224 123.069 28.904 123.54 29.0911C124.012 29.2783 124.516 29.3669 125.023 29.3515C125.528 29.3677 126.031 29.2794 126.501 29.0922C126.97 28.905 127.396 28.6228 127.751 28.2635C128.443 27.4965 128.826 26.5 128.826 25.4669C128.826 24.4338 128.443 23.4374 127.751 22.6704C127.396 22.3109 126.97 22.0287 126.501 21.8413C126.031 21.6539 125.528 21.5655 125.023 21.5815C124.516 21.5663 124.012 21.6551 123.54 21.8423C123.069 22.0296 122.641 22.3114 122.282 22.6704C121.582 23.4332 121.193 24.4312 121.193 25.4669C121.193 26.5026 121.582 27.5006 122.282 28.2635ZM128.826 13.0681H132.38V32.3557H128.826V30.727C128.297 31.3945 127.615 31.9255 126.839 32.2754C126.062 32.6254 125.213 32.7842 124.362 32.7385C123.465 32.7474 122.577 32.5638 121.757 32.2001C120.937 31.8363 120.205 31.3009 119.609 30.63C118.341 29.2083 117.639 27.3693 117.639 25.4637C117.639 23.558 118.341 21.7191 119.609 20.2973C120.205 19.6267 120.937 19.0916 121.757 18.7282C122.577 18.3647 123.465 18.1814 124.362 18.1905C125.213 18.1446 126.062 18.3032 126.838 18.6531C127.615 19.0029 128.297 19.5338 128.826 20.2012V13.0681ZM105.432 24.1712H112.458C112.32 23.3399 111.872 22.5918 111.204 22.0775C110.577 21.6202 109.818 21.3787 109.041 21.3893C108.191 21.3568 107.356 21.6154 106.672 22.1223C106.03 22.6389 105.59 23.3661 105.432 24.1753M105.487 26.9312C105.966 28.6582 107.261 29.5214 109.373 29.5209C109.96 29.558 110.548 29.4521 111.085 29.2121C111.623 28.972 112.094 28.6052 112.458 28.143L115.324 29.7961C114.66 30.7615 113.758 31.5397 112.707 32.0561C111.655 32.5725 110.488 32.8098 109.317 32.745C108.311 32.7914 107.305 32.632 106.362 32.2767C105.419 31.9213 104.559 31.3774 103.833 30.6781C102.787 29.6613 102.071 28.3532 101.778 26.9238C101.485 25.4944 101.629 24.01 102.191 22.6635C102.753 21.3171 103.708 20.1711 104.93 19.3745C106.153 18.5779 107.587 18.1676 109.045 18.197C109.98 18.1699 110.91 18.3426 111.772 18.7037C112.635 19.0648 113.41 19.6059 114.046 20.2908C115.361 21.6896 116.07 23.5519 116.016 25.471C116.014 25.9608 115.968 26.4494 115.88 26.9312H105.487ZM99.0669 13.0721V32.3598H95.2923V19.851L89.8555 28.7961L89.4101 28.8148L83.9952 19.8966V32.3565H80.193V13.0713H84.102L89.6315 22.1777L95.1375 13.0713L99.0669 13.0721Z" fill="#012133"/>
    </g>
    <defs>
        <linearGradient id="paint0_linear_3_219" x1="34.7001" y1="83.834" x2="34.7695" y2="83.7646" gradientUnits="userSpaceOnUse">
            <stop stop-color="#22A7F0"/>
            <stop offset="1" stop-color="#37DBD0"/>
        </linearGradient>
    </defs>
</svg>
