<svg width="31" height="46" viewBox="0 0 31 46" fill="none"
    xmlns="http://www.w3.org/2000/svg">
    <path d="M27.1996 19.779C28.9277 19.8348 30.317 21.2586 30.317 23V33.0238C30.317 39.7635 24.8329 45.2476 18.0932 45.2476H16.9941C16.9038 45.2524 16.8126 45.2524 16.7312 45.2524H16.7281C13.2419 45.2524 10.4431 42.8238 8.51634 40.4086C6.58193 37.9837 5.47657 35.5104 5.38405 35.3007L5.3817 35.2953L5.38176 35.2953C3.88772 31.6831 2.4067 29.5096 1.43384 28.3239C1.43382 28.3239 1.4338 28.3239 1.43378 28.3239L1.62705 28.1653C1.1538 27.5898 0.939771 26.8644 1.02063 26.1248L27.1996 19.779ZM27.1996 19.779L27.1955 19.775H27.092C26.3981 19.775 25.7556 19.9965 25.2297 20.371C24.9056 19.0742 23.7316 18.1103 22.3357 18.1103C21.6497 18.1103 21.016 18.3429 20.5113 18.7347C19.993 17.5855 18.8372 16.7809 17.4963 16.7809C16.8089 16.7809 16.1699 16.9932 15.6416 17.3541V11.0238C15.6416 9.16157 14.1266 7.64655 12.2644 7.64655C10.4022 7.64655 8.88715 9.16157 8.88715 11.0238V27.6266C8.11556 26.5138 7.02977 25.1854 5.65573 24.0754C4.56098 23.1908 3.0168 23.1837 1.90787 24.0542L1.90772 24.0544C1.26548 24.5593 0.860313 25.2861 0.772108 26.0977L27.1996 19.779ZM16.9683 43.794V43.7938L16.9596 43.7941C13.9615 43.8991 11.4188 41.7041 9.59281 39.3934C7.81175 37.1396 6.7696 34.8475 6.71497 34.727C5.1632 30.9765 3.60102 28.678 2.55539 27.4029C2.29063 27.0786 2.16851 26.6723 2.21555 26.2551L2.21571 26.2537C2.26073 25.832 2.47094 25.4574 2.80463 25.1938C3.38189 24.7401 4.17977 24.7452 4.7446 25.2016L4.74469 25.2017C7.06021 27.0709 8.49394 29.6539 8.87929 30.4011L8.87988 30.4023C9.04382 30.7162 9.39863 30.8829 9.74778 30.7982C10.0958 30.7139 10.3384 30.4039 10.3384 30.0464V11.0238C10.3384 9.9631 11.2017 9.09779 12.2644 9.09779C13.3273 9.09779 14.1904 9.9609 14.1904 11.0238V26.6837C14.1904 27.0834 14.5163 27.4093 14.916 27.4093C15.3157 27.4093 15.6416 27.0834 15.6416 26.6837V20.0868C15.6416 19.0643 16.4738 18.2322 17.4963 18.2322C18.5187 18.2322 19.3509 19.0643 19.3509 20.0868V26.4031C19.3509 26.8027 19.6768 27.1287 20.0765 27.1287C20.4762 27.1287 20.8021 26.8027 20.8021 26.4031V21.0951C20.8021 20.2486 21.4893 19.5615 22.3357 19.5615C23.1822 19.5615 23.8693 20.2486 23.8693 21.0951V26.4031C23.8693 26.8027 24.1953 27.1287 24.5949 27.1287C24.9946 27.1287 25.3206 26.8027 25.3206 26.4031V22.9976C25.3206 22.0203 26.1147 21.2262 27.092 21.2262C28.0692 21.2262 28.8634 22.0203 28.8634 22.9976V33.0214C28.8634 38.9618 24.0312 43.794 18.0908 43.794H16.9683Z" fill="white" stroke="white" stroke-width="0.5"/>
    <path d="M6.16656 18.5201L6.16824 18.5213C6.29264 18.6066 6.43695 18.6507 6.58073 18.6507C6.80922 18.6507 7.03369 18.542 7.17468 18.3432L7.17469 18.3432L7.17629 18.3409C7.40423 18.0116 7.32433 17.5626 6.9991 17.3313L6.99737 17.3301C4.76935 15.774 3.43953 13.225 3.43953 10.5101C3.43953 5.93003 7.16822 2.20125 11.7508 2.20125C16.3333 2.20125 20.062 5.92999 20.062 10.5125C20.062 11.7158 19.8104 12.8765 19.3143 13.9612C19.1472 14.3247 19.3072 14.7561 19.6729 14.9229C20.0364 15.0899 20.4678 14.9298 20.6345 14.5641C21.2179 13.2875 21.5132 11.925 21.5132 10.5125C21.5132 5.12824 17.1326 0.75 11.7508 0.75C6.36898 0.75 1.98828 5.12824 1.98828 10.5125C1.98828 13.7001 3.55024 16.6946 6.16656 18.5201Z" fill="white" stroke="white" stroke-width="0.5"/>
</svg>
