<svg width="75" height="75" viewBox="0 0 75 75" fill="none"
    xmlns="http://www.w3.org/2000/svg">
    <path d="M37.5 75C58.2107 75 75 58.2107 75 37.5C75 16.7893 58.2107 0 37.5 0C16.7893 0 0 16.7893 0 37.5C0 58.2107 16.7893 75 37.5 75Z" fill="#41CDCF"/>
    <mask id="mask0_2036_8" style="mask-type:luminance" maskUnits="userSpaceOnUse" x="18" y="24" width="38" height="26">
        <path d="M55.089 24H18V49.61H55.089V24Z" fill="white"/>
    </mask>
    <g mask="url(#mask0_2036_8)">
        <path d="M53.312 25.579C52.2592 24.5655 50.8545 23.9995 49.393 24H23.678C22.2166 23.9995 20.8119 24.5655 19.759 25.579L36.019 41.084C36.1581 41.2165 36.3429 41.2905 36.535 41.2905C36.7272 41.2905 36.9119 41.2165 37.051 41.084L53.312 25.579Z" fill="white"/>
        <path d="M54.187 47.0032C54.7748 46.0927 55.0874 45.0319 55.087 43.9482V29.6572C55.0859 28.6294 54.8033 27.6217 54.27 26.7432L42.808 37.6722L54.187 47.0032Z" fill="white"/>
        <path d="M23.678 49.6098H49.393C50.8007 49.6131 52.1589 49.0902 53.201 48.1438L41.701 38.7178L37.427 42.7948C37.1874 43.0233 36.8691 43.1508 36.538 43.1508C36.2069 43.1508 35.8886 43.0233 35.649 42.7948L31.375 38.7218L19.875 48.1438C20.9169 49.0906 22.2751 49.6138 23.683 49.6108" fill="white"/>
        <path d="M30.294 37.6722L18.823 26.7432C18.2878 27.6212 18.0032 28.6289 18 29.6572V43.9482C18.0022 45.0327 18.3175 46.0935 18.908 47.0032L30.294 37.6722Z" fill="white"/>
    </g>
</svg>
