<svg width="75" height="75" viewBox="0 0 75 75" fill="none"
    xmlns="http://www.w3.org/2000/svg">
    <path d="M37.5 75C58.2107 75 75 58.2107 75 37.5C75 16.7893 58.2107 0 37.5 0C16.7893 0 0 16.7893 0 37.5C0 58.2107 16.7893 75 37.5 75Z" fill="#41CDCF"/>
    <mask id="mask0_2036_6" style="mask-type:luminance" maskUnits="userSpaceOnUse" x="15" y="17" width="44" height="42">
        <path d="M58.592 17H15V58.315H58.592V17Z" fill="white"/>
    </mask>
    <g mask="url(#mask0_2036_6)">
        <path d="M18.138 39.6666L36.231 21.2996C36.3048 21.2246 36.3927 21.1651 36.4897 21.1245C36.5867 21.0839 36.6908 21.063 36.796 21.063C36.9012 21.063 37.0053 21.0839 37.1023 21.1245C37.1993 21.1651 37.2872 21.2246 37.361 21.2996L55.455 39.6666C55.5288 39.7416 55.6167 39.8011 55.7137 39.8418C55.8107 39.8825 55.9148 39.9035 56.02 39.9036H57.8C57.9564 39.9037 58.1094 39.8575 58.2397 39.7709C58.37 39.6842 58.4717 39.561 58.5321 39.4167C58.5925 39.2724 58.6088 39.1135 58.5791 38.9599C58.5494 38.8063 58.4749 38.6649 58.365 38.5536L37.362 17.2366C37.2882 17.1616 37.2003 17.1021 37.1033 17.0615C37.0063 17.0209 36.9022 17 36.797 17C36.6919 17 36.5877 17.0209 36.4907 17.0615C36.3937 17.1021 36.3058 17.1616 36.232 17.2366L15.23 38.5536C15.1212 38.6654 15.0478 38.8069 15.019 38.9603C14.9902 39.1136 15.0073 39.2721 15.0681 39.4158C15.129 39.5595 15.2309 39.682 15.3611 39.7681C15.4913 39.8542 15.644 39.8999 15.8 39.8996H17.573C17.6782 39.8995 17.7823 39.8785 17.8793 39.8378C17.9763 39.7971 18.0643 39.7376 18.138 39.6626" fill="white"/>
        <path d="M51.685 39.9817L44.242 32.3817L36.799 24.8047L29.356 32.3937L21.913 39.9827H21.818V58.3147H51.687V39.9817H51.685ZM40.97 50.5167H32.534V42.1717H40.97V50.5167Z" fill="white"/>
    </g>
</svg>
