<svg width="63" height="65" viewBox="0 0 63 65" fill="none"
    xmlns="http://www.w3.org/2000/svg">
    <path d="M61.2192 41.7208C59.7656 39.54 56.8083 38.9485 54.6276 40.4025L48.896 44.2411C48.3545 44.6018 48.2086 45.3331 48.5692 45.8742C48.9302 46.4153 49.6611 46.5616 50.2023 46.2007L55.9342 42.362C57.034 41.6286 58.526 41.9272 59.2597 43.0274C59.9934 44.1272 59.6948 45.6195 58.5946 46.3529L41.3136 57.8916C41.1221 58.0193 40.9153 58.1187 40.699 58.186C40.3725 58.2885 40.0208 58.3178 39.6781 58.2736L23.0355 53.5111C22.9931 53.4984 22.9496 53.487 22.9051 53.4787C21.6848 53.2544 20.4438 53.5104 19.4105 54.1993L18.42 54.8602L12.0141 45.2513L19.7135 40.0888C20.833 39.3426 22.1721 39.0686 23.4925 39.3116L41.4185 45.0604C41.4185 45.0604 41.4199 45.0608 41.4206 45.0608C41.4216 45.0608 41.422 45.0614 41.4227 45.0618C42.6651 45.4552 43.3767 46.7753 43.0081 48.0039C42.8286 48.6009 42.4228 49.0923 41.8647 49.3871C41.3005 49.6852 40.6493 49.747 40.0308 49.5613C40.025 49.5596 40.0191 49.5586 40.0132 49.5569C40.0063 49.5551 40.0005 49.5524 39.9936 49.551L31.2398 47.2308C30.6114 47.0641 29.9667 47.4389 29.8 48.0674C29.71 48.4069 29.778 48.7517 29.9588 49.0223C30.1124 49.2532 30.3477 49.4305 30.6366 49.5068L39.3903 51.8273C39.3903 51.8273 39.3931 51.8273 39.3941 51.828C40.5965 52.178 41.8627 52.0517 42.9646 51.4698C44.0852 50.8779 44.9017 49.8875 45.2641 48.6806C45.9995 46.2293 44.599 43.602 42.1422 42.8193C42.1408 42.8193 42.1395 42.8182 42.1381 42.8179L24.2379 37.0773C24.1734 37.0518 24.1061 37.0307 24.0353 37.0166C22.0723 36.6239 20.0735 37.019 18.4052 38.1313L10.7082 43.2921L10.027 42.2705C9.66633 41.7294 8.93504 41.5831 8.3939 41.9441L0.524363 47.1901C-0.0167696 47.5507 -0.162751 48.282 0.197889 48.8231L6.62246 58.4597C6.9831 59.0008 7.71438 59.1471 8.25517 58.7865C8.7963 58.4255 8.94263 57.6945 8.58165 57.1534L2.81037 48.4967L8.72003 44.5566L17.8113 58.1929L11.9016 62.1327L11.6176 61.7068C11.2566 61.1657 10.5257 61.0193 9.98452 61.3803C9.44339 61.7413 9.29706 62.4722 9.65804 63.013L10.5954 64.419C10.956 64.9601 11.6873 65.1065 12.2284 64.7455L20.098 59.4991C20.6391 59.1381 20.7851 58.4072 20.4244 57.8661L19.727 56.82L20.7181 56.1585C21.2265 55.8196 21.8346 55.6901 22.4357 55.7892L39.1125 60.5614C39.1146 60.5621 39.1166 60.5621 39.1184 60.5631C39.1401 60.569 39.1622 60.5735 39.1843 60.5779C39.2036 60.5824 39.2226 60.5873 39.2419 60.5904C39.2467 60.591 39.2509 60.5924 39.2557 60.5931C39.9722 60.7042 40.7145 60.649 41.403 60.4333C41.8326 60.2987 42.2423 60.1031 42.6202 59.8511L59.9012 48.3124C62.0816 46.8588 62.6731 43.9015 61.2192 41.7211V41.7208Z" fill="black"/>
    <path d="M45.3068 17.6971C45.1229 17.5942 44.1255 17.0662 42.5432 16.7525L42.4824 16.7404V10.7745L42.5753 10.7966C43.1834 10.9416 43.7448 11.2139 44.1983 11.5845C44.8827 12.1436 45.2668 12.879 45.2799 13.6548C45.2909 14.3033 45.8286 14.8306 46.4791 14.8306H46.4964C47.1559 14.8192 47.6832 14.2733 47.6722 13.6137C47.6463 12.1222 46.9502 10.7435 45.7123 9.73161C44.8495 9.02689 43.7828 8.55582 42.6263 8.36946L42.5642 8.35945L42.5394 6.91309C42.528 6.26463 41.9903 5.7373 41.3398 5.7373H41.3229C40.6634 5.74869 40.136 6.29466 40.1474 6.95416L40.1723 8.40052L40.1105 8.4126C38.9613 8.63864 37.9111 9.14596 37.0735 9.88C35.8708 10.934 35.2224 12.3355 35.2479 13.827C35.2727 15.2827 35.9402 16.6373 37.126 17.6408L37.1394 17.6522C37.8511 18.2427 38.7942 18.6158 40.1077 18.8266L40.1712 18.8366V26.1016L40.0749 26.0733C39.2487 25.831 38.5385 25.3993 38.0208 24.8246C37.4883 24.2335 37.2002 23.5332 37.1874 22.7992C37.176 22.1507 36.6387 21.6234 35.9882 21.6234H35.9709C35.6513 21.6289 35.3528 21.7587 35.1309 21.9882C34.9086 22.218 34.7896 22.5203 34.7951 22.8403C34.8093 23.6699 35.0143 24.4695 35.4042 25.2174C35.7728 25.9242 36.2891 26.5516 36.9393 27.0824C37.8072 27.7916 38.8753 28.2902 40.028 28.5242L40.0874 28.5363L40.1136 30.0524C40.1246 30.7005 40.6609 31.2278 41.3091 31.2278H41.3301C41.6497 31.2223 41.9479 31.0925 42.1698 30.8627C42.3917 30.6328 42.5111 30.3305 42.5056 30.011L42.4817 28.6281L42.549 28.6198C44.0313 28.4376 45.3758 27.8495 46.4374 26.9198C47.0689 26.3663 47.5638 25.7216 47.9076 25.0031C48.2717 24.2424 48.449 23.4359 48.4349 22.6063C48.4004 20.6053 47.2315 18.77 45.3075 17.6971H45.3068ZM42.5715 26.1968L42.4824 26.213V19.1883L42.5763 19.2121C43.5336 19.4561 44.0824 19.7536 44.1417 19.7867C45.312 20.4393 46.0222 21.5085 46.0419 22.647C46.0709 24.3287 44.6114 25.8213 42.5715 26.1965V26.1968ZM40.1709 10.8563V16.4067L40.0801 16.3877C39.4361 16.2525 38.9754 16.0651 38.6714 15.8145L38.6693 15.8131C38.0184 15.2599 37.6526 14.5404 37.6395 13.7863C37.6264 13.0102 37.985 12.262 38.6496 11.6798C39.0524 11.3267 39.5314 11.0603 40.0725 10.8877L40.1709 10.8563Z" fill="black"/>
    <path d="M58.6438 11.2879C57.7127 9.08674 56.3806 7.11064 54.6833 5.41339C52.9864 3.71649 51.01 2.38402 48.8088 1.45291C46.5297 0.488676 44.1091 0 41.6147 0C39.1202 0 36.6996 0.488676 34.4202 1.45291C32.2194 2.38367 30.243 3.71614 28.5457 5.41339C26.8488 7.1103 25.5163 9.08674 24.5852 11.2879C23.6213 13.5673 23.1323 15.9876 23.1323 18.482C23.1323 20.9765 23.621 23.3971 24.5852 25.6765C25.5163 27.8776 26.8488 29.8537 28.5457 31.551C30.2426 33.2479 32.2191 34.5804 34.4202 35.5115C36.6993 36.4757 39.1199 36.9644 41.6147 36.9644C44.1095 36.9644 46.5297 36.4757 48.8092 35.5115C51.0103 34.5804 52.9867 33.2479 54.6837 31.551C56.3806 29.8541 57.713 27.8776 58.6441 25.6765C59.608 23.3974 60.0971 20.9768 60.0971 18.482C60.0971 15.9872 59.6084 13.567 58.6441 11.2879H58.6438ZM57.8124 18.482C57.8124 27.4135 50.5461 34.6798 41.6147 34.6798C32.6832 34.6798 25.417 27.4135 25.417 18.482C25.417 9.55057 32.6832 2.28428 41.6147 2.28428C50.5461 2.28428 57.8124 9.55057 57.8124 18.482Z" fill="black"/>
</svg>
