<svg width="75" height="75" viewBox="0 0 75 75" fill="none"
    xmlns="http://www.w3.org/2000/svg">
    <path d="M37.5 75C58.2107 75 75 58.2107 75 37.5C75 16.7893 58.2107 0 37.5 0C16.7893 0 0 16.7893 0 37.5C0 58.2107 16.7893 75 37.5 75Z" fill="#41CDCF"/>
    <g clip-path="url(#clip0_2036_7)">
        <path d="M53.9878 47.0438C54.0599 47.5793 53.8915 48.0427 53.5007 48.4398L48.8526 53.0553C48.6421 53.2899 48.3715 53.4885 48.0288 53.651C47.692 53.8135 47.3613 53.9218 47.0366 53.9639C47.0125 53.9639 46.9404 53.9639 46.8261 53.9819C46.7119 53.994 46.5555 54 46.3691 54C45.9302 54 45.2086 53.9278 44.2225 53.7774C43.2303 53.6269 42.0216 53.2538 40.5845 52.6581C39.1534 52.0624 37.5298 51.1718 35.7139 49.9803C33.8979 48.7949 31.9617 47.1581 29.9112 45.0941C28.2817 43.4814 26.9287 41.9469 25.8584 40.4787C24.788 39.0104 23.9222 37.6504 23.2727 36.4048C22.6233 35.1532 22.1303 34.0279 21.8055 33.0109C21.4808 32 21.2583 31.1214 21.1441 30.3873C21.0298 29.6532 20.9817 29.0755 20.9998 28.6543C21.0238 28.2391 21.0359 28.0044 21.0359 27.9562C21.084 27.6253 21.1862 27.2943 21.3485 26.9573C21.5109 26.6143 21.7093 26.3435 21.9378 26.1329L26.592 21.4874C26.9167 21.1625 27.2895 21 27.7104 21C28.0111 21 28.2817 21.0842 28.5102 21.2648C28.7447 21.4333 28.9431 21.6499 29.1055 21.9086L32.8396 29.0033C33.0501 29.3764 33.1102 29.7856 33.014 30.2309C32.9238 30.6701 32.7254 31.0432 32.4247 31.3441L30.711 33.0591C30.6689 33.1072 30.6268 33.1794 30.5907 33.2877C30.5546 33.3961 30.5366 33.4803 30.5366 33.5525C30.6328 34.0399 30.8433 34.5996 31.162 35.2314C31.4446 35.791 31.8715 36.477 32.4548 37.2774C33.038 38.0837 33.8618 39.0104 34.9322 40.0574C35.9785 41.1346 36.9165 41.965 37.7283 42.5607C38.5461 43.1504 39.2255 43.5837 39.7727 43.8665C40.3199 44.1433 40.7409 44.3118 41.0295 44.372L41.4684 44.4562C41.5105 44.4562 41.5887 44.4382 41.6969 44.4081C41.7992 44.372 41.8773 44.3299 41.9254 44.2877L43.9158 42.2598C44.3367 41.8868 44.8238 41.7002 45.383 41.7002C45.7798 41.7002 46.0925 41.7724 46.327 41.9108H46.3571L53.1038 45.9004C53.5909 46.2013 53.8855 46.5925 53.9757 47.0558L53.9878 47.0438Z" fill="white"/>
    </g>
    <defs>
        <clipPath id="clip0_2036_7">
            <rect width="33" height="33" fill="white" transform="translate(21 21)"/>
        </clipPath>
    </defs>
</svg>
