<svg width="75" height="75" viewBox="0 0 75 75" fill="none"
    xmlns="http://www.w3.org/2000/svg">
    <path d="M37.5 75C58.2107 75 75 58.2107 75 37.5C75 16.7893 58.2107 0 37.5 0C16.7893 0 0 16.7893 0 37.5C0 58.2107 16.7893 75 37.5 75Z" fill="#41CDCF"/>
    <path d="M53.3227 42.6069C53.3867 42.4341 53.4251 42.2848 53.4485 42.1653C53.8069 40.8363 54 39.44 54 37.9989C54 29.248 46.9355 22.1152 38.2101 22.0021V22C38.2027 22 38.1803 22 38.1483 22.0021C38.0992 22.0021 38.0501 22 38 22C37.9499 22 37.9019 22.0011 37.8517 22.0021C37.8187 22.0011 37.7973 22 37.7899 22V22.0021C29.0645 22.1152 22 29.248 22 38C22 39.4411 22.1931 40.8373 22.5515 42.1664C22.5749 42.2859 22.6133 42.4352 22.6773 42.6069C24.6411 49.1264 30.6603 53.9051 37.7899 53.9979V54C37.7973 54 37.8187 54 37.8517 53.9979C37.9008 53.9979 37.9509 54 38 54C38.0491 54 38.0992 53.9989 38.1483 53.9979C38.1803 53.9989 38.2027 54 38.2101 54V53.9979C45.3397 53.9051 51.3589 49.1275 53.3227 42.608V42.6069ZM50.4448 43.6619C49.5776 44.2347 48.1611 44.8672 45.8635 45.3259C46.3093 43.5392 46.5675 41.5008 46.6336 39.2149C48.5856 38.7904 50.1579 38.1909 51.3344 37.4165C51.7717 37.1285 52.1216 36.8363 52.4032 36.5525C52.4501 37.0283 52.4757 37.5104 52.4757 37.9989C52.4757 39.44 52.2635 40.832 51.8688 42.1472C51.7259 42.48 51.3621 43.056 50.4437 43.6619H50.4448ZM24.1099 42.0789C24.0853 41.9968 24.0629 41.9157 24.0395 41.8336C24.0395 41.8304 24.0395 41.8293 24.0395 41.8283C24.0395 41.8293 24.0395 41.8304 24.0395 41.8315C23.7035 40.6101 23.5232 39.3259 23.5232 38C23.5232 37.5125 23.5477 37.0293 23.5957 36.5536C23.8773 36.8373 24.2272 37.1296 24.6645 37.4176C25.8411 38.192 27.4133 38.7915 29.3653 39.216C29.4315 41.504 29.6907 43.5445 30.1376 45.3333C25.4421 44.4011 24.3563 42.7147 24.1099 42.0789ZM26.1067 29.7568C26.3819 30.0181 26.7563 30.2901 27.2661 30.5504C27.9829 30.9173 28.88 31.2213 29.9531 31.4635C29.5701 33.2864 29.3685 35.3525 29.3504 37.6523C24.6464 36.5515 24.0544 34.6763 23.9883 34.3573C24.4224 32.688 25.1477 31.136 26.1067 29.7568ZM52.0117 34.3573C51.9456 34.6763 51.3536 36.5525 46.6496 37.6533C46.6315 35.3536 46.4299 33.2875 46.0469 31.4645C47.12 31.2224 48.0171 30.9184 48.7339 30.5515C49.2448 30.2901 49.6192 30.0181 49.8933 29.7579C50.8523 31.1371 51.5776 32.6891 52.0117 34.3584V34.3573ZM45.1275 37.9552C43.4475 38.2347 41.3579 38.4213 38.7616 38.4523V32.1547C40.9856 32.1291 42.9141 31.9925 44.5376 31.7451C44.9003 33.4315 45.1253 35.4763 45.1285 37.9552H45.1275ZM38.7616 30.6304V23.7109C39.4517 23.9211 40.4213 24.368 41.3995 25.3195C42.3552 26.2485 43.4133 27.7739 44.1579 30.2592C42.7755 30.4619 41.0101 30.6037 38.7616 30.6293V30.6304ZM34.5995 25.3195C35.5776 24.368 36.5472 23.9211 37.2373 23.7109V30.6304C34.976 30.6037 33.2128 30.4587 31.8411 30.2571C32.5856 27.7728 33.6437 26.2485 34.5984 25.3195H34.5995ZM37.2373 32.1536V38.4512C34.6411 38.4203 32.5515 38.2336 30.8715 37.9541C30.8747 35.4752 31.0997 33.4304 31.4624 31.744C33.0848 31.9915 35.0133 32.128 37.2373 32.1536ZM30.9003 39.5008C32.7371 39.7888 34.8512 39.9477 37.2373 39.9755V45.9691C35.0976 45.9435 33.3045 45.8112 31.8016 45.6075C31.3333 43.9979 30.9963 41.9947 30.8992 39.5008H30.9003ZM37.2373 47.4923V52.288C36.5472 52.0779 35.5776 51.6309 34.5995 50.6795C33.8485 49.9499 33.0347 48.8523 32.3595 47.2107C33.8325 47.3781 35.4592 47.472 37.2373 47.4923ZM41.3995 50.6795C40.4203 51.6309 39.4507 52.0779 38.7616 52.288V47.4923C40.5397 47.472 42.1664 47.3771 43.6395 47.2107C42.9643 48.8523 42.1504 49.9499 41.3995 50.6795ZM38.7616 45.9691V39.9755C41.1477 39.9477 43.2629 39.7888 45.0987 39.5008C45.0016 41.9915 44.6656 43.9947 44.1984 45.6032C42.6987 45.808 40.9056 45.9435 38.7616 45.9691ZM48.9515 28.5429C48.8043 28.7072 48.5333 28.9419 48.0395 29.1947C47.5275 29.4571 46.7755 29.7387 45.6789 29.9829C44.9803 27.5541 43.9051 25.6309 42.4608 24.2283C45.0037 25.0539 47.2405 26.5653 48.9515 28.5429ZM33.5392 24.2283C32.0949 25.6309 31.0208 27.5541 30.3221 29.9819C29.4933 29.7973 28.8757 29.5957 28.4192 29.4059C27.6309 29.0784 27.2405 28.7605 27.0485 28.544C28.7595 26.5653 30.9963 25.0539 33.5392 24.2283ZM25.5861 45.44C26.9003 46.1152 28.5835 46.6251 30.6229 46.9696C31.3152 48.9536 32.288 50.5589 33.5381 51.7728C30.1888 50.6848 27.3707 48.4075 25.5861 45.4411V45.44ZM42.4608 51.7717C43.7109 50.5579 44.6837 48.9525 45.376 46.9685C47.4155 46.6251 49.0987 46.1141 50.4128 45.4389C48.6283 48.4064 45.8101 50.6837 42.4608 51.7707V51.7717Z" fill="white"/>
</svg>
