<svg width="35" height="8" viewBox="0 0 35 8" fill="none"
    xmlns="http://www.w3.org/2000/svg">
    <path fill-rule="evenodd" clip-rule="evenodd" d="M14.0012 5.73787C12.7889 6.66775 10.9948 7.15716 9.44303 7.15716C7.30941 7.15716 5.36975 6.3741 3.91501 5.00375C3.81803 4.90587 3.91502 4.75904 4.0605 4.85693C5.66071 5.78681 7.60036 6.32516 9.58851 6.32516C10.9463 6.32516 12.4495 6.03151 13.8073 5.44422C14.0497 5.34634 14.2437 5.5421 14.0012 5.73787Z" fill="#F49911"/>
    <path fill-rule="evenodd" clip-rule="evenodd" d="M14.5346 5.10162C14.3891 4.90586 13.5163 5.00374 13.0799 5.05268C12.9829 5.05268 12.9344 4.9548 13.0314 4.90586C13.7103 4.41645 14.874 4.56327 15.0195 4.71009C15.165 4.85692 14.971 6.03151 14.3406 6.6188C14.2437 6.71668 14.1467 6.66774 14.1952 6.56986C14.3406 6.17833 14.6801 5.34633 14.5346 5.10162Z" fill="#F49911"/>
    <path fill-rule="evenodd" clip-rule="evenodd" d="M13.1282 1.38208V0.892673C13.1282 0.79479 13.1767 0.74585 13.2737 0.74585H15.4073C15.4558 0.74585 15.5528 0.794791 15.5528 0.843732V1.23526C15.5528 1.2842 15.5043 1.38209 15.4073 1.52891L14.292 3.14397C14.7284 3.14397 15.1649 3.19291 15.5043 3.38867C15.6013 3.43761 15.6013 3.48656 15.6013 3.58444V4.12279C15.6013 4.17173 15.5043 4.26961 15.4558 4.22067C14.7769 3.87809 13.9041 3.82914 13.1767 4.22067C13.0797 4.26961 13.0313 4.17173 13.0313 4.12279V3.63338C13.0313 3.5355 13.0312 3.43762 13.1282 3.29079L14.4375 1.43103H13.3222C13.1767 1.52891 13.1282 1.47997 13.1282 1.38208Z" fill="#333E47"/>
    <path fill-rule="evenodd" clip-rule="evenodd" d="M5.27229 4.41644H4.6419C4.5934 4.41644 4.54492 4.3675 4.54492 4.31856V0.941614C4.54492 0.892673 4.59341 0.843732 4.69039 0.843732H5.32077C5.36926 0.843732 5.41776 0.892673 5.41776 0.941614V1.38208C5.56323 0.941614 5.85418 0.74585 6.2906 0.74585C6.67853 0.74585 6.96949 0.941614 7.11496 1.38208C7.26043 0.941614 7.64836 0.74585 8.03629 0.74585C8.32724 0.74585 8.61819 0.843732 8.81216 1.13738C9.00612 1.43103 8.95763 1.82256 8.95763 2.21409V4.3675C8.95763 4.41644 8.90914 4.46538 8.81216 4.46538H8.18178C8.13328 4.46538 8.08479 4.41644 8.08479 4.3675V2.55667C8.08479 2.40985 8.08479 2.06726 8.08479 1.92044C8.0363 1.67573 7.89083 1.62679 7.69686 1.62679C7.55139 1.62679 7.35741 1.72467 7.30892 1.92044C7.26043 2.06726 7.26043 2.36091 7.26043 2.55667V4.3675C7.26043 4.41644 7.21194 4.46538 7.11496 4.46538H6.38759C6.3391 4.46538 6.2906 4.41644 6.2906 4.3675V2.55667C6.2906 2.16514 6.3391 1.62679 5.90267 1.62679C5.41776 1.62679 5.46626 2.16514 5.46626 2.55667V4.3675C5.41776 4.3675 5.36928 4.41644 5.27229 4.41644Z" fill="#333E47"/>
    <path fill-rule="evenodd" clip-rule="evenodd" d="M17.3952 0.74585C16.4253 0.74585 15.9404 1.57785 15.9404 2.60561C15.9404 3.63338 16.4738 4.51432 17.3952 4.51432C18.3165 4.51432 18.8984 3.68232 18.8984 2.65456C18.8499 1.57785 18.365 0.74585 17.3952 0.74585ZM17.3952 3.7802C16.8618 3.7802 16.9103 2.89926 16.9103 2.45879C16.9103 2.06726 16.9587 1.38208 17.4437 1.38208C17.6376 1.38208 17.7831 1.47997 17.8801 1.72467C17.9771 2.01832 17.9771 2.36091 17.9771 2.60561C17.9286 3.09503 17.8801 3.7802 17.3952 3.7802Z" fill="#333E47"/>
    <path fill-rule="evenodd" clip-rule="evenodd" d="M20.1112 4.41645H19.4808C19.4323 4.41645 19.3838 4.36751 19.3838 4.31856V0.941623C19.3838 0.892682 19.4323 0.843741 19.5293 0.843741H20.1597C20.2081 0.843741 20.2566 0.892682 20.2566 0.941623V1.47998C20.4506 1.03951 20.6931 0.7948 21.1295 0.7948C21.4204 0.7948 21.7114 0.892682 21.9053 1.18633C22.0993 1.47998 22.0993 1.92045 22.0993 2.26304V4.41645C22.0993 4.46539 22.0508 4.51433 21.9538 4.51433H21.275C21.2265 4.51433 21.178 4.46539 21.178 4.41645V2.55668C21.178 2.16515 21.2265 1.6268 20.7901 1.6268C20.6446 1.6268 20.4991 1.72468 20.4021 1.92045C20.3051 2.11621 20.3051 2.31198 20.3051 2.55668V4.36751C20.2566 4.36751 20.2081 4.41645 20.1112 4.41645Z" fill="#333E47"/>
    <path fill-rule="evenodd" clip-rule="evenodd" d="M12.595 3.78019C12.498 3.63337 12.3525 3.48655 12.3525 3.1929V2.16514C12.3525 1.72466 12.401 1.33314 12.0616 1.03949C11.8191 0.794782 11.4312 0.696899 11.0918 0.696899H11.0433C10.4129 0.696899 9.73401 0.941606 9.58853 1.72466C9.58853 1.82255 9.63702 1.87149 9.68551 1.87149L10.3159 1.92043C10.3644 1.92043 10.4129 1.87149 10.4129 1.82255C10.4614 1.57784 10.7038 1.43102 10.9463 1.43102C11.0918 1.43102 11.2372 1.47996 11.3342 1.62678C11.4312 1.77361 11.4312 1.96937 11.4312 2.11619V2.21408C11.0433 2.26302 10.5584 2.26302 10.2189 2.45878C9.83098 2.65455 9.54004 2.99714 9.54004 3.53549C9.54004 4.22067 9.97646 4.56325 10.5099 4.56325C10.9948 4.56325 11.2372 4.46537 11.5767 4.07384C11.6737 4.26961 11.7222 4.31855 11.9646 4.51431C12.0131 4.56325 12.0616 4.51431 12.1101 4.51431C12.2556 4.41643 12.498 4.17172 12.595 4.07384C12.6435 3.92702 12.6435 3.82914 12.595 3.78019ZM11.2857 3.48655C11.1887 3.68231 10.9948 3.78019 10.8493 3.78019C10.6069 3.78019 10.4614 3.58443 10.4614 3.29078C10.4614 2.75243 10.9463 2.60561 11.4312 2.60561V2.75243C11.4312 3.04608 11.4312 3.29078 11.2857 3.48655Z" fill="#333E47"/>
    <path fill-rule="evenodd" clip-rule="evenodd" d="M4.012 3.78019C3.91501 3.63337 3.76954 3.48655 3.76954 3.1929V2.16514C3.76954 1.72466 3.81803 1.33314 3.47859 1.03949C3.23613 0.794782 2.8482 0.696899 2.50876 0.696899H2.46027C1.82988 0.696899 1.151 0.941606 1.00553 1.72466C1.00553 1.82255 1.05402 1.87149 1.10251 1.87149L1.7329 1.92043C1.78139 1.92043 1.82989 1.87149 1.82989 1.82255C1.87838 1.57784 2.12084 1.43102 2.36329 1.43102C2.50877 1.43102 2.65424 1.47996 2.75122 1.62678C2.8482 1.77361 2.84821 1.96937 2.84821 2.11619V2.21408C2.46028 2.26302 1.97536 2.26302 1.63592 2.45878C1.24799 2.65455 0.957031 2.99714 0.957031 3.53549C0.957031 4.22067 1.39345 4.56325 1.92686 4.56325C2.41177 4.56325 2.65424 4.46537 2.99368 4.07384C3.09066 4.26961 3.13914 4.31855 3.3816 4.51431C3.43009 4.56325 3.47859 4.51431 3.52708 4.51431C3.67256 4.41643 3.91501 4.17172 4.012 4.07384C4.06049 3.92702 4.06049 3.82914 4.012 3.78019ZM2.70272 3.48655C2.60574 3.68231 2.41178 3.78019 2.2663 3.78019C2.02385 3.78019 1.87838 3.58443 1.87838 3.29078C1.87838 2.75243 2.36329 2.60561 2.84821 2.60561V2.75243C2.84821 3.04608 2.8482 3.29078 2.70272 3.48655Z" fill="#333E47"/>
    <path fill-rule="evenodd" clip-rule="evenodd" d="M30.9736 5.63999C30.9736 5.5421 30.9736 5.49316 30.9736 5.39528C30.9736 5.34634 31.022 5.2974 31.0705 5.2974C31.216 5.2974 31.41 5.34634 31.5554 5.2974C31.7494 5.24846 31.8464 5.15057 31.9434 4.95481C32.0404 4.7101 32.1373 4.51434 32.1858 4.36751L30.8281 0.990573C30.8281 0.941632 30.7796 0.84375 30.9251 0.84375H31.41C31.507 0.84375 31.5554 0.892691 31.5554 0.941632L32.5253 3.68234L33.4466 0.941632C33.4466 0.892691 33.4951 0.84375 33.5921 0.84375H34.0285C34.1255 0.84375 34.1255 0.941632 34.1255 0.990573L32.7677 4.51434C32.5738 5.00375 32.3798 5.73787 31.8464 5.83575C31.6039 5.88469 31.2645 5.88469 31.0705 5.78681C31.022 5.73787 30.9736 5.68893 30.9736 5.63999Z" fill="#333E47"/>
    <path fill-rule="evenodd" clip-rule="evenodd" d="M29.0338 0.696899C28.5974 0.696899 28.161 0.794782 27.87 0.941605C27.8215 0.941605 27.7731 1.03949 27.7731 1.08843V1.33314C27.7731 1.38208 27.8215 1.43102 27.87 1.43102C28.3065 1.28419 28.5974 1.23525 28.9853 1.23525C29.5188 1.23525 29.7127 1.43102 29.7127 1.92043V2.3609C29.4218 2.26302 29.0823 2.26302 28.8399 2.26302C28.4034 2.26302 28.064 2.40984 27.8216 2.65455C27.6276 2.85031 27.5791 3.09502 27.5791 3.38866C27.5791 3.73125 27.7246 4.07384 28.0155 4.26961C28.4035 4.51431 28.8399 4.46537 29.2278 4.31855C29.4218 4.22066 29.6157 4.12278 29.7612 3.97596L29.8097 4.22067C29.8097 4.26961 29.8582 4.31855 29.9552 4.31855H30.2946C30.3431 4.31855 30.3916 4.26961 30.3916 4.22067V1.77361C30.3431 0.794782 29.6642 0.696899 29.0338 0.696899ZM29.7127 3.53549C29.6157 3.63337 29.3733 3.78019 29.1308 3.82914C28.8884 3.87808 28.5974 3.92702 28.4519 3.78019C28.3065 3.68231 28.258 3.48655 28.258 3.33972C28.258 3.1929 28.3065 3.04608 28.4034 2.94819C28.5489 2.80137 28.7914 2.75243 29.0338 2.75243C29.1793 2.75243 29.5672 2.80137 29.7612 2.85031V3.53549H29.7127Z" fill="#333E47"/>
    <path fill-rule="evenodd" clip-rule="evenodd" d="M25.5904 0.696899C25.2025 0.696899 24.7661 0.892664 24.4751 1.18631L24.4266 0.941605C24.4266 0.892664 24.3781 0.843724 24.2811 0.843724H23.9417C23.8932 0.843724 23.8447 0.892664 23.8447 0.941605C23.8447 2.50772 23.8447 4.07384 23.8447 5.6889C23.8447 5.73784 23.8932 5.78678 23.9417 5.78678H24.3781C24.4266 5.78678 24.4751 5.73784 24.4751 5.6889V4.07384C24.7661 4.31855 25.154 4.46537 25.5419 4.46537C26.4633 4.46537 27.0452 3.63337 27.0452 2.60561C27.0452 1.62678 26.7057 0.696899 25.5904 0.696899ZM26.0268 3.63337C25.8329 3.82914 25.6389 3.87808 25.348 3.87808C25.1055 3.87808 24.7176 3.73125 24.4751 3.53549V1.57784C24.7661 1.38208 25.1055 1.23525 25.348 1.23525C26.0753 1.23525 26.3178 1.82255 26.3178 2.50772C26.3663 2.99714 26.2693 3.38866 26.0268 3.63337Z" fill="#333E47"/>
</svg>
