<svg width="30" height="12" viewBox="0 0 30 12" fill="none"
    xmlns="http://www.w3.org/2000/svg">
    <path fill-rule="evenodd" clip-rule="evenodd" d="M17.8459 1.59252C17.361 1.1031 16.7306 0.858398 16.0518 0.858398H13.2393V9.12946H14.3061V5.80146H16.0518C16.7791 5.80146 17.361 5.55675 17.8459 5.11628C18.3309 4.62687 18.6218 4.03958 18.6218 3.3544C18.5733 2.62028 18.3309 2.08193 17.8459 1.59252ZM17.0701 4.33322C16.7791 4.62687 16.4397 4.77369 16.0033 4.77369H14.3061V1.88616H16.0518C16.4882 1.88616 16.8276 2.03299 17.1186 2.32663C17.4095 2.62028 17.555 2.96287 17.555 3.3544C17.5065 3.74593 17.361 4.03958 17.0701 4.33322Z" fill="#5F6368"/>
    <path fill-rule="evenodd" clip-rule="evenodd" d="M22.8401 3.94165C22.4037 3.50118 21.7733 3.30542 20.9975 3.30542C19.9791 3.30542 19.2518 3.69695 18.7184 4.43107L19.6397 5.01836C19.9791 4.52895 20.4641 4.28424 21.046 4.28424C21.4339 4.28424 21.7733 4.43107 22.0643 4.67577C22.3552 4.92048 22.5007 5.26307 22.5007 5.60565V5.85036C22.1128 5.60565 21.5794 5.50777 20.949 5.50777C20.2216 5.50777 19.6397 5.70354 19.2033 6.04613C18.7669 6.38871 18.5244 6.87813 18.5244 7.46542C18.5244 8.00377 18.7184 8.49319 19.1548 8.83577C19.5912 9.2273 20.0761 9.37413 20.7065 9.37413C21.4339 9.37413 22.0158 9.03154 22.4522 8.3953H22.5007V9.12942H23.519V5.6546C23.519 4.92048 23.325 4.33318 22.8401 3.94165ZM22.0158 7.85695C21.6764 8.19954 21.2884 8.34636 20.852 8.34636C20.561 8.34636 20.2701 8.24848 20.0276 8.05271C19.7852 7.85695 19.6882 7.66118 19.6882 7.36754C19.6882 7.07389 19.8337 6.78024 20.1246 6.58448C20.4156 6.38871 20.755 6.29083 21.1914 6.29083C21.7733 6.29083 22.2582 6.43766 22.5492 6.68236C22.5492 7.17177 22.3552 7.5633 22.0158 7.85695Z" fill="#5F6368"/>
    <path fill-rule="evenodd" clip-rule="evenodd" d="M29.3389 3.50122L25.799 11.6255H24.7322L26.0414 8.78687L23.7139 3.50122H24.8776L26.5264 7.56334H26.5748L28.1751 3.50122H29.3389Z" fill="#5F6368"/>
    <path d="M9.94168 4.0885H5.48047V5.89932H8.05052C7.95354 6.48662 7.6141 7.02497 7.12919 7.36756L8.63241 8.54215C9.50525 7.71015 10.0387 6.48662 10.0387 5.06732C10.0387 4.72474 9.99017 4.43109 9.94168 4.0885Z" fill="#4285F4"/>
    <path d="M7.08068 7.36758C6.64426 7.66123 6.11085 7.80805 5.48046 7.80805C4.26818 7.80805 3.20137 6.97605 2.81343 5.8504L1.26172 7.07393C2.03758 8.64005 3.63779 9.66781 5.48046 9.66781C6.74124 9.66781 7.80806 9.22734 8.58392 8.54217L7.08068 7.36758Z" fill="#34A853"/>
    <path d="M2.86182 4.03957L1.31011 2.81604C0.970669 3.45228 0.825195 4.18639 0.825195 4.96945C0.825195 5.75251 1.01916 6.43769 1.31011 7.12286L2.86182 5.89933C2.76484 5.60569 2.71636 5.31204 2.71636 4.96945C2.71636 4.62686 2.76484 4.33322 2.86182 4.03957Z" fill="#FABB05"/>
    <path d="M8.6324 1.4457C7.80805 0.662639 6.74124 0.222168 5.48046 0.222168C3.63779 0.222168 2.03758 1.29887 1.26172 2.81605L2.81343 4.03958C3.20137 2.91393 4.21968 2.08193 5.48046 2.08193C6.15934 2.08193 6.78973 2.32664 7.27465 2.81605L8.6324 1.4457Z" fill="#E94235"/>
</svg>
