<svg width="35" height="13" viewBox="0 0 35 13" fill="none"
    xmlns="http://www.w3.org/2000/svg">
    <path fill-rule="evenodd" clip-rule="evenodd" d="M20.754 0.460466C20.754 0.460466 21.7724 1.14564 20.754 1.29247C20.754 1.29247 16.9717 1.73294 14.1592 4.37576C14.1592 4.37576 9.94047 8.09529 8.38874 12.1574C8.38874 12.1574 7.85534 12.1574 8.0493 11.3743C8.24327 10.5913 9.26159 7.06753 13.9653 2.80964C13.9653 2.7607 18.4749 -1.35036 20.754 0.460466Z" fill="#FE4900"/>
    <path fill-rule="evenodd" clip-rule="evenodd" d="M8.77691 0.949898C8.8254 1.92872 9.64975 5.64825 9.64975 5.64825C9.9407 6.38237 10.2317 5.64825 10.2317 5.64825C11.25 2.6139 9.16484 0.852015 9.16484 0.852015C8.63144 0.509427 8.77691 0.949898 8.77691 0.949898Z" fill="#FE4900"/>
    <path fill-rule="evenodd" clip-rule="evenodd" d="M4.02478 3.83744C3.63685 3.5438 3.05496 3.39697 2.52155 3.39697C1.98815 3.39697 1.45474 3.44591 1.1153 3.5438L0 9.41674H1.01832L1.45474 7.16544C1.60022 7.16544 1.79418 7.21438 1.98815 7.21438C2.66703 7.21438 3.34591 7.01862 3.83082 6.62709C4.26724 6.2845 4.60668 5.69721 4.60668 5.01203C4.55819 4.47368 4.36422 4.08215 4.02478 3.83744ZM2.08513 6.38238C1.84267 6.38238 1.6972 6.38238 1.55172 6.33344L1.93966 4.32685C2.08513 4.27791 2.27909 4.27791 2.52155 4.27791C3.10345 4.27791 3.53987 4.52262 3.53987 5.15886C3.53987 5.79509 2.95797 6.38238 2.08513 6.38238Z" fill="#333333"/>
    <path fill-rule="evenodd" clip-rule="evenodd" d="M8.4378 5.20773C8.09836 5.10985 7.61345 5.01196 7.12854 5.01196C5.14039 5.01196 4.12207 6.57808 4.12207 8.04632C4.12207 8.92726 4.60698 9.51455 5.38285 9.51455C5.91625 9.51455 6.49815 9.2209 6.93457 8.43785C6.88608 8.78043 6.88608 9.12302 6.88608 9.41667H7.80742C7.80742 8.92726 7.85591 8.09526 8.00138 7.45902L8.4378 5.20773ZM7.08004 6.96961C6.88608 8.04632 6.30418 8.68255 5.81927 8.68255C5.38285 8.68255 5.18888 8.29102 5.18888 7.85055C5.18888 6.87173 5.91625 5.79502 6.88608 5.79502C7.08004 5.79502 7.22552 5.79502 7.3225 5.84396L7.08004 6.96961Z" fill="#333333"/>
    <path fill-rule="evenodd" clip-rule="evenodd" d="M15.6625 5.01196C14.2078 5.01196 13.1895 6.28443 13.1895 7.75267C13.1895 8.78043 13.8683 9.51455 14.9351 9.51455C16.3899 9.51455 17.4082 8.24208 17.4082 6.77385C17.4082 5.84396 16.8263 5.01196 15.6625 5.01196ZM15.0806 8.73149C14.5472 8.73149 14.2563 8.29102 14.2563 7.70373C14.2563 6.92067 14.7412 5.79502 15.5655 5.79502C16.1959 5.79502 16.3899 6.33337 16.3899 6.77385C16.3414 7.65479 15.8565 8.73149 15.0806 8.73149Z" fill="#333333"/>
    <path fill-rule="evenodd" clip-rule="evenodd" d="M17.6025 9.41667L18.1359 6.43126C18.2329 5.94185 18.2814 5.45243 18.3784 5.10985H19.2997L19.2028 5.8929C19.5907 5.30561 20.1241 5.01196 20.7545 5.01196C21.3849 5.01196 21.8213 5.40349 21.8213 6.18655C21.8213 6.38232 21.7728 6.67596 21.7243 6.87173L21.2394 9.36773H20.2211L20.6575 6.92067C20.706 6.77385 20.706 6.57808 20.706 6.43126C20.706 6.08867 20.5605 5.79502 20.1726 5.79502C19.6877 5.79502 19.1058 6.38232 18.9118 7.36114L18.6209 9.41667H17.6025Z" fill="#333333"/>
    <path fill-rule="evenodd" clip-rule="evenodd" d="M26.0401 6.23549C26.0401 5.50137 25.5067 5.01196 24.6824 5.01196C23.2276 5.01196 22.2578 6.43126 22.2578 7.70373C22.2578 8.78043 22.8397 9.51455 24.0035 9.51455C24.5369 9.51455 25.0703 9.36773 25.5067 9.17196L25.4098 8.43785C25.1188 8.58467 24.7309 8.73149 24.246 8.73149C23.858 8.73149 23.5186 8.58467 23.3731 8.29102C23.2761 8.1442 23.2276 7.85055 23.2761 7.70373C24.9248 7.70373 26.0401 7.3122 26.0401 6.23549ZM24.5369 5.79502C24.8763 5.79502 25.0703 5.94185 25.0703 6.23549C25.0703 6.77385 24.3914 6.92067 23.3246 6.87173C23.4701 6.38232 23.9065 5.79502 24.5369 5.79502Z" fill="#333333"/>
    <path fill-rule="evenodd" clip-rule="evenodd" d="M30.0157 6.23549C30.0157 5.50137 29.4823 5.01196 28.658 5.01196C27.2032 5.01196 26.2334 6.43126 26.2334 7.70373C26.2334 8.78043 26.8153 9.51455 27.9791 9.51455C28.5125 9.51455 29.0459 9.36773 29.4823 9.17196L29.3853 8.43785C29.0944 8.58467 28.7065 8.73149 28.2215 8.73149C27.8336 8.73149 27.4942 8.58467 27.3487 8.29102C27.2517 8.1442 27.2032 7.85055 27.2517 7.70373C28.9004 7.70373 30.0157 7.3122 30.0157 6.23549ZM28.5125 5.79502C28.8519 5.79502 29.0459 5.94185 29.0459 6.23549C29.0459 6.77385 28.367 6.92067 27.3002 6.87173C27.4457 6.38232 27.8821 5.79502 28.5125 5.79502Z" fill="#333333"/>
    <path fill-rule="evenodd" clip-rule="evenodd" d="M30.1133 9.41667L30.5982 6.77385C30.6952 6.18655 30.7922 5.50138 30.8407 5.10985H31.7135C31.665 5.40349 31.665 5.69714 31.6165 5.99079H31.665C31.956 5.40349 32.4409 5.01196 33.0228 5.01196C33.1197 5.01196 33.1682 5.01196 33.2652 5.01196L33.0713 6.03973C33.0228 6.03973 32.9258 6.03973 32.8773 6.03973C32.1499 6.03973 31.665 6.77385 31.5195 7.70373L31.1801 9.41667H30.1133Z" fill="#333333"/>
    <path fill-rule="evenodd" clip-rule="evenodd" d="M33.8955 5.25671C33.944 5.25671 33.9925 5.25671 34.041 5.25671C34.138 5.25671 34.1865 5.25671 34.1865 5.30566C34.2349 5.3546 34.2349 5.3546 34.2349 5.40354C34.2349 5.50142 34.1865 5.55036 34.138 5.55036C34.1865 5.55036 34.1865 5.5993 34.2349 5.64824C34.2349 5.74613 34.2834 5.79507 34.2834 5.79507H34.1865C34.1865 5.79507 34.1865 5.74613 34.138 5.64824C34.138 5.55036 34.0895 5.55036 34.041 5.55036H33.9925V5.79507H33.8955V5.25671ZM33.9925 5.50142H34.0895C34.1865 5.50142 34.2349 5.45248 34.2349 5.40354C34.2349 5.30566 34.1865 5.30566 34.0895 5.30566C34.041 5.30566 34.041 5.30566 33.9925 5.30566V5.50142Z" fill="#333333"/>
    <path fill-rule="evenodd" clip-rule="evenodd" d="M34.0894 5.10991C34.3319 5.10991 34.5258 5.30567 34.5258 5.55038C34.5258 5.79508 34.3319 5.99085 34.0894 5.99085C33.8469 5.99085 33.653 5.79508 33.653 5.55038C33.653 5.30567 33.8469 5.10991 34.0894 5.10991ZM34.0894 5.01202C33.7985 5.01202 33.6045 5.25673 33.6045 5.50144C33.6045 5.79508 33.8469 5.99085 34.0894 5.99085C34.3804 5.99085 34.5743 5.74614 34.5743 5.50144C34.5743 5.25673 34.3319 5.01202 34.0894 5.01202Z" fill="#333333"/>
</svg>
