<svg width="24" height="8" viewBox="0 0 24 8" fill="none"
    xmlns="http://www.w3.org/2000/svg">
    <path fill-rule="evenodd" clip-rule="evenodd" d="M16.9956 1.89272C17.529 1.89272 17.9169 1.45225 17.9169 0.962841C17.9169 0.424488 17.4805 0.032959 16.9956 0.032959C16.4622 0.032959 16.0742 0.473429 16.0742 0.962841C16.0742 1.45225 16.4622 1.89272 16.9956 1.89272Z" fill="#811963"/>
    <path fill-rule="evenodd" clip-rule="evenodd" d="M3.36914 7.86356H3.0297C2.15685 7.86356 1.381 7.76568 0.702116 7.56991V5.85697C1.18703 6.05274 2.01138 6.29744 2.83573 6.29744C3.6116 6.29744 4.04802 6.05274 4.04802 5.61227C4.04802 5.07391 3.51461 5.07391 3.27215 5.02497C0.896076 4.87815 0.556641 3.50779 0.556641 2.82262V2.67579C0.605132 1.59909 1.38099 0.4245 3.46612 0.4245C4.72689 0.4245 5.40577 0.620265 5.93918 0.81603H5.98767V2.48003C5.74522 2.38215 5.50276 2.28427 5.50276 2.28427C5.01785 2.13744 4.33897 1.99062 3.80556 1.99062C3.51461 1.99062 2.69027 1.99062 2.69027 2.57791C2.69027 3.06732 3.22366 3.11626 3.46612 3.11626C5.21181 3.21415 6.27863 4.09509 6.27863 5.46544C6.27863 6.64003 5.35729 7.81462 3.36914 7.86356Z" fill="#811963"/>
    <path fill-rule="evenodd" clip-rule="evenodd" d="M9.81862 2.38214C9.77013 2.48002 9.47919 3.36096 8.75182 4.2419V0.375549L6.76367 0.767078V7.76567H8.75182V5.61226C9.33372 6.4932 9.62466 7.76567 9.62466 7.76567H12.0007C11.7583 6.78684 10.74 4.97602 10.74 4.97602C11.6613 3.80143 12.0492 2.5779 12.0977 2.3332H9.81862V2.38214Z" fill="#811963"/>
    <path fill-rule="evenodd" clip-rule="evenodd" d="M14.959 2.33316C13.2133 2.3821 12.292 3.16516 12.292 4.78022V7.81457H14.2316V5.31857C14.2316 4.38869 14.3771 3.94822 15.4924 3.94822V2.3821C15.2985 2.28422 14.959 2.33316 14.959 2.33316Z" fill="#811963"/>
    <path fill-rule="evenodd" clip-rule="evenodd" d="M16.0254 7.76567H17.965V2.38214H16.0254V7.76567Z" fill="#811963"/>
    <path fill-rule="evenodd" clip-rule="evenodd" d="M21.5537 0.767088V7.76568H23.4449V0.4245L21.5537 0.767088Z" fill="#811963"/>
    <path fill-rule="evenodd" clip-rule="evenodd" d="M18.7412 0.767088L20.6324 0.4245V7.76568H18.7412V0.767088Z" fill="#811963"/>
</svg>
