<svg width="23" height="8" viewBox="0 0 23 8" fill="none"
    xmlns="http://www.w3.org/2000/svg">
    <path d="M0.015625 0.571244L0.0641193 0.326538H3.16756C3.36153 0.326538 3.507 0.375479 3.65248 0.473361C3.84644 0.571244 3.99192 0.767009 4.0889 1.06066L4.86476 5.2696L6.80442 0.326538H8.79257L5.73761 7.56983H3.79795L2.29472 1.64795C2.24623 1.64795 2.19774 0.913832 0.015625 0.571244Z" fill="#162B70"/>
    <path d="M11.3622 0.326538H9.5195L7.96777 7.52089H9.85893L11.3622 0.326538Z" fill="#162B70"/>
    <path d="M16.6963 0.52233L16.3568 2.03951C16.3568 2.03951 15.775 1.64798 14.8536 1.64798C13.9323 1.64798 13.7383 2.13739 13.7383 2.28421C13.7383 2.43104 13.8353 2.72468 14.6112 3.11621C15.3385 3.50774 16.3568 3.94821 16.3568 5.17174C16.3568 6.39527 15.484 7.66774 13.2049 7.66774C13.2049 7.66774 11.8956 7.66774 11.0713 7.32516L11.4107 5.7101C11.4107 5.7101 12.1866 6.19951 13.1564 6.19951C14.1262 6.19951 14.3687 5.75904 14.3687 5.51433C14.3687 5.26963 14.2232 4.92704 13.3989 4.63339C12.623 4.2908 11.7502 3.65457 11.7502 2.67574C11.7502 1.69692 12.623 0.277625 14.8536 0.277625C14.9506 0.179742 16.0659 0.228683 16.6963 0.52233Z" fill="#162B70"/>
    <path d="M21.4002 0.326538H19.8485C19.509 0.326538 19.1696 0.522303 19.0726 0.864891L16.3086 7.52089H18.2482L18.6362 6.44418H21.0123L21.2062 7.52089H22.9034L21.4002 0.326538ZM19.1211 4.97595L20.0909 2.23524L20.6728 4.97595H19.1211Z" fill="#162B70"/>
</svg>
