<svg width="18" height="20" viewBox="0 0 18 20" fill="none"
    xmlns="http://www.w3.org/2000/svg">
    <path d="M17.2926 15.4841C16.839 14.4702 16.1905 13.5597 15.3638 12.7783C14.5377 11.9963 13.5751 11.383 12.5032 10.9539C12.3897 10.9083 12.271 10.8641 12.1517 10.8213L11.762 10.6832L12.1057 10.4616C12.3918 10.278 12.6614 10.0665 12.9073 9.83392C13.4141 9.35452 13.8124 8.79556 14.0906 8.17268C14.3789 7.52804 14.5255 6.84395 14.5255 6.13811C14.5255 5.43227 14.3789 4.74887 14.0906 4.10354C13.8124 3.48134 13.4141 2.92238 12.9073 2.44298C12.3997 1.9629 11.8088 1.58617 11.151 1.32301C10.4694 1.05033 9.74551 0.912292 9 0.912292C8.25449 0.912292 7.53055 1.05033 6.84903 1.32301C6.19123 1.58617 5.60029 1.9629 5.09274 2.44298C4.58519 2.92238 4.18692 3.48134 3.9087 4.10354C3.62042 4.74887 3.47448 5.43295 3.47448 6.13811C3.47448 6.84327 3.62042 7.52804 3.9087 8.17268C4.18692 8.79556 4.58519 9.35452 5.09274 9.83392C5.33861 10.0665 5.60819 10.278 5.8936 10.4616L6.23796 10.6832L5.84831 10.8213C5.72825 10.8641 5.61035 10.9083 5.49677 10.9539C4.42487 11.383 3.46226 11.9963 2.63623 12.7783C1.80949 13.5597 1.16032 14.4702 0.707405 15.4841C0.237958 16.534 0 17.6485 0 18.7977V19.3376H18V18.7977C18 17.6485 17.762 16.534 17.2926 15.4841ZM9 2.19614C10.1129 2.19614 11.1596 2.60618 11.9468 3.35078C12.734 4.09538 13.1675 5.08547 13.1675 6.13811C13.1675 7.19075 12.734 8.18152 11.9468 8.92612C11.1596 9.67072 10.1129 10.0808 9 10.0808C7.88713 10.0808 6.83968 9.67072 6.05248 8.92612C5.26528 8.18152 4.83178 7.19143 4.83178 6.13811C4.83178 5.08479 5.26528 4.09538 6.05248 3.35078C6.83968 2.60618 7.88641 2.19614 9 2.19614ZM1.39684 18.0538C1.47376 17.3398 1.66139 16.6469 1.95758 15.9839C2.34292 15.1237 2.8936 14.3505 3.59597 13.6861C4.29763 13.0218 5.11503 12.5009 6.02516 12.1364C6.96693 11.7597 7.96765 11.5686 9 11.5686C10.0323 11.5686 11.0323 11.7597 11.9741 12.1364C12.8843 12.5009 13.7017 13.0218 14.404 13.6861C15.1057 14.3505 15.6571 15.1237 16.0417 15.9839C16.3379 16.6469 16.5255 17.3398 16.6024 18.0538H1.39684Z" fill="#2E2E2B"/>
</svg>
