<svg width="15" height="14" viewBox="0 0 15 14" fill="none"
    xmlns="http://www.w3.org/2000/svg">
    <g clip-path="url(#clip0_2_120)">
        <path fill-rule="evenodd" clip-rule="evenodd" d="M14.2426 9.92492C13.8706 9.74061 12.0582 8.84642 11.72 8.72355C11.3819 8.59386 11.1316 8.53925 10.8882 8.90785C10.6447 9.27645 9.92786 10.1092 9.71821 10.3481C9.5018 10.5939 9.29216 10.628 8.91343 10.4437C8.54824 10.2594 7.35798 9.87713 5.94454 8.60751C4.85573 7.6314 4.10505 6.42321 3.8954 6.05461C3.68575 5.68601 3.87511 5.48805 4.05771 5.30375C4.22678 5.13311 4.4229 4.86689 4.61226 4.65529C4.6596 4.59386 4.70694 4.53242 4.74752 4.47782C4.83544 4.3413 4.8963 4.2116 4.97746 4.03413C5.10595 3.7884 5.03832 3.56997 4.95041 3.38567C4.85573 3.20137 4.11858 1.37884 3.80748 0.641638C3.50992 -0.0955632 3.19883 0.0341297 2.98242 0.0341297C2.76601 0.0341297 2.52254 0 2.27908 0C2.03562 0 1.62985 0.0955631 1.2917 0.464164C0.953562 0.832765 0 1.72696 0 3.54949C0 3.97952 0.0743913 4.40273 0.18936 4.80546C0.561316 6.10922 1.3661 7.18089 1.50812 7.36519C1.69071 7.6041 4.05771 11.4608 7.80433 12.9488C11.5577 14.4232 11.5577 13.9317 12.234 13.8635C12.9103 13.8089 14.4184 12.9761 14.7227 12.1092C15.0338 11.2491 15.0338 10.5119 14.9391 10.3549C14.8445 10.2048 14.601 10.116 14.2358 9.92492H14.2426Z" fill="white"/>
    </g>
    <defs>
        <clipPath id="clip0_2_120">
            <rect width="15" height="14" fill="white"/>
        </clipPath>
    </defs>
</svg>
