<svg width="21" height="19" viewBox="0 0 21 19" fill="none"
    xmlns="http://www.w3.org/2000/svg">
    <path d="M18.5651 10.6242L20.7685 4.27236C20.8963 3.90529 20.8296 3.49855 20.5914 3.18506C20.3526 2.87223 19.9637 2.68241 19.5623 2.68704L8.44476 2.71416V2.72606C8.11838 2.75318 7.86284 3.01244 7.86562 3.32924C7.8684 3.66058 8.15172 3.92778 8.49892 3.92778H8.50448L9.40166 3.9205C9.4093 3.9205 9.41694 3.91852 9.42458 3.91786L19.5651 3.89273L17.3617 10.2452C17.3041 10.4106 17.143 10.521 16.961 10.521H7.98436L5.48934 1.65199C5.26712 0.862307 4.5123 0.310059 3.65331 0.310059H0.633305C0.284015 0.310059 0 0.579899 0 0.913232C0 1.24657 0.284015 1.51641 0.633305 1.51641H3.65261C3.93871 1.51641 4.19078 1.70027 4.26439 1.9635L7.57535 13.7333C7.64966 13.9972 7.90034 14.1804 8.18713 14.1804H19.3832C19.7331 14.1804 20.0165 13.9099 20.0165 13.5772C20.0165 13.2446 19.7331 12.9741 19.3832 12.9741H8.67461L8.32393 11.7287H16.961C17.6916 11.7287 18.336 11.2849 18.5651 10.6242Z" fill="#2E2E2B"/>
    <path d="M9.5565 14.5038C8.40933 14.5038 7.47534 15.3927 7.47534 16.486C7.47534 17.5792 8.40863 18.4681 9.5565 18.4681C10.7044 18.4681 11.6377 17.5792 11.6377 16.486C11.6377 15.3927 10.7044 14.5038 9.5565 14.5038ZM9.5565 17.2611C9.10791 17.2611 8.74265 16.9132 8.74265 16.486C8.74265 16.0587 9.10791 15.7108 9.5565 15.7108C10.0051 15.7108 10.3704 16.0587 10.3704 16.486C10.3704 16.9132 10.0051 17.2611 9.5565 17.2611Z" fill="#2E2E2B"/>
    <path d="M17.4493 14.5038C16.3021 14.5038 15.3682 15.3927 15.3682 16.486C15.3682 17.5792 16.3015 18.4681 17.4493 18.4681C18.5972 18.4681 19.5305 17.5792 19.5305 16.486C19.5305 15.3927 18.5972 14.5038 17.4493 14.5038ZM17.4493 17.2611C17.0007 17.2611 16.6355 16.9132 16.6355 16.486C16.6355 16.0587 17.0007 15.7108 17.4493 15.7108C17.8979 15.7108 18.2632 16.0587 18.2632 16.486C18.2632 16.9132 17.8979 17.2611 17.4493 17.2611Z" fill="#2E2E2B"/>
    <path d="M17.404 5.65349C17.404 5.32041 17.1207 5.05078 16.7707 5.05078H9.094C8.74401 5.05078 8.46069 5.32107 8.46069 5.65349C8.46069 5.9859 8.74471 6.2562 9.094 6.2562H16.7707C17.1207 6.2562 17.404 5.9859 17.404 5.65349Z" fill="#2E2E2B"/>
    <path d="M9.83912 7.66519C9.48913 7.66519 9.20581 7.93548 9.20581 8.2679C9.20581 8.60031 9.48983 8.87061 9.83912 8.87061H15.7097C16.0597 8.87061 16.343 8.60031 16.343 8.2679C16.343 7.93548 16.0597 7.66519 15.7097 7.66519H9.83912Z" fill="#2E2E2B"/>
</svg>
