<svg width="81" height="81" viewBox="0 0 81 81" fill="none"
    xmlns="http://www.w3.org/2000/svg">
    <circle cx="40.5" cy="40.5" r="40.5" fill="#023E8A"/>
    <path d="M58.9341 56.3787C60.522 54.7952 60.3073 52.1582 58.484 50.8156L52.1783 46.1833C50.712 45.1046 48.6882 45.2535 47.4113 46.526L46.3315 47.6058C46.2078 47.7295 46.0775 47.8423 45.9417 47.9442C45.4259 48.46 44.6538 48.6243 43.9716 48.3647C38.4883 46.284 34.7058 42.4938 32.6131 37.0051C32.3524 36.3218 32.5156 35.5497 33.0336 35.0328L33.2482 34.8182C33.2942 34.7667 33.3413 34.7163 33.3906 34.6671L34.4693 33.5884C35.7462 32.3115 35.8918 30.2888 34.8164 28.8213L30.1808 22.5135C28.8426 20.6934 26.2034 20.4799 24.6188 22.0634L23.5017 23.1804C22.227 24.4562 21.3882 26.0978 21.1133 27.8719C21.075 28.115 21.0487 28.3614 21.0323 28.6089C20.7508 32.9499 22.3157 37.6063 25.5244 42.5442C25.6328 42.7106 25.7423 42.8771 25.854 43.0447C29.054 47.8248 33.1771 51.9479 37.9572 55.1478C38.1149 55.253 38.2715 55.357 38.4292 55.4588C43.3769 58.6774 48.0443 60.2511 52.393 59.9674C52.6394 59.9521 52.8858 59.9247 53.1278 59.8875C54.9019 59.6137 56.5456 58.7727 57.8171 57.5012L58.9341 56.3798V56.3787Z" fill="white"/>
    <path d="M59.9962 39.5793C59.6402 34.7719 57.5667 30.2484 54.1595 26.8402C50.7523 23.4341 46.2288 21.3606 41.4202 21.0035C40.6921 20.9508 40.0576 21.495 40.0038 22.2242C39.9489 22.9523 40.4964 23.5868 41.2245 23.6406C45.4017 23.9514 49.3305 25.7518 52.2892 28.7104C55.249 31.6702 57.0494 35.6 57.3591 39.775C57.4107 40.4698 57.9904 41 58.6766 41C58.7099 41 58.7422 40.9989 58.7755 40.9968C59.5036 40.943 60.0511 40.3085 59.9962 39.5804V39.5793Z" fill="white"/>
    <path d="M49.2187 32.7796C47.1282 30.688 44.4748 29.386 41.5467 29.0119C40.7952 28.9125 40.1061 29.4474 40.0112 30.2C39.9152 30.9527 40.4467 31.6394 41.1994 31.7355C43.5189 32.0325 45.6206 33.0643 47.2778 34.7215C48.935 36.3786 49.9669 38.4802 50.264 40.8007C50.3522 41.4941 50.9429 42 51.6241 42C51.6822 42 51.7414 41.9967 51.8006 41.9888C52.5533 41.8928 53.0848 41.2049 52.9888 40.4523C52.6147 37.5232 51.3115 34.8711 49.2198 32.7807L49.2187 32.7796Z" fill="white"/>
</svg>
