<svg width="81" height="81" viewBox="0 0 81 81" fill="none"
    xmlns="http://www.w3.org/2000/svg">
    <circle cx="40.5" cy="40.5" r="40.5" fill="url(#paint0_radial_2055_5)"/>
    <path d="M29 50.9994H24.3286C22.3815 48.1257 21.1779 44.6963 21 41H27.1946C27.2893 44.5741 27.9116 47.9926 29 51V50.9994Z" fill="#023E8A"/>
    <path d="M34 57.9994C30.903 56.9241 28.1658 55.1943 26 53H30.2663C30.6144 53.6743 30.993 54.3195 31.4013 54.9333C32.1901 56.119 33.0624 57.145 34 58V57.9994Z" fill="#023E8A"/>
    <path d="M55.9994 53C53.8332 55.1948 51.0958 56.9247 48 58C48.9375 57.145 49.8096 56.119 50.5989 54.9333C51.0072 54.3195 51.3857 53.6743 51.7338 53H56H55.9994Z" fill="#023E8A"/>
    <path d="M60 41C59.8221 44.6963 58.6184 48.1257 56.6718 51H52C53.0879 47.9932 53.7108 44.5747 53.8049 41H60Z" fill="#023E8A"/>
    <path d="M60 39H53.8049C53.7102 35.4259 53.0879 32.0074 52 29H56.6718C58.6184 31.8743 59.8221 35.3031 60 39Z" fill="#023E8A"/>
    <path d="M56 27H51.7338C51.3857 26.3257 51.0072 25.6805 50.5989 25.0667C49.8103 23.881 48.9381 22.855 48 22C51.0965 23.0753 53.8332 24.8057 55.9994 27H56Z" fill="#023E8A"/>
    <path d="M29 29C27.9122 32.0068 27.2893 35.4253 27.1946 39H21C21.1779 35.3037 22.3815 31.8743 24.3286 29H29Z" fill="#023E8A"/>
    <path d="M34 22C33.0624 22.855 32.1901 23.881 31.4013 25.0667C30.993 25.6805 30.6144 26.3257 30.2663 27H26C28.1658 24.8052 30.903 23.0759 34 22.0006V22Z" fill="#023E8A"/>
    <path d="M51 41C50.9006 44.6181 50.239 48.0518 49.0867 51H41V41H51Z" fill="#023E8A"/>
    <path d="M39 41V51H30.9133C29.761 48.0524 29.0994 44.6187 29 41H39Z" fill="#023E8A"/>
    <path d="M39 53V60C36.5933 59.5884 34.3306 57.5416 32.5503 54.1319C32.359 53.7652 32.1757 53.3879 32 53H38.9994H39Z" fill="#023E8A"/>
    <path d="M48 53C47.8248 53.3879 47.641 53.7652 47.4497 54.1319C45.6694 57.5416 43.4067 59.5891 41 60V53H47.9994H48Z" fill="#023E8A"/>
    <path d="M39 21V28H32C32.1752 27.6121 32.359 27.2348 32.5503 26.8681C34.3303 23.4584 36.5931 21.4116 39 21Z" fill="#023E8A"/>
    <path d="M47.9994 28H41V21C43.4067 21.4116 45.6694 23.4584 47.4497 26.8681C47.641 27.2348 47.8243 27.6121 48 28H47.9994Z" fill="#023E8A"/>
    <path d="M51 39H41V29H49.0867C50.239 31.9476 50.9006 35.3813 51 39Z" fill="#023E8A"/>
    <path d="M39 29V39H29C29.0994 35.3819 29.761 31.9482 30.9133 29H39Z" fill="#023E8A"/>
    <defs>
        <radialGradient id="paint0_radial_2055_5" cx="0" cy="0" r="1" gradientUnits="userSpaceOnUse" gradientTransform="translate(40.5 40.5) rotate(90) scale(40.5)">
            <stop offset="0.411458" stop-color="#EADFD1" stop-opacity="0"/>
            <stop offset="1" stop-color="#023E8A" stop-opacity="0.2"/>
        </radialGradient>
    </defs>
</svg>
