<svg width="81" height="81" viewBox="0 0 81 81" fill="none"
    xmlns="http://www.w3.org/2000/svg">
    <circle cx="40.5" cy="40.5" r="40.5" fill="url(#paint0_radial_2055_3)"/>
    <path d="M53.9657 34.0356C53.5051 26.9467 47.1168 21 39.9905 21H39.8875C36.1918 21.0308 32.7182 22.4999 30.1047 25.141C27.4569 27.811 26 31.3531 26 35.1143C26 47.1509 38.6728 59.1818 39.2115 59.6875C39.4336 59.8962 39.7178 60 40.001 60C40.2841 60 40.5673 59.8962 40.7885 59.6875C41.3416 59.1664 54 47.149 54 35.1191C54 34.7567 53.9895 34.3961 53.9657 34.0365V34.0356ZM40.001 41.46C36.5293 41.46 33.7051 38.6122 33.7051 35.1115C33.7051 31.6108 36.5293 28.7629 40.001 28.7629C43.4726 28.7629 46.2949 31.6108 46.2949 35.1115C46.2949 38.6122 43.4707 41.46 40.001 41.46Z" fill="#023E8A"/>
    <defs>
        <radialGradient id="paint0_radial_2055_3" cx="0" cy="0" r="1" gradientUnits="userSpaceOnUse" gradientTransform="translate(40.5 40.5) rotate(90) scale(40.5)">
            <stop offset="0.411458" stop-color="#EADFD1" stop-opacity="0"/>
            <stop offset="1" stop-color="#023E8A" stop-opacity="0.2"/>
        </radialGradient>
    </defs>
</svg>
