<svg width="81" height="81" viewBox="0 0 81 81" fill="none"
    xmlns="http://www.w3.org/2000/svg">
    <circle cx="40.5" cy="40.5" r="40.5" fill="url(#paint0_radial_2055_6)"/>
    <path d="M36.0045 38.8942C36.0048 38.8942 36.0051 38.8943 36.0054 38.8945L36.0306 38.9176C36.0313 38.9183 36.0317 38.9185 36.0326 38.9188C36.0336 38.9193 36.0342 38.9211 36.035 38.9218L37.491 40.2502C39.1982 41.8078 41.8112 41.8072 43.5178 40.2489L44.9089 38.9786L45.0742 38.8281L57.7621 27.2436C57.859 27.1552 57.8106 27 57.6794 27H23.3206C23.1894 27 23.141 27.1551 23.2379 27.2436L35.9955 38.8856C35.9959 38.8859 35.9963 38.8863 35.9966 38.8866C35.9979 38.8879 36.0013 38.8914 36.0037 38.8939C36.0039 38.8941 36.0042 38.8942 36.0045 38.8942Z" fill="#023E8A"/>
    <path d="M21.228 29.1891C21.139 29.1088 21 29.1615 21 29.2813V51.6948C21 51.8197 21.1486 51.8707 21.2362 51.7817L28.975 43.9114C31.1697 41.6794 31.0624 38.0686 28.7391 35.9709L21.228 29.1891Z" fill="#023E8A"/>
    <path d="M41.3217 45.183C41.3211 45.1833 41.3205 45.1838 41.3199 45.1843C41.0863 45.4032 40.7954 45.5132 40.5035 45.5132C40.2112 45.5132 39.919 45.403 39.6862 45.1835L36.6969 42.3695C35.8933 41.6129 34.6286 41.6504 33.8712 42.4533L23.2095 53.7548C23.1206 53.849 23.1746 54 23.3041 54H57.6969C57.826 54 57.8797 53.8483 57.7911 53.7544L47.1328 42.4565C46.3754 41.6536 45.1107 41.6161 44.307 42.3728L41.3235 45.1817C41.323 45.1822 41.3224 45.1826 41.3217 45.183Z" fill="#023E8A"/>
    <path d="M59.9807 29C59.981 29 59.9811 29.0003 59.9809 29.0005L51.4322 36.7212C49.5607 38.4114 49.4747 41.3204 51.2429 43.1182L59.7638 51.7817C59.8519 51.8713 60 51.8205 60 51.6948V29.2813C60 29.186 59.9932 29.0927 59.9805 29.0003C59.9805 29.0001 59.9806 29 59.9807 29Z" fill="#023E8A"/>
    <defs>
        <radialGradient id="paint0_radial_2055_6" cx="0" cy="0" r="1" gradientUnits="userSpaceOnUse" gradientTransform="translate(40.5 40.5) rotate(90) scale(40.5)">
            <stop offset="0.411458" stop-color="#EADFD1" stop-opacity="0"/>
            <stop offset="1" stop-color="#023E8A" stop-opacity="0.2"/>
        </radialGradient>
    </defs>
</svg>
