<svg width="304" height="115" viewBox="0 0 304 115" fill="none"
    xmlns="http://www.w3.org/2000/svg">
    <path d="M78.7865 112.963C78.7865 114.089 79.6636 115 80.7487 115C81.8339 115 82.7109 114.089 82.7109 112.963C82.7109 111.837 81.8339 110.926 80.7487 110.926C79.6636 110.926 78.7865 111.837 78.7865 112.963Z" fill="#00A6FB"/>
    <path d="M78.7861 94.4923C78.7861 95.6172 79.6647 96.5291 80.7484 96.5291C81.8321 96.5291 82.7106 95.6172 82.7106 94.4923C82.7106 93.3673 81.8321 92.4554 80.7484 92.4554C79.6647 92.4554 78.7861 93.3673 78.7861 94.4923Z" fill="#00A6FB"/>
    <path d="M78.7865 76.0295C78.7865 77.1544 79.665 78.0664 80.7487 78.0664C81.8324 78.0664 82.7109 77.1544 82.7109 76.0295C82.7109 74.9046 81.8324 73.9926 80.7487 73.9926C79.665 73.9926 78.7865 74.9046 78.7865 76.0295Z" fill="#00A6FB"/>
    <path d="M78.7865 57.5585C78.7865 58.685 79.6636 59.5954 80.7487 59.5954C81.8339 59.5954 82.7109 58.685 82.7109 57.5585C82.7109 56.4321 81.8339 55.5217 80.7487 55.5217C79.6636 55.5217 78.7865 56.4321 78.7865 57.5585Z" fill="#00A6FB"/>
    <path d="M78.7865 39.0954C78.7865 40.2219 79.6636 41.1323 80.7487 41.1323C81.8339 41.1323 82.7109 40.2219 82.7109 39.0954C82.7109 37.969 81.8339 37.0585 80.7487 37.0585C79.6636 37.0585 78.7865 37.969 78.7865 39.0954Z" fill="#00A6FB"/>
    <path d="M78.786 20.6323C78.786 21.7573 79.6645 22.6692 80.7482 22.6692C81.8319 22.6692 82.7104 21.7573 82.7104 20.6323C82.7104 19.5074 81.8319 18.5955 80.7482 18.5955C79.6645 18.5955 78.786 19.5074 78.786 20.6323Z" fill="#00A6FB"/>
    <path d="M78.7865 2.16169C78.7865 3.28663 79.665 4.19857 80.7487 4.19857C81.8324 4.19857 82.7109 3.28663 82.7109 2.16169C82.7109 1.03676 81.8324 0.124817 80.7487 0.124817C79.665 0.124817 78.7865 1.03676 78.7865 2.16169Z" fill="#00A6FB"/>
    <path d="M94.6996 112.963C94.6996 114.089 95.5766 115 96.6618 115C97.747 115 98.624 114.089 98.624 112.963C98.624 111.837 97.747 110.926 96.6618 110.926C95.5766 110.926 94.6996 111.837 94.6996 112.963Z" fill="#00A6FB"/>
    <path d="M94.6996 94.4923C94.6996 95.6172 95.5781 96.5291 96.6618 96.5291C97.7455 96.5291 98.624 95.6172 98.624 94.4923C98.624 93.3673 97.7455 92.4554 96.6618 92.4554C95.5781 92.4554 94.6996 93.3673 94.6996 94.4923Z" fill="#00A6FB"/>
    <path d="M94.6996 76.0295C94.6996 77.1544 95.5781 78.0664 96.6618 78.0664C97.7455 78.0664 98.624 77.1544 98.624 76.0295C98.624 74.9046 97.7455 73.9926 96.6618 73.9926C95.5781 73.9926 94.6996 74.9046 94.6996 76.0295Z" fill="#00A6FB"/>
    <path d="M94.6996 57.5585C94.6996 58.685 95.5766 59.5954 96.6618 59.5954C97.747 59.5954 98.624 58.685 98.624 57.5585C98.624 56.4321 97.747 55.5217 96.6618 55.5217C95.5766 55.5217 94.6996 56.4321 94.6996 57.5585Z" fill="#00A6FB"/>
    <path d="M94.6996 39.0954C94.6996 40.2219 95.5766 41.1323 96.6618 41.1323C97.747 41.1323 98.624 40.2219 98.624 39.0954C98.624 37.969 97.747 37.0585 96.6618 37.0585C95.5766 37.0585 94.6996 37.969 94.6996 39.0954Z" fill="#00A6FB"/>
    <path d="M94.6996 20.6323C94.6996 21.7573 95.5781 22.6692 96.6618 22.6692C97.7455 22.6692 98.624 21.7573 98.624 20.6323C98.624 19.5074 97.7455 18.5955 96.6618 18.5955C95.5781 18.5955 94.6996 19.5074 94.6996 20.6323Z" fill="#00A6FB"/>
    <path d="M94.6995 2.16169C94.6995 3.28663 95.578 4.19857 96.6617 4.19857C97.7454 4.19857 98.6239 3.28663 98.6239 2.16169C98.6239 1.03676 97.7454 0.124817 96.6617 0.124817C95.578 0.124817 94.6995 1.03676 94.6995 2.16169Z" fill="#00A6FB"/>
    <path d="M110.605 112.963C110.605 114.089 111.482 115 112.567 115C113.652 115 114.529 114.089 114.529 112.963C114.529 111.837 113.652 110.926 112.567 110.926C111.482 110.926 110.605 111.837 110.605 112.963Z" fill="#00A6FB"/>
    <path d="M110.605 94.4923C110.605 95.6172 111.484 96.5291 112.567 96.5291C113.651 96.5291 114.529 95.6172 114.529 94.4923C114.529 93.3673 113.651 92.4554 112.567 92.4554C111.484 92.4554 110.605 93.3673 110.605 94.4923Z" fill="#00A6FB"/>
    <path d="M110.605 76.0295C110.605 77.1544 111.484 78.0664 112.567 78.0664C113.651 78.0664 114.529 77.1544 114.529 76.0295C114.529 74.9046 113.651 73.9926 112.567 73.9926C111.484 73.9926 110.605 74.9046 110.605 76.0295Z" fill="#00A6FB"/>
    <path d="M110.605 57.5585C110.605 58.685 111.482 59.5954 112.567 59.5954C113.652 59.5954 114.529 58.685 114.529 57.5585C114.529 56.4321 113.652 55.5217 112.567 55.5217C111.482 55.5217 110.605 56.4321 110.605 57.5585Z" fill="#00A6FB"/>
    <path d="M110.605 39.0954C110.605 40.2219 111.482 41.1323 112.567 41.1323C113.652 41.1323 114.529 40.2219 114.529 39.0954C114.529 37.969 113.652 37.0585 112.567 37.0585C111.482 37.0585 110.605 37.969 110.605 39.0954Z" fill="#00A6FB"/>
    <path d="M110.605 20.6323C110.605 21.7573 111.484 22.6692 112.567 22.6692C113.651 22.6692 114.529 21.7573 114.529 20.6323C114.529 19.5074 113.651 18.5955 112.567 18.5955C111.484 18.5955 110.605 19.5074 110.605 20.6323Z" fill="#00A6FB"/>
    <path d="M110.605 2.16169C110.605 3.28663 111.484 4.19857 112.567 4.19857C113.651 4.19857 114.529 3.28663 114.529 2.16169C114.529 1.03676 113.651 0.124817 112.567 0.124817C111.484 0.124817 110.605 1.03676 110.605 2.16169Z" fill="#00A6FB"/>
    <path d="M126.518 112.963C126.518 114.089 127.395 115 128.481 115C129.566 115 130.443 114.089 130.443 112.963C130.443 111.837 129.566 110.926 128.481 110.926C127.395 110.926 126.518 111.837 126.518 112.963Z" fill="#00A6FB"/>
    <path d="M126.518 94.4921C126.518 95.6171 127.397 96.529 128.481 96.529C129.564 96.529 130.443 95.6171 130.443 94.4921C130.443 93.3672 129.564 92.4553 128.481 92.4553C127.397 92.4553 126.518 93.3672 126.518 94.4921Z" fill="#00A6FB"/>
    <path d="M126.518 76.0295C126.518 77.1544 127.397 78.0664 128.481 78.0664C129.564 78.0664 130.443 77.1544 130.443 76.0295C130.443 74.9046 129.564 73.9926 128.481 73.9926C127.397 73.9926 126.518 74.9046 126.518 76.0295Z" fill="#00A6FB"/>
    <path d="M126.518 57.5585C126.518 58.685 127.395 59.5954 128.481 59.5954C129.566 59.5954 130.443 58.685 130.443 57.5585C130.443 56.4321 129.566 55.5217 128.481 55.5217C127.395 55.5217 126.518 56.4321 126.518 57.5585Z" fill="#00A6FB"/>
    <path d="M126.518 39.0954C126.518 40.2219 127.395 41.1323 128.481 41.1323C129.566 41.1323 130.443 40.2219 130.443 39.0954C130.443 37.969 129.566 37.0585 128.481 37.0585C127.395 37.0585 126.518 37.969 126.518 39.0954Z" fill="#00A6FB"/>
    <path d="M126.518 20.6323C126.518 21.7573 127.397 22.6692 128.481 22.6692C129.564 22.6692 130.443 21.7573 130.443 20.6323C130.443 19.5074 129.564 18.5955 128.481 18.5955C127.397 18.5955 126.518 19.5074 126.518 20.6323Z" fill="#00A6FB"/>
    <path d="M126.518 2.16169C126.518 3.28663 127.397 4.19857 128.481 4.19857C129.564 4.19857 130.443 3.28663 130.443 2.16169C130.443 1.03676 129.564 0.124817 128.481 0.124817C127.397 0.124817 126.518 1.03676 126.518 2.16169Z" fill="#00A6FB"/>
    <path d="M142.424 112.963C142.424 114.089 143.301 115 144.387 115C145.472 115 146.349 114.089 146.349 112.963C146.349 111.837 145.472 110.926 144.387 110.926C143.301 110.926 142.424 111.837 142.424 112.963Z" fill="#00A6FB"/>
    <path d="M142.432 94.4923C142.432 95.6172 143.31 96.5291 144.394 96.5291C145.477 96.5291 146.356 95.6172 146.356 94.4923C146.356 93.3673 145.477 92.4554 144.394 92.4554C143.31 92.4554 142.432 93.3673 142.432 94.4923Z" fill="#00A6FB"/>
    <path d="M142.432 76.0296C142.432 77.1545 143.31 78.0664 144.394 78.0664C145.477 78.0664 146.356 77.1545 146.356 76.0296C146.356 74.9046 145.477 73.9927 144.394 73.9927C143.31 73.9927 142.432 74.9046 142.432 76.0296Z" fill="#00A6FB"/>
    <path d="M142.424 57.5585C142.424 58.685 143.301 59.5954 144.387 59.5954C145.472 59.5954 146.349 58.685 146.349 57.5585C146.349 56.4321 145.472 55.5217 144.387 55.5217C143.301 55.5217 142.424 56.4321 142.424 57.5585Z" fill="#00A6FB"/>
    <path d="M142.424 39.0954C142.424 40.2219 143.301 41.1323 144.387 41.1323C145.472 41.1323 146.349 40.2219 146.349 39.0954C146.349 37.969 145.472 37.0585 144.387 37.0585C143.301 37.0585 142.424 37.969 142.424 39.0954Z" fill="#00A6FB"/>
    <path d="M142.432 20.6323C142.432 21.7573 143.31 22.6692 144.394 22.6692C145.477 22.6692 146.356 21.7573 146.356 20.6323C146.356 19.5074 145.477 18.5955 144.394 18.5955C143.31 18.5955 142.432 19.5074 142.432 20.6323Z" fill="#00A6FB"/>
    <path d="M142.432 2.16176C142.432 3.28669 143.31 4.19863 144.394 4.19863C145.477 4.19863 146.356 3.28669 146.356 2.16176C146.356 1.03682 145.477 0.124878 144.394 0.124878C143.31 0.124878 142.432 1.03682 142.432 2.16176Z" fill="#00A6FB"/>
    <path d="M0.000368744 112.963C0.000368694 114.089 0.877425 115 1.96259 115C3.04775 115 3.9248 114.089 3.9248 112.963C3.9248 111.837 3.04775 110.926 1.96259 110.926C0.877425 110.926 0.000368793 111.837 0.000368744 112.963Z" fill="#00A6FB"/>
    <path d="M0.000368744 94.4921C0.000368694 95.6171 0.878887 96.529 1.96259 96.529C3.04629 96.529 3.9248 95.6171 3.9248 94.4921C3.9248 93.3672 3.04629 92.4553 1.96259 92.4553C0.878888 92.4553 0.000368793 93.3672 0.000368744 94.4921Z" fill="#00A6FB"/>
    <path d="M0.000368744 76.0294C0.000368694 77.1544 0.878887 78.0663 1.96259 78.0663C3.04629 78.0663 3.9248 77.1544 3.9248 76.0294C3.9248 74.9045 3.04629 73.9926 1.96259 73.9926C0.878888 73.9926 0.000368793 74.9045 0.000368744 76.0294Z" fill="#00A6FB"/>
    <path d="M0.000368744 57.5585C0.000368694 58.6849 0.877425 59.5954 1.96259 59.5954C3.04775 59.5954 3.9248 58.6849 3.9248 57.5585C3.9248 56.432 3.04775 55.5216 1.96259 55.5216C0.877425 55.5216 0.000368793 56.432 0.000368744 57.5585Z" fill="#00A6FB"/>
    <path d="M0.000246673 39.0953C0.000246624 40.2218 0.877302 41.1322 1.96247 41.1322C3.04763 41.1322 3.92468 40.2218 3.92468 39.0953C3.92468 37.9689 3.04763 37.0585 1.96247 37.0585C0.877303 37.0585 0.000246723 37.9689 0.000246673 39.0953Z" fill="#00A6FB"/>
    <path d="M0.000246673 20.6323C0.000246624 21.7572 0.878765 22.6692 1.96247 22.6692C3.04617 22.6692 3.92468 21.7572 3.92468 20.6323C3.92468 19.5073 3.04617 18.5954 1.96247 18.5954C0.878766 18.5954 0.000246723 19.5073 0.000246673 20.6323Z" fill="#00A6FB"/>
    <path d="M0.000246674 2.16169C0.000246625 3.28663 0.878765 4.19857 1.96247 4.19857C3.04617 4.19857 3.92468 3.28663 3.92468 2.16169C3.92468 1.03676 3.04617 0.124817 1.96247 0.124817C0.878766 0.124817 0.000246723 1.03676 0.000246674 2.16169Z" fill="#00A6FB"/>
    <path d="M15.9133 112.963C15.9133 114.089 16.7904 115 17.8756 115C18.9607 115 19.8378 114.089 19.8378 112.963C19.8378 111.837 18.9607 110.926 17.8756 110.926C16.7904 110.926 15.9133 111.837 15.9133 112.963Z" fill="#00A6FB"/>
    <path d="M15.9133 94.4921C15.9133 95.6171 16.7919 96.529 17.8756 96.529C18.9593 96.529 19.8378 95.6171 19.8378 94.4921C19.8378 93.3672 18.9593 92.4553 17.8756 92.4553C16.7919 92.4553 15.9133 93.3672 15.9133 94.4921Z" fill="#00A6FB"/>
    <path d="M15.9133 76.0294C15.9133 77.1544 16.7919 78.0663 17.8756 78.0663C18.9593 78.0663 19.8378 77.1544 19.8378 76.0294C19.8378 74.9045 18.9593 73.9926 17.8756 73.9926C16.7919 73.9926 15.9133 74.9045 15.9133 76.0294Z" fill="#00A6FB"/>
    <path d="M15.9133 57.5585C15.9133 58.6849 16.7904 59.5954 17.8756 59.5954C18.9607 59.5954 19.8378 58.6849 19.8378 57.5585C19.8378 56.432 18.9607 55.5216 17.8756 55.5216C16.7904 55.5216 15.9133 56.432 15.9133 57.5585Z" fill="#00A6FB"/>
    <path d="M15.9133 39.0953C15.9133 40.2218 16.7904 41.1322 17.8756 41.1322C18.9607 41.1322 19.8378 40.2218 19.8378 39.0953C19.8378 37.9689 18.9607 37.0585 17.8756 37.0585C16.7904 37.0585 15.9133 37.9689 15.9133 39.0953Z" fill="#00A6FB"/>
    <path d="M15.9133 20.6323C15.9133 21.7572 16.7919 22.6692 17.8756 22.6692C18.9593 22.6692 19.8378 21.7572 19.8378 20.6323C19.8378 19.5073 18.9593 18.5954 17.8756 18.5954C16.7919 18.5954 15.9133 19.5073 15.9133 20.6323Z" fill="#00A6FB"/>
    <path d="M15.9133 2.16169C15.9133 3.28663 16.7919 4.19857 17.8756 4.19857C18.9593 4.19857 19.8378 3.28663 19.8378 2.16169C19.8378 1.03676 18.9593 0.124817 17.8756 0.124817C16.7919 0.124817 15.9133 1.03676 15.9133 2.16169Z" fill="#00A6FB"/>
    <path d="M31.8192 112.963C31.8192 114.089 32.6963 115 33.7814 115C34.8666 115 35.7437 114.089 35.7437 112.963C35.7437 111.837 34.8666 110.926 33.7814 110.926C32.6963 110.926 31.8192 111.837 31.8192 112.963Z" fill="#00A6FB"/>
    <path d="M31.8192 94.4921C31.8192 95.6171 32.6977 96.529 33.7814 96.529C34.8651 96.529 35.7437 95.6171 35.7437 94.4921C35.7437 93.3672 34.8651 92.4553 33.7814 92.4553C32.6977 92.4553 31.8192 93.3672 31.8192 94.4921Z" fill="#00A6FB"/>
    <path d="M31.8192 76.0294C31.8192 77.1544 32.6977 78.0663 33.7814 78.0663C34.8651 78.0663 35.7437 77.1544 35.7437 76.0294C35.7437 74.9045 34.8651 73.9926 33.7814 73.9926C32.6977 73.9926 31.8192 74.9045 31.8192 76.0294Z" fill="#00A6FB"/>
    <path d="M31.8192 57.5585C31.8192 58.6849 32.6963 59.5954 33.7814 59.5954C34.8666 59.5954 35.7437 58.6849 35.7437 57.5585C35.7437 56.432 34.8666 55.5216 33.7814 55.5216C32.6963 55.5216 31.8192 56.432 31.8192 57.5585Z" fill="#00A6FB"/>
    <path d="M31.8192 39.0953C31.8192 40.2218 32.6963 41.1322 33.7814 41.1322C34.8666 41.1322 35.7437 40.2218 35.7437 39.0953C35.7437 37.9689 34.8666 37.0585 33.7814 37.0585C32.6963 37.0585 31.8192 37.9689 31.8192 39.0953Z" fill="#00A6FB"/>
    <path d="M31.8192 20.6323C31.8192 21.7572 32.6977 22.6692 33.7814 22.6692C34.8651 22.6692 35.7437 21.7572 35.7437 20.6323C35.7437 19.5073 34.8651 18.5954 33.7814 18.5954C32.6977 18.5954 31.8192 19.5073 31.8192 20.6323Z" fill="#00A6FB"/>
    <path d="M31.8191 2.16169C31.8191 3.28663 32.6976 4.19857 33.7813 4.19857C34.865 4.19857 35.7435 3.28663 35.7435 2.16169C35.7435 1.03676 34.865 0.124817 33.7813 0.124817C32.6976 0.124817 31.8191 1.03676 31.8191 2.16169Z" fill="#00A6FB"/>
    <path d="M47.7328 112.963C47.7328 114.089 48.6098 115 49.695 115C50.7802 115 51.6572 114.089 51.6572 112.963C51.6572 111.837 50.7802 110.926 49.695 110.926C48.6098 110.926 47.7328 111.837 47.7328 112.963Z" fill="#00A6FB"/>
    <path d="M47.7328 94.4921C47.7328 95.617 48.6113 96.529 49.695 96.529C50.7787 96.529 51.6572 95.617 51.6572 94.4921C51.6572 93.3671 50.7787 92.4552 49.695 92.4552C48.6113 92.4552 47.7328 93.3671 47.7328 94.4921Z" fill="#00A6FB"/>
    <path d="M47.7327 76.0294C47.7327 77.1544 48.6112 78.0663 49.6949 78.0663C50.7786 78.0663 51.6571 77.1544 51.6571 76.0294C51.6571 74.9045 50.7786 73.9926 49.6949 73.9926C48.6112 73.9926 47.7327 74.9045 47.7327 76.0294Z" fill="#00A6FB"/>
    <path d="M47.7328 57.5585C47.7328 58.6849 48.6098 59.5954 49.695 59.5954C50.7802 59.5954 51.6572 58.6849 51.6572 57.5585C51.6572 56.432 50.7802 55.5216 49.695 55.5216C48.6098 55.5216 47.7328 56.432 47.7328 57.5585Z" fill="#00A6FB"/>
    <path d="M47.7327 39.0953C47.7327 40.2218 48.6097 41.1322 49.6949 41.1322C50.7801 41.1322 51.6571 40.2218 51.6571 39.0953C51.6571 37.9689 50.7801 37.0585 49.6949 37.0585C48.6097 37.0585 47.7327 37.9689 47.7327 39.0953Z" fill="#00A6FB"/>
    <path d="M47.7328 20.6323C47.7328 21.7572 48.6113 22.6692 49.695 22.6692C50.7787 22.6692 51.6572 21.7572 51.6572 20.6323C51.6572 19.5073 50.7787 18.5954 49.695 18.5954C48.6113 18.5954 47.7328 19.5073 47.7328 20.6323Z" fill="#00A6FB"/>
    <path d="M47.7329 2.16169C47.7329 3.28663 48.6114 4.19857 49.6951 4.19857C50.7788 4.19857 51.6573 3.28663 51.6573 2.16169C51.6573 1.03676 50.7788 0.124817 49.6951 0.124817C48.6114 0.124817 47.7329 1.03676 47.7329 2.16169Z" fill="#00A6FB"/>
    <path d="M63.6387 112.963C63.6387 114.089 64.5157 115 65.6009 115C66.6861 115 67.5631 114.089 67.5631 112.963C67.5631 111.837 66.6861 110.926 65.6009 110.926C64.5157 110.926 63.6387 111.837 63.6387 112.963Z" fill="#00A6FB"/>
    <path d="M63.6458 94.4922C63.6458 95.6171 64.5243 96.5291 65.608 96.5291C66.6917 96.5291 67.5702 95.6171 67.5702 94.4922C67.5702 93.3673 66.6917 92.4553 65.608 92.4553C64.5243 92.4553 63.6458 93.3673 63.6458 94.4922Z" fill="#00A6FB"/>
    <path d="M63.6458 76.0294C63.6458 77.1544 64.5243 78.0663 65.608 78.0663C66.6917 78.0663 67.5702 77.1544 67.5702 76.0294C67.5702 74.9045 66.6917 73.9926 65.608 73.9926C64.5243 73.9926 63.6458 74.9045 63.6458 76.0294Z" fill="#00A6FB"/>
    <path d="M63.6386 57.5585C63.6386 58.6849 64.5156 59.5954 65.6008 59.5954C66.6859 59.5954 67.563 58.6849 67.563 57.5585C67.563 56.432 66.6859 55.5216 65.6008 55.5216C64.5156 55.5216 63.6386 56.432 63.6386 57.5585Z" fill="#00A6FB"/>
    <path d="M63.6386 39.0953C63.6386 40.2218 64.5156 41.1322 65.6008 41.1322C66.6859 41.1322 67.563 40.2218 67.563 39.0953C67.563 37.9689 66.6859 37.0585 65.6008 37.0585C64.5156 37.0585 63.6386 37.9689 63.6386 39.0953Z" fill="#00A6FB"/>
    <path d="M63.6458 20.6323C63.6458 21.7572 64.5243 22.6692 65.608 22.6692C66.6917 22.6692 67.5702 21.7572 67.5702 20.6323C67.5702 19.5073 66.6917 18.5954 65.608 18.5954C64.5243 18.5954 63.6458 19.5073 63.6458 20.6323Z" fill="#00A6FB"/>
    <path d="M63.6458 2.16169C63.6458 3.28663 64.5243 4.19857 65.608 4.19857C66.6917 4.19857 67.5702 3.28663 67.5702 2.16169C67.5702 1.03676 66.6917 0.124817 65.608 0.124817C64.5243 0.124817 63.6458 1.03676 63.6458 2.16169Z" fill="#00A6FB"/>
    <path d="M236.43 112.963C236.43 114.089 237.307 115 238.392 115C239.478 115 240.355 114.089 240.355 112.963C240.355 111.837 239.478 110.926 238.392 110.926C237.307 110.926 236.43 111.837 236.43 112.963Z" fill="#00A6FB"/>
    <path d="M236.43 94.4923C236.43 95.6172 237.309 96.5291 238.392 96.5291C239.476 96.5291 240.355 95.6172 240.355 94.4923C240.355 93.3673 239.476 92.4554 238.392 92.4554C237.309 92.4554 236.43 93.3673 236.43 94.4923Z" fill="#00A6FB"/>
    <path d="M236.43 76.0295C236.43 77.1544 237.309 78.0664 238.392 78.0664C239.476 78.0664 240.355 77.1544 240.355 76.0295C240.355 74.9046 239.476 73.9926 238.392 73.9926C237.309 73.9926 236.43 74.9046 236.43 76.0295Z" fill="#00A6FB"/>
    <path d="M236.43 57.5585C236.43 58.685 237.307 59.5954 238.392 59.5954C239.478 59.5954 240.355 58.685 240.355 57.5585C240.355 56.4321 239.478 55.5217 238.392 55.5217C237.307 55.5217 236.43 56.4321 236.43 57.5585Z" fill="#00A6FB"/>
    <path d="M236.43 39.0954C236.43 40.2219 237.307 41.1323 238.392 41.1323C239.477 41.1323 240.354 40.2219 240.354 39.0954C240.354 37.969 239.477 37.0585 238.392 37.0585C237.307 37.0585 236.43 37.969 236.43 39.0954Z" fill="#00A6FB"/>
    <path d="M236.43 20.6323C236.43 21.7573 237.309 22.6692 238.392 22.6692C239.476 22.6692 240.354 21.7573 240.354 20.6323C240.354 19.5074 239.476 18.5955 238.392 18.5955C237.309 18.5955 236.43 19.5074 236.43 20.6323Z" fill="#00A6FB"/>
    <path d="M236.43 2.16169C236.43 3.28663 237.309 4.19857 238.392 4.19857C239.476 4.19857 240.354 3.28663 240.354 2.16169C240.354 1.03676 239.476 0.124817 238.392 0.124817C237.309 0.124817 236.43 1.03676 236.43 2.16169Z" fill="#00A6FB"/>
    <path d="M252.343 112.963C252.343 114.089 253.22 115 254.305 115C255.391 115 256.268 114.089 256.268 112.963C256.268 111.837 255.391 110.926 254.305 110.926C253.22 110.926 252.343 111.837 252.343 112.963Z" fill="#00A6FB"/>
    <path d="M252.343 94.4923C252.343 95.6172 253.222 96.5291 254.305 96.5291C255.389 96.5291 256.268 95.6172 256.268 94.4923C256.268 93.3673 255.389 92.4554 254.305 92.4554C253.222 92.4554 252.343 93.3673 252.343 94.4923Z" fill="#00A6FB"/>
    <path d="M252.343 76.0295C252.343 77.1544 253.222 78.0664 254.305 78.0664C255.389 78.0664 256.268 77.1544 256.268 76.0295C256.268 74.9046 255.389 73.9926 254.305 73.9926C253.222 73.9926 252.343 74.9046 252.343 76.0295Z" fill="#00A6FB"/>
    <path d="M252.343 57.5585C252.343 58.685 253.22 59.5954 254.305 59.5954C255.391 59.5954 256.268 58.685 256.268 57.5585C256.268 56.4321 255.391 55.5217 254.305 55.5217C253.22 55.5217 252.343 56.4321 252.343 57.5585Z" fill="#00A6FB"/>
    <path d="M252.343 39.0954C252.343 40.2219 253.22 41.1323 254.305 41.1323C255.391 41.1323 256.268 40.2219 256.268 39.0954C256.268 37.969 255.391 37.0585 254.305 37.0585C253.22 37.0585 252.343 37.969 252.343 39.0954Z" fill="#00A6FB"/>
    <path d="M252.343 20.6323C252.343 21.7573 253.222 22.6692 254.305 22.6692C255.389 22.6692 256.268 21.7573 256.268 20.6323C256.268 19.5074 255.389 18.5955 254.305 18.5955C253.222 18.5955 252.343 19.5074 252.343 20.6323Z" fill="#00A6FB"/>
    <path d="M252.343 2.16169C252.343 3.28663 253.222 4.19857 254.305 4.19857C255.389 4.19857 256.267 3.28663 256.267 2.16169C256.267 1.03676 255.389 0.124817 254.305 0.124817C253.222 0.124817 252.343 1.03676 252.343 2.16169Z" fill="#00A6FB"/>
    <path d="M268.249 112.963C268.249 114.089 269.126 115 270.211 115C271.296 115 272.173 114.089 272.173 112.963C272.173 111.837 271.296 110.926 270.211 110.926C269.126 110.926 268.249 111.837 268.249 112.963Z" fill="#00A6FB"/>
    <path d="M268.249 94.4923C268.249 95.6172 269.128 96.5291 270.211 96.5291C271.295 96.5291 272.173 95.6172 272.173 94.4923C272.173 93.3673 271.295 92.4554 270.211 92.4554C269.128 92.4554 268.249 93.3673 268.249 94.4923Z" fill="#00A6FB"/>
    <path d="M268.249 76.0295C268.249 77.1544 269.128 78.0664 270.211 78.0664C271.295 78.0664 272.173 77.1544 272.173 76.0295C272.173 74.9046 271.295 73.9926 270.211 73.9926C269.128 73.9926 268.249 74.9046 268.249 76.0295Z" fill="#00A6FB"/>
    <path d="M268.249 57.5585C268.249 58.685 269.126 59.5954 270.211 59.5954C271.296 59.5954 272.173 58.685 272.173 57.5585C272.173 56.4321 271.296 55.5217 270.211 55.5217C269.126 55.5217 268.249 56.4321 268.249 57.5585Z" fill="#00A6FB"/>
    <path d="M268.249 39.0954C268.249 40.2219 269.126 41.1323 270.211 41.1323C271.296 41.1323 272.173 40.2219 272.173 39.0954C272.173 37.969 271.296 37.0585 270.211 37.0585C269.126 37.0585 268.249 37.969 268.249 39.0954Z" fill="#00A6FB"/>
    <path d="M268.249 20.6323C268.249 21.7573 269.128 22.6692 270.211 22.6692C271.295 22.6692 272.173 21.7573 272.173 20.6323C272.173 19.5074 271.295 18.5955 270.211 18.5955C269.128 18.5955 268.249 19.5074 268.249 20.6323Z" fill="#00A6FB"/>
    <path d="M268.249 2.16169C268.249 3.28663 269.127 4.19857 270.211 4.19857C271.295 4.19857 272.173 3.28663 272.173 2.16169C272.173 1.03676 271.295 0.124817 270.211 0.124817C269.127 0.124817 268.249 1.03676 268.249 2.16169Z" fill="#00A6FB"/>
    <path d="M284.162 112.963C284.162 114.089 285.039 115 286.124 115C287.209 115 288.087 114.089 288.087 112.963C288.087 111.837 287.209 110.926 286.124 110.926C285.039 110.926 284.162 111.837 284.162 112.963Z" fill="#00A6FB"/>
    <path d="M284.162 94.4921C284.162 95.6171 285.041 96.529 286.124 96.529C287.208 96.529 288.087 95.6171 288.087 94.4921C288.087 93.3672 287.208 92.4553 286.124 92.4553C285.041 92.4553 284.162 93.3672 284.162 94.4921Z" fill="#00A6FB"/>
    <path d="M284.162 76.0295C284.162 77.1544 285.041 78.0664 286.124 78.0664C287.208 78.0664 288.087 77.1544 288.087 76.0295C288.087 74.9046 287.208 73.9926 286.124 73.9926C285.041 73.9926 284.162 74.9046 284.162 76.0295Z" fill="#00A6FB"/>
    <path d="M284.162 57.5585C284.162 58.685 285.039 59.5954 286.124 59.5954C287.209 59.5954 288.087 58.685 288.087 57.5585C288.087 56.4321 287.209 55.5217 286.124 55.5217C285.039 55.5217 284.162 56.4321 284.162 57.5585Z" fill="#00A6FB"/>
    <path d="M284.162 39.0954C284.162 40.2219 285.039 41.1323 286.124 41.1323C287.209 41.1323 288.087 40.2219 288.087 39.0954C288.087 37.969 287.209 37.0585 286.124 37.0585C285.039 37.0585 284.162 37.969 284.162 39.0954Z" fill="#00A6FB"/>
    <path d="M284.162 20.6323C284.162 21.7573 285.041 22.6692 286.124 22.6692C287.208 22.6692 288.087 21.7573 288.087 20.6323C288.087 19.5074 287.208 18.5955 286.124 18.5955C285.041 18.5955 284.162 19.5074 284.162 20.6323Z" fill="#00A6FB"/>
    <path d="M284.162 2.16169C284.162 3.28663 285.041 4.19857 286.124 4.19857C287.208 4.19857 288.087 3.28663 288.087 2.16169C288.087 1.03676 287.208 0.124817 286.124 0.124817C285.041 0.124817 284.162 1.03676 284.162 2.16169Z" fill="#00A6FB"/>
    <path d="M300.068 112.963C300.068 114.089 300.945 115 302.03 115C303.115 115 303.992 114.089 303.992 112.963C303.992 111.837 303.115 110.926 302.03 110.926C300.945 110.926 300.068 111.837 300.068 112.963Z" fill="#00A6FB"/>
    <path d="M300.076 94.4923C300.076 95.6172 300.954 96.5291 302.038 96.5291C303.121 96.5291 304 95.6172 304 94.4923C304 93.3673 303.121 92.4554 302.038 92.4554C300.954 92.4554 300.076 93.3673 300.076 94.4923Z" fill="#00A6FB"/>
    <path d="M300.076 76.0296C300.076 77.1545 300.954 78.0664 302.038 78.0664C303.121 78.0664 304 77.1545 304 76.0296C304 74.9046 303.121 73.9927 302.038 73.9927C300.954 73.9927 300.076 74.9046 300.076 76.0296Z" fill="#00A6FB"/>
    <path d="M300.068 57.5585C300.068 58.685 300.945 59.5954 302.03 59.5954C303.115 59.5954 303.992 58.685 303.992 57.5585C303.992 56.4321 303.115 55.5217 302.03 55.5217C300.945 55.5217 300.068 56.4321 300.068 57.5585Z" fill="#00A6FB"/>
    <path d="M300.068 39.0954C300.068 40.2219 300.945 41.1323 302.03 41.1323C303.115 41.1323 303.992 40.2219 303.992 39.0954C303.992 37.969 303.115 37.0585 302.03 37.0585C300.945 37.0585 300.068 37.969 300.068 39.0954Z" fill="#00A6FB"/>
    <path d="M300.076 20.6323C300.076 21.7573 300.954 22.6692 302.038 22.6692C303.121 22.6692 304 21.7573 304 20.6323C304 19.5074 303.121 18.5955 302.038 18.5955C300.954 18.5955 300.076 19.5074 300.076 20.6323Z" fill="#00A6FB"/>
    <path d="M300.076 2.16176C300.076 3.28669 300.954 4.19863 302.038 4.19863C303.121 4.19863 304 3.28669 304 2.16176C304 1.03682 303.121 0.124878 302.038 0.124878C300.954 0.124878 300.076 1.03682 300.076 2.16176Z" fill="#00A6FB"/>
    <path d="M157.644 112.963C157.644 114.089 158.521 115 159.606 115C160.691 115 161.568 114.089 161.568 112.963C161.568 111.837 160.691 110.926 159.606 110.926C158.521 110.926 157.644 111.837 157.644 112.963Z" fill="#00A6FB"/>
    <path d="M157.644 94.4921C157.644 95.6171 158.522 96.529 159.606 96.529C160.69 96.529 161.568 95.6171 161.568 94.4921C161.568 93.3672 160.69 92.4553 159.606 92.4553C158.522 92.4553 157.644 93.3672 157.644 94.4921Z" fill="#00A6FB"/>
    <path d="M157.644 76.0294C157.644 77.1544 158.522 78.0663 159.606 78.0663C160.69 78.0663 161.568 77.1544 161.568 76.0294C161.568 74.9045 160.69 73.9926 159.606 73.9926C158.522 73.9926 157.644 74.9045 157.644 76.0294Z" fill="#00A6FB"/>
    <path d="M157.644 57.5585C157.644 58.6849 158.521 59.5954 159.606 59.5954C160.691 59.5954 161.568 58.6849 161.568 57.5585C161.568 56.432 160.691 55.5216 159.606 55.5216C158.521 55.5216 157.644 56.432 157.644 57.5585Z" fill="#00A6FB"/>
    <path d="M157.644 39.0953C157.644 40.2218 158.521 41.1322 159.606 41.1322C160.691 41.1322 161.568 40.2218 161.568 39.0953C161.568 37.9689 160.691 37.0585 159.606 37.0585C158.521 37.0585 157.644 37.9689 157.644 39.0953Z" fill="#00A6FB"/>
    <path d="M157.644 20.6323C157.644 21.7572 158.522 22.6692 159.606 22.6692C160.69 22.6692 161.568 21.7572 161.568 20.6323C161.568 19.5073 160.69 18.5954 159.606 18.5954C158.522 18.5954 157.644 19.5073 157.644 20.6323Z" fill="#00A6FB"/>
    <path d="M157.644 2.16169C157.644 3.28663 158.523 4.19857 159.606 4.19857C160.69 4.19857 161.568 3.28663 161.568 2.16169C161.568 1.03676 160.69 0.124817 159.606 0.124817C158.523 0.124817 157.644 1.03676 157.644 2.16169Z" fill="#00A6FB"/>
    <path d="M173.557 112.963C173.557 114.089 174.434 115 175.519 115C176.604 115 177.481 114.089 177.481 112.963C177.481 111.837 176.604 110.926 175.519 110.926C174.434 110.926 173.557 111.837 173.557 112.963Z" fill="#00A6FB"/>
    <path d="M173.557 94.4921C173.557 95.6171 174.435 96.529 175.519 96.529C176.603 96.529 177.481 95.6171 177.481 94.4921C177.481 93.3672 176.603 92.4553 175.519 92.4553C174.435 92.4553 173.557 93.3672 173.557 94.4921Z" fill="#00A6FB"/>
    <path d="M173.557 76.0294C173.557 77.1544 174.435 78.0663 175.519 78.0663C176.603 78.0663 177.481 77.1544 177.481 76.0294C177.481 74.9045 176.603 73.9926 175.519 73.9926C174.435 73.9926 173.557 74.9045 173.557 76.0294Z" fill="#00A6FB"/>
    <path d="M173.557 57.5585C173.557 58.6849 174.434 59.5954 175.519 59.5954C176.604 59.5954 177.481 58.6849 177.481 57.5585C177.481 56.432 176.604 55.5216 175.519 55.5216C174.434 55.5216 173.557 56.432 173.557 57.5585Z" fill="#00A6FB"/>
    <path d="M173.557 39.0953C173.557 40.2218 174.434 41.1322 175.519 41.1322C176.604 41.1322 177.481 40.2218 177.481 39.0953C177.481 37.9689 176.604 37.0585 175.519 37.0585C174.434 37.0585 173.557 37.9689 173.557 39.0953Z" fill="#00A6FB"/>
    <path d="M173.557 20.6323C173.557 21.7572 174.435 22.6692 175.519 22.6692C176.603 22.6692 177.481 21.7572 177.481 20.6323C177.481 19.5073 176.603 18.5954 175.519 18.5954C174.435 18.5954 173.557 19.5073 173.557 20.6323Z" fill="#00A6FB"/>
    <path d="M173.557 2.16169C173.557 3.28663 174.435 4.19857 175.519 4.19857C176.603 4.19857 177.481 3.28663 177.481 2.16169C177.481 1.03676 176.603 0.124817 175.519 0.124817C174.435 0.124817 173.557 1.03676 173.557 2.16169Z" fill="#00A6FB"/>
    <path d="M189.463 112.963C189.463 114.089 190.34 115 191.425 115C192.51 115 193.387 114.089 193.387 112.963C193.387 111.837 192.51 110.926 191.425 110.926C190.34 110.926 189.463 111.837 189.463 112.963Z" fill="#00A6FB"/>
    <path d="M189.463 94.4921C189.463 95.6171 190.341 96.529 191.425 96.529C192.509 96.529 193.387 95.6171 193.387 94.4921C193.387 93.3672 192.509 92.4553 191.425 92.4553C190.341 92.4553 189.463 93.3672 189.463 94.4921Z" fill="#00A6FB"/>
    <path d="M189.463 76.0294C189.463 77.1544 190.341 78.0663 191.425 78.0663C192.509 78.0663 193.387 77.1544 193.387 76.0294C193.387 74.9045 192.509 73.9926 191.425 73.9926C190.341 73.9926 189.463 74.9045 189.463 76.0294Z" fill="#00A6FB"/>
    <path d="M189.463 57.5585C189.463 58.6849 190.34 59.5954 191.425 59.5954C192.51 59.5954 193.387 58.6849 193.387 57.5585C193.387 56.432 192.51 55.5216 191.425 55.5216C190.34 55.5216 189.463 56.432 189.463 57.5585Z" fill="#00A6FB"/>
    <path d="M189.463 39.0953C189.463 40.2218 190.34 41.1322 191.425 41.1322C192.51 41.1322 193.387 40.2218 193.387 39.0953C193.387 37.9689 192.51 37.0585 191.425 37.0585C190.34 37.0585 189.463 37.9689 189.463 39.0953Z" fill="#00A6FB"/>
    <path d="M189.463 20.6323C189.463 21.7572 190.341 22.6692 191.425 22.6692C192.509 22.6692 193.387 21.7572 193.387 20.6323C193.387 19.5073 192.509 18.5954 191.425 18.5954C190.341 18.5954 189.463 19.5073 189.463 20.6323Z" fill="#00A6FB"/>
    <path d="M189.463 2.16169C189.463 3.28663 190.341 4.19857 191.425 4.19857C192.508 4.19857 193.387 3.28663 193.387 2.16169C193.387 1.03676 192.508 0.124817 191.425 0.124817C190.341 0.124817 189.463 1.03676 189.463 2.16169Z" fill="#00A6FB"/>
    <path d="M205.376 112.963C205.376 114.089 206.253 115 207.338 115C208.423 115 209.3 114.089 209.3 112.963C209.3 111.837 208.423 110.926 207.338 110.926C206.253 110.926 205.376 111.837 205.376 112.963Z" fill="#00A6FB"/>
    <path d="M205.376 94.4921C205.376 95.617 206.254 96.529 207.338 96.529C208.422 96.529 209.3 95.617 209.3 94.4921C209.3 93.3671 208.422 92.4552 207.338 92.4552C206.254 92.4552 205.376 93.3671 205.376 94.4921Z" fill="#00A6FB"/>
    <path d="M205.376 76.0294C205.376 77.1544 206.254 78.0663 207.338 78.0663C208.422 78.0663 209.3 77.1544 209.3 76.0294C209.3 74.9045 208.422 73.9926 207.338 73.9926C206.254 73.9926 205.376 74.9045 205.376 76.0294Z" fill="#00A6FB"/>
    <path d="M205.376 57.5585C205.376 58.6849 206.253 59.5954 207.338 59.5954C208.423 59.5954 209.3 58.6849 209.3 57.5585C209.3 56.432 208.423 55.5216 207.338 55.5216C206.253 55.5216 205.376 56.432 205.376 57.5585Z" fill="#00A6FB"/>
    <path d="M205.376 39.0953C205.376 40.2218 206.253 41.1322 207.338 41.1322C208.423 41.1322 209.3 40.2218 209.3 39.0953C209.3 37.9689 208.423 37.0585 207.338 37.0585C206.253 37.0585 205.376 37.9689 205.376 39.0953Z" fill="#00A6FB"/>
    <path d="M205.376 20.6323C205.376 21.7572 206.254 22.6692 207.338 22.6692C208.422 22.6692 209.3 21.7572 209.3 20.6323C209.3 19.5073 208.422 18.5954 207.338 18.5954C206.254 18.5954 205.376 19.5073 205.376 20.6323Z" fill="#00A6FB"/>
    <path d="M205.376 2.16169C205.376 3.28663 206.254 4.19857 207.338 4.19857C208.422 4.19857 209.3 3.28663 209.3 2.16169C209.3 1.03676 208.422 0.124817 207.338 0.124817C206.254 0.124817 205.376 1.03676 205.376 2.16169Z" fill="#00A6FB"/>
    <path d="M221.281 112.963C221.281 114.089 222.158 115 223.243 115C224.329 115 225.206 114.089 225.206 112.963C225.206 111.837 224.329 110.926 223.243 110.926C222.158 110.926 221.281 111.837 221.281 112.963Z" fill="#00A6FB"/>
    <path d="M221.289 94.4921C221.289 95.617 222.168 96.529 223.251 96.529C224.335 96.529 225.214 95.617 225.214 94.4921C225.214 93.3671 224.335 92.4552 223.251 92.4552C222.168 92.4552 221.289 93.3671 221.289 94.4921Z" fill="#00A6FB"/>
    <path d="M221.289 76.0294C221.289 77.1544 222.168 78.0663 223.251 78.0663C224.335 78.0663 225.214 77.1544 225.214 76.0294C225.214 74.9045 224.335 73.9926 223.251 73.9926C222.168 73.9926 221.289 74.9045 221.289 76.0294Z" fill="#00A6FB"/>
    <path d="M221.281 57.5585C221.281 58.6849 222.158 59.5954 223.243 59.5954C224.329 59.5954 225.206 58.6849 225.206 57.5585C225.206 56.432 224.329 55.5216 223.243 55.5216C222.158 55.5216 221.281 56.432 221.281 57.5585Z" fill="#00A6FB"/>
    <path d="M221.281 39.0953C221.281 40.2218 222.158 41.1322 223.243 41.1322C224.329 41.1322 225.206 40.2218 225.206 39.0953C225.206 37.9689 224.329 37.0585 223.243 37.0585C222.158 37.0585 221.281 37.9689 221.281 39.0953Z" fill="#00A6FB"/>
    <path d="M221.289 20.6323C221.289 21.7572 222.168 22.6692 223.251 22.6692C224.335 22.6692 225.214 21.7572 225.214 20.6323C225.214 19.5073 224.335 18.5954 223.251 18.5954C222.168 18.5954 221.289 19.5073 221.289 20.6323Z" fill="#00A6FB"/>
    <path d="M221.29 2.16169C221.29 3.28663 222.168 4.19857 223.252 4.19857C224.336 4.19857 225.214 3.28663 225.214 2.16169C225.214 1.03676 224.336 0.124817 223.252 0.124817C222.168 0.124817 221.29 1.03676 221.29 2.16169Z" fill="#00A6FB"/>
</svg>
