<svg width="21" height="20" viewBox="0 0 21 20" fill="none"
    xmlns="http://www.w3.org/2000/svg">
    <path d="M10.4994 19.337L10.1884 19.1728C6.35943 17.1489 3.5514 14.8894 1.84226 12.4564C-0.0165393 9.81028 -0.140916 7.56797 0.0818672 6.15253C0.49053 3.55669 2.42929 1.4918 4.90655 1.01381C7.00864 0.607984 9.04307 1.43288 10.4994 3.23759C11.9556 1.43222 13.9914 0.607984 16.0935 1.01447C18.5708 1.49313 20.5102 3.55868 20.9182 6.15386C21.141 7.56929 21.0159 9.8116 19.1571 12.4578C17.448 14.8907 14.6393 17.1503 10.8096 19.1735L10.4987 19.3376L10.4994 19.337ZM5.96443 2.16906C5.69996 2.16906 5.43139 2.19488 5.16077 2.24718C3.21723 2.62256 1.6926 4.26772 1.36594 6.34254C1.09669 8.05191 1.63315 9.9215 2.91654 11.7494C4.46303 13.9507 7.01342 16.0202 10.5 17.903C13.9873 16.0202 16.5384 13.9513 18.0849 11.75C19.3683 9.92283 19.9048 8.05324 19.6362 6.34386C19.3095 4.2697 17.7849 2.62388 15.8407 2.24851C13.9867 1.89035 12.2427 2.7735 11.0549 4.67156L10.4994 5.55935L9.94445 4.67156C8.93099 3.0509 7.51161 2.17039 5.96443 2.17039V2.16906Z" fill="#2E2E2B"/>
</svg>
