<svg width="213" height="43" viewBox="0 0 213 43" fill="none"
    xmlns="http://www.w3.org/2000/svg">
    <path d="M42.5221 18.1677V24.3502C42.5221 25.8586 41.9234 27.3053 40.8575 28.3726C39.7916 29.4399 38.3457 30.0404 36.8373 30.0424H33.54V26.5438H36.8373C37.4182 26.5424 37.9749 26.3107 38.3854 25.8995C38.7958 25.4883 39.0264 24.9311 39.0267 24.3502V18.1677C39.0264 17.5864 38.7957 17.0289 38.3851 16.6173C37.9745 16.2057 37.4175 15.9737 36.8362 15.972H26.5501V5.68487C26.5484 5.10289 26.3158 4.54538 25.9033 4.13485C25.4908 3.72431 24.9321 3.49434 24.3502 3.49546H18.1677C17.5871 3.49657 17.0306 3.72771 16.6201 4.13826C16.2095 4.54881 15.9784 5.10532 15.9773 5.68592V14.2243C15.9778 15.6259 16.5344 16.97 17.5249 17.9617C18.5154 18.9534 19.8589 19.5116 21.2605 19.5139C23.2855 19.516 25.2477 20.2167 26.816 21.4976C28.3844 22.7784 29.4629 24.5611 29.8695 26.5448C29.9871 27.1199 30.0458 27.7056 30.0445 28.2926V36.8309C30.0445 37.5784 29.8973 38.3186 29.6112 39.0093C29.3252 39.6999 28.9059 40.3274 28.3773 40.856C27.8487 41.3845 27.2212 41.8038 26.5306 42.0899C25.84 42.3759 25.0998 42.5232 24.3523 42.5232H18.1677C16.6594 42.5212 15.2134 41.9206 14.1475 40.8534C13.0816 39.7861 12.4829 38.3393 12.4829 36.8309V30.0424H5.69225C4.18257 30.0424 2.73472 29.4427 1.66722 28.3752C0.599717 27.3077 0 25.8598 0 24.3502L0 18.1677C0 16.6581 0.599717 15.2102 1.66722 14.1427C2.73472 13.0752 4.18257 12.4755 5.69225 12.4755H8.98742V15.971H5.69225C5.11007 15.9715 4.5519 16.203 4.14025 16.6147C3.72859 17.0264 3.49707 17.5845 3.49651 18.1667V24.3502C3.49735 24.9321 3.72902 25.4898 4.14068 25.9011C4.55234 26.3124 5.11035 26.5435 5.69225 26.5438H15.9794V36.8309C15.9797 37.4123 16.2104 37.9698 16.621 38.3814C17.0315 38.7929 17.5885 39.025 18.1699 39.0267H24.3502C24.9323 39.0261 25.4905 38.7946 25.9022 38.3829C26.3138 37.9713 26.5453 37.4131 26.5459 36.8309V28.2926C26.5437 26.8911 25.9856 25.5478 24.9941 24.5574C24.0027 23.5669 22.6588 23.0102 21.2574 23.0093C19.2322 23.0071 17.27 22.3056 15.7023 21.0236C14.1347 19.7415 13.0578 17.9575 12.6536 15.9731C12.536 15.398 12.4774 14.8124 12.4787 14.2253V5.68697C12.4801 4.17876 13.08 2.73275 14.1466 1.66647C15.2133 0.600201 16.6595 0.000837252 18.1677 0L24.3502 0C25.8586 -1.26734e-06 27.3053 0.598703 28.3726 1.66461C29.4399 2.73052 30.0404 4.17647 30.0424 5.68487V12.4766H36.8341C38.3425 12.4785 39.7884 13.0791 40.8544 14.1464C41.9203 15.2137 42.519 16.6604 42.519 18.1688" fill="#FF922E"/>
    <path d="M200.629 34.7691L193.039 16.2503H199.301L204.12 30.9363H201.805L206.739 16.2503H213L205.107 34.7691H200.629ZM195.885 42.4726L201.426 30.5189L205.107 34.7691L201.843 42.4726H195.885Z" fill="#00A6FB"/>
    <path d="M181.169 34.6932V14.6565C181.169 13.1638 181.498 11.823 182.156 10.634C182.839 9.41961 183.787 8.4709 185.002 7.78783C186.216 7.07946 187.658 6.72528 189.328 6.72528C190.593 6.72528 191.693 6.94032 192.629 7.3704C193.591 7.77518 194.425 8.34441 195.134 9.07808L191.491 12.7211C191.238 12.4681 190.947 12.2784 190.618 12.1519C190.314 12.0001 189.948 11.9242 189.518 11.9242C188.733 11.9242 188.113 12.1519 187.658 12.6073C187.203 13.0626 186.975 13.6825 186.975 14.4667V34.6932H181.169ZM177.108 21.1836V16.2503H192.288V21.1836H177.108Z" fill="#00A6FB"/>
    <path d="M168.921 34.6932V16.2503H174.727V34.6932H168.921ZM171.843 13.7077C170.933 13.7077 170.174 13.4042 169.566 12.797C168.985 12.1645 168.694 11.4055 168.694 10.5201C168.694 9.60932 168.985 8.85036 169.566 8.24319C170.174 7.63601 170.933 7.33243 171.843 7.33243C172.754 7.33243 173.5 7.63601 174.082 8.24319C174.664 8.85036 174.955 9.60932 174.955 10.5201C174.955 11.4055 174.664 12.1645 174.082 12.797C173.5 13.4042 172.754 13.7077 171.843 13.7077Z" fill="#00A6FB"/>
    <path d="M135.791 34.6931V16.2503H141.597V34.6931H135.791ZM147.593 34.6931V23.9158C147.593 22.9798 147.302 22.2588 146.72 21.7528C146.163 21.2215 145.467 20.9559 144.633 20.9559C144.051 20.9559 143.532 21.0824 143.077 21.3353C142.621 21.563 142.255 21.8919 141.976 22.322C141.723 22.7521 141.597 23.2834 141.597 23.9158L139.358 22.9292C139.358 21.4618 139.674 20.2095 140.306 19.1723C140.939 18.1097 141.799 17.3002 142.887 16.7436C143.975 16.1617 145.202 15.8708 146.568 15.8708C147.858 15.8708 149.009 16.1617 150.021 16.7436C151.059 17.3255 151.881 18.135 152.488 19.1723C153.095 20.2095 153.399 21.4492 153.399 22.8912V34.6931H147.593ZM159.394 34.6931V23.9158C159.394 22.9798 159.104 22.2588 158.522 21.7528C157.965 21.2215 157.269 20.9559 156.435 20.9559C155.853 20.9559 155.334 21.0824 154.879 21.3353C154.423 21.563 154.056 21.8919 153.778 22.322C153.525 22.7521 153.399 23.2834 153.399 23.9158L150.059 23.4604C150.11 21.8919 150.477 20.5511 151.16 19.4379C151.868 18.2995 152.791 17.4267 153.93 16.8195C155.094 16.187 156.397 15.8708 157.839 15.8708C159.255 15.8708 160.508 16.1744 161.596 16.7815C162.709 17.3634 163.581 18.2109 164.214 19.3241C164.872 20.4119 165.201 21.7275 165.201 23.2707V34.6931H159.394Z" fill="#00A6FB"/>
    <path d="M119.707 34.6931V16.2503H125.513V34.6931H119.707ZM125.513 24.5609L123.084 22.6635C123.565 20.5131 124.375 18.8434 125.513 17.6544C126.652 16.4653 128.233 15.8708 130.257 15.8708C131.142 15.8708 131.914 16.0099 132.572 16.2882C133.255 16.5412 133.849 16.946 134.355 17.5026L130.902 21.8666C130.649 21.5883 130.333 21.3733 129.953 21.2215C129.574 21.0697 129.144 20.9938 128.663 20.9938C127.701 20.9938 126.93 21.2974 126.348 21.9046C125.791 22.4864 125.513 23.3719 125.513 24.5609Z" fill="#023E8A"/>
    <path d="M104.842 35.0726C103.147 35.0726 101.629 34.6552 100.288 33.8203C98.9724 32.9855 97.9225 31.847 97.1382 30.405C96.3792 28.963 95.9998 27.3185 95.9998 25.4717C95.9998 23.6249 96.3792 21.9805 97.1382 20.5384C97.9225 19.0964 98.9724 17.9579 100.288 17.1231C101.629 16.2882 103.147 15.8708 104.842 15.8708C106.081 15.8708 107.195 16.1111 108.181 16.5918C109.193 17.0725 110.015 17.7429 110.648 18.6031C111.28 19.4379 111.634 20.3993 111.71 21.4871V29.4563C111.634 30.5441 111.28 31.5181 110.648 32.3783C110.041 33.2132 109.231 33.8709 108.219 34.3516C107.207 34.8323 106.081 35.0726 104.842 35.0726ZM106.018 29.8358C107.258 29.8358 108.257 29.431 109.016 28.6214C109.775 27.7866 110.154 26.7367 110.154 25.4717C110.154 24.6115 109.977 23.8526 109.623 23.1948C109.294 22.537 108.814 22.0311 108.181 21.6769C107.574 21.2974 106.866 21.1077 106.056 21.1077C105.246 21.1077 104.525 21.2974 103.893 21.6769C103.286 22.0311 102.793 22.537 102.413 23.1948C102.059 23.8526 101.882 24.6115 101.882 25.4717C101.882 26.3066 102.059 27.0529 102.413 27.7107C102.767 28.3684 103.261 28.8871 103.893 29.2665C104.525 29.646 105.234 29.8358 106.018 29.8358ZM109.927 34.6931V29.7219L110.8 25.244L109.927 20.7661V16.2503H115.619V34.6931H109.927Z" fill="#023E8A"/>
    <path d="M87.603 34.6932V24.1815C87.603 23.2201 87.2995 22.4485 86.6923 21.8666C86.1104 21.2595 85.3641 20.9559 84.4533 20.9559C83.8209 20.9559 83.2643 21.095 82.7836 21.3733C82.3029 21.6263 81.9234 22.0058 81.6452 22.5118C81.3669 22.9924 81.2277 23.549 81.2277 24.1815L78.9888 23.081C78.9888 21.639 79.2924 20.374 79.8995 19.2862C80.5067 18.1983 81.3542 17.3634 82.4421 16.7816C83.5299 16.1744 84.7822 15.8708 86.1989 15.8708C87.641 15.8708 88.9059 16.1744 89.9938 16.7816C91.0816 17.3634 91.9165 18.1857 92.4984 19.2482C93.1055 20.2855 93.4091 21.4998 93.4091 22.8912V34.6932H87.603ZM75.4216 34.6932V7.1427H81.2277V34.6932H75.4216Z" fill="#023E8A"/>
    <path d="M56.6779 24.9405V20.3108H62.4461C63.1798 20.3108 63.8502 20.159 64.4573 19.8554C65.0645 19.5518 65.5452 19.1091 65.8994 18.5272C66.2536 17.9453 66.4307 17.237 66.4307 16.4021C66.4307 15.5925 66.2536 14.8968 65.8994 14.3149C65.5452 13.7331 65.0645 13.2903 64.4573 12.9867C63.8502 12.6832 63.1798 12.5314 62.4461 12.5314H56.6779V7.90167H63.3189C65.0139 7.90167 66.5445 8.24321 67.9106 8.92628C69.2768 9.60935 70.352 10.596 71.1362 11.8862C71.9458 13.1512 72.3506 14.6565 72.3506 16.4021C72.3506 18.1477 71.9458 19.6656 71.1362 20.9559C70.352 22.2208 69.2768 23.2075 67.9106 23.9159C66.5445 24.5989 65.0139 24.9405 63.3189 24.9405H56.6779ZM52.1241 34.6932V7.90167H58.082V34.6932H52.1241Z" fill="#023E8A"/>
</svg>
