<svg width="15" height="10" viewBox="0 0 15 10" fill="none"
    xmlns="http://www.w3.org/2000/svg">
    <path d="M1.12795 0.593022L6.27213 4.66511C6.50469 4.84883 6.82795 4.93255 7.13957 4.91627C7.44887 4.93255 7.77213 4.85116 8.00469 4.66511L13.1512 0.593022C13.5605 0.267441 13.4675 0 12.9442 0H1.3326C0.809349 0 0.716326 0.267441 1.12795 0.593022Z" fill="white"/>
    <path d="M13.5209 1.66745L7.89999 5.93488C7.68836 6.09302 7.41394 6.16744 7.13952 6.16511C6.86511 6.16744 6.58836 6.0907 6.37906 5.93488L0.758138 1.66745C0.34186 1.34884 0 1.51861 0 2.04419V9.04651C0 9.57209 0.427906 9.99999 0.951161 9.99999H13.3279C13.8511 9.99999 14.2814 9.57209 14.2814 9.04651V2.04419C14.2814 1.52094 13.9372 1.34884 13.5209 1.66745Z" fill="white"/>
</svg>
