<svg width="826" height="360" viewBox="0 0 826 360" fill="none"
    xmlns="http://www.w3.org/2000/svg">
    <path d="M0 211.669L104.043 4.92798H180.73L74.445 211.669H0ZM0 251.134V211.669L23.32 191.488H253.829V251.133L0 251.134ZM149.338 321.542V125.564H218.401V321.542H149.338ZM413.93 326.475C388.218 326.475 365.122 319.599 344.643 305.846C324.164 292.093 307.944 272.884 295.985 248.219C284.026 223.552 278.047 195.075 278.047 162.787C278.047 130.199 283.952 101.722 295.761 77.355C307.57 52.9883 323.64 34.0033 343.971 20.4C364.304 6.79999 387.176 0 412.586 0C438.597 0 461.767 6.79999 482.098 20.4C502.429 34 518.499 53.0596 530.308 77.579C542.117 102.095 548.022 130.795 548.022 163.679C548.022 195.968 542.117 224.371 530.308 248.887C518.499 273.403 502.503 292.464 482.321 306.07C462.14 319.673 439.343 326.475 413.93 326.475ZM413.482 264.139C426.338 264.139 437.55 260.327 447.117 252.703C456.684 245.079 464.084 233.718 469.317 218.62C474.549 203.522 477.165 185.06 477.165 163.235C477.165 141.111 474.549 122.575 469.317 107.626C464.085 92.6773 456.685 81.391 447.117 73.767C437.552 66.143 426.042 62.331 412.585 62.331C400.354 62.1233 388.416 66.0766 378.726 73.543C369.009 81.0177 361.609 92.2293 356.526 107.178C351.443 122.127 348.902 140.662 348.903 162.785C348.903 184.909 351.444 203.445 356.527 218.394C361.61 233.343 369.01 244.704 378.727 252.477C388.443 260.252 400.028 264.139 413.482 264.139ZM571.789 211.669L675.832 4.92798H752.519L646.233 211.669H571.789ZM571.789 251.134V211.669L595.109 191.488H825.618V251.133L571.789 251.134ZM721.126 321.542V125.564H790.19V321.542H721.126Z" fill="#023E8A"/>
    <path d="M506.181 91.4673C512.83 96.3204 516.802 98.4536 519.024 99.9032C521.874 101.76 525.35 102.107 526.71 103.239C531.291 107.056 529.004 112.202 529.346 114.225C528.019 118.032 525.333 118.238 521.477 118.805C519.856 118.077 521.344 113.538 519.134 112.232C517.119 111.042 517.259 111.246 517.259 111.246C517.259 111.246 518.589 112.68 519.389 114.446C520.018 115.83 520.634 116.668 520.857 117.145C521.225 117.929 520.99 118.82 520.57 119.136C519.811 119.708 518.535 119.349 515.095 115.693C513.946 114.472 511.33 108.481 509.474 106.949C506.892 104.818 505.511 103.409 498.975 100.634L506.179 91.4673H506.181Z" fill="#FAC5A3"/>
    <g style="mix-blend-mode:color-burn">
        <path d="M476.134 169.847C476.134 169.847 472.222 174.657 459.865 178.497C447.505 182.338 434.721 121.209 434.721 121.209L476.136 169.847H476.134Z" fill="#B5CCDB"/>
    </g>
    <g style="mix-blend-mode:color-burn">
        <path d="M396.241 223.511C396.241 223.511 398.33 206.437 407.789 193.639L378.49 126.167L396.241 223.511Z" fill="#B5CCDB"/>
    </g>
    <path d="M294.94 158.142C290.39 161.43 286.014 164.002 282.409 164.968C276.932 161.161 270.778 163.593 267.935 166.109C266.709 167.194 265.297 168.031 264.226 168.924C263.511 169.52 251.264 174.76 253.204 177.498C254.271 179.004 261.573 174.646 263.278 174.08C265.022 177.713 265.026 180.761 267.838 181.404C270.649 182.047 275.652 182.622 278.783 182.247C281.913 181.873 286.764 175.723 290.03 175.014C291.202 174.76 296.125 172.187 302.501 168.623L294.938 158.142" fill="#FAC5A3"/>
    <path d="M356.015 340.293L355.043 348.314L365.266 348.956L367.037 339.164L356.015 340.293Z" fill="#E6E6E6"/>
    <path d="M365.218 349.009C365.218 349.009 355.637 347.279 340.394 348.222C329.76 348.88 329.109 355.442 329.389 358.478C329.469 359.344 330.195 360.002 331.064 360.002L360.749 359.961C362.9 359.959 364.664 358.253 364.743 356.101L365.22 349.01L365.218 349.009Z" fill="#5D5E7E"/>
    <path d="M558.987 197.843L565.183 192.663L559.206 184.503L553.393 189.364L558.987 197.843Z" fill="#E6E6E6"/>
    <path d="M559.289 184.557C559.289 184.557 564.102 193.031 574.596 204.143C581.916 211.896 587.362 208.19 589.511 206.03C590.125 205.414 590.164 204.433 589.606 203.766L570.55 180.975C569.169 179.323 566.733 179.06 565.031 180.377L559.289 184.556V184.557Z" fill="#5D5E7E"/>
    <path d="M385.19 65.2554L396.241 84.8769C396.241 84.8769 393.111 93.918 378.782 94.2355L369.928 77.2293L385.192 65.2554H385.19Z" fill="#FEB78B"/>
    <path d="M370.724 83.3863C358.77 83.5171 348.882 73.8334 348.752 61.8632L348.511 39.9609C348.38 27.9907 358.051 18.0903 370.006 17.9596C381.96 17.8288 391.848 27.5125 391.978 39.4827L392.219 61.385C392.35 73.3552 382.679 83.2556 370.724 83.3863Z" fill="#FEB78B"/>
    <path d="M357.747 44.8682C357.734 44.8682 357.719 44.8682 357.706 44.8682L354.087 44.7113C353.557 44.6889 353.146 44.2405 353.169 43.71C353.191 43.1795 353.631 42.7648 354.169 42.791L357.788 42.9479C358.318 42.9703 358.728 43.4186 358.706 43.9491C358.683 44.4647 358.258 44.8682 357.749 44.8682H357.747Z" fill="#58595B"/>
    <path d="M349.192 49.4952C349.028 49.4952 348.864 49.4878 348.698 49.4747C347.127 49.3439 345.703 48.6079 344.685 47.4031C343.668 46.1982 343.179 44.6702 343.31 43.0973C343.58 39.8526 346.433 37.4373 349.679 37.7025C352.919 37.9734 355.335 40.8333 355.067 44.0799C354.809 47.1584 352.225 49.4952 349.192 49.4952ZM349.186 39.6023C347.14 39.6023 345.396 41.1789 345.222 43.258C345.132 44.319 345.463 45.3501 346.149 46.1627C346.836 46.9753 347.796 47.4722 348.858 47.56C351.039 47.7337 352.971 46.1104 353.154 43.9192C353.337 41.7281 351.707 39.7984 349.518 39.6154C349.406 39.606 349.296 39.6004 349.184 39.6004L349.186 39.6023Z" fill="#58595B"/>
    <path d="M363.313 50.6737C363.147 50.6737 362.979 50.6663 362.811 50.6532C361.24 50.5224 359.817 49.7864 358.798 48.5816C357.781 47.3786 357.293 45.8487 357.423 44.2758C357.694 41.0311 360.544 38.6083 363.792 38.8811C367.033 39.1519 369.448 42.0137 369.18 45.2584C369.049 46.8294 368.314 48.2566 367.111 49.2765C366.036 50.1862 364.702 50.6737 363.313 50.6737ZM363.3 40.7808C361.253 40.7808 359.509 42.3574 359.335 44.4365C359.246 45.4975 359.576 46.5287 360.262 47.3412C360.949 48.1538 361.91 48.6507 362.971 48.7385C364.035 48.8244 365.061 48.4975 365.872 47.8101C366.684 47.1227 367.18 46.1588 367.268 45.0978C367.45 42.9085 365.82 40.977 363.632 40.7939C363.52 40.7845 363.408 40.7789 363.298 40.7789L363.3 40.7808Z" fill="#58595B"/>
    <path d="M384.475 14.0796C386.826 10.0372 399.446 8.62316 399.439 25.2876C399.431 41.9539 396.191 63.7404 388.184 74.3152C383.785 80.1247 370.84 87.6807 358.219 80.2965C353.097 77.2984 350.399 72.634 349.645 67.1981C348.892 61.7641 357.21 62.3581 363.643 61.8855C370.075 61.4129 384.384 61.6632 387.266 56.6999C390.15 51.7385 391.1 39.1986 389.482 32.9968C387.865 26.7951 379.173 23.1917 384.473 14.0759L384.475 14.0796Z" fill="#533C42"/>
    <path d="M389.353 72.6397C398.486 63.0232 399.428 41.954 399.438 25.2877C399.445 8.62138 386.825 10.0355 384.474 14.0797C379.174 23.1955 387.866 26.7989 389.483 33.0007C390.599 37.2803 390.492 44.5767 389.371 50.3208C388.465 54.9628 388.302 59.7262 388.991 64.4055C389.397 67.1702 389.517 69.1297 389.353 72.6415V72.6397Z" fill="#533C42"/>
    <path d="M393.483 48.6974C392.866 51.1072 390.827 52.6651 388.931 52.1775C387.034 51.69 385.999 49.3419 386.616 46.9322C387.234 44.5225 389.273 42.9645 391.168 43.4521C393.065 43.9396 394.101 46.2877 393.483 48.6974Z" fill="#FEB78B"/>
    <path d="M394.397 84.8807C394.397 84.8807 409.883 75.4791 415.323 73.3832C420.762 71.2873 454.658 63.7088 464.7 65.3844C474.744 67.06 515.266 97.3627 515.266 97.3627L507.115 107.125L462.189 81.3913L426.201 97.6504L465.901 172.402L409.043 196.539L380.588 130.835L347.282 150.548L288.967 178.671L283.066 164.312L334.569 134.383L366.361 102.679L376.708 94.2376L394.399 84.8826L394.397 84.8807Z" fill="#9BD4DD"/>
    <path d="M465.9 172.402L500.521 230.417L555.025 187.893L561.398 197.842L506.51 249.659C503.523 252.474 498.978 252.821 495.6 250.492L442.71 214.023L385.708 248.056L367.537 340.294H355.936L360.43 245.099C360.605 241.38 362.191 237.866 364.862 235.275L407.787 193.641L465.9 172.404V172.402Z" fill="#3E94AD"/>
    <path d="M362.561 70.1196C362.561 71.8662 361.147 73.2803 359.405 73.2803C357.662 73.2803 356.248 71.8644 356.248 70.1196C356.248 68.3749 357.662 66.959 359.405 66.959C361.147 66.959 362.561 68.3749 362.561 70.1196Z" fill="#CF7C79"/>
    <path d="M394.397 81.3073C394.397 81.3073 399.409 82.7344 401.717 84.1597C404.273 85.7382 404.221 85.0003 402.338 89.9076C400.456 94.8148 391.111 104.284 391.111 104.284C391.111 104.284 369.926 104.284 376.892 90.8229C384.537 90.1597 388.373 86.958 394.399 81.3054L394.397 81.3073Z" fill="#DFECF4"/>
    <path d="M572.946 154.826L571.67 154.75C571.677 154.625 572.373 142.152 568.258 135.618L569.34 134.936C573.677 141.821 572.98 154.299 572.948 154.828L572.946 154.826Z" fill="#D5D4D9"/>
    <path d="M556.906 160.008C556.641 159.636 550.4 150.842 548.736 143.467L549.984 143.185C551.592 150.309 557.883 159.173 557.947 159.263L556.907 160.008H556.906Z" fill="#D5D4D9"/>
    <path d="M556.139 160.514C556.361 161.96 557.711 162.95 559.155 162.728C560.599 162.506 561.588 161.153 561.366 159.707C561.144 158.262 559.793 157.272 558.349 157.494C556.905 157.716 555.917 159.069 556.139 160.514Z" fill="#524C4E"/>
    <path d="M568.367 156.969C568.589 158.415 569.94 159.405 571.384 159.182C572.828 158.96 573.816 157.608 573.594 156.162C573.372 154.716 572.022 153.726 570.578 153.948C569.134 154.17 568.145 155.523 568.367 156.969Z" fill="#524C4E"/>
    <path d="M518.331 156.494L519.784 155.775C519.629 155.463 502.621 124.826 519.868 113.555L519.499 112.268C509.231 118.748 509.486 129.057 511.326 138.702C512.71 145.957 518.292 156.412 518.331 156.493V156.494Z" fill="black"/>
    <path d="M553.41 124.854L554.874 124.163C545.071 107.364 528.645 110.102 528.191 110.013L528.219 111.119C537.879 111.526 548.386 114.169 553.41 124.854Z" fill="black"/>
    <path d="M549.878 145.772C549.493 145.772 549.132 145.54 548.984 145.159C548.805 144.696 544.619 133.735 547.854 128.665C549.66 125.835 553.372 123.141 557.577 123.496C561.045 123.789 566.093 126.308 570.453 136.636C570.658 137.123 570.431 137.687 569.944 137.895C569.455 138.1 568.893 137.872 568.686 137.385C565.53 129.909 561.633 125.768 557.415 125.411C554.016 125.123 550.917 127.432 549.469 129.7C547.218 133.228 549.646 141.554 550.771 144.466C550.964 144.961 550.717 145.516 550.225 145.709C550.111 145.753 549.993 145.774 549.878 145.774V145.772Z" fill="black"/>
    <path d="M515.839 155.596C516.206 157.987 518.441 159.625 520.827 159.257C523.215 158.889 524.851 156.651 524.484 154.262C524.116 151.871 521.881 150.233 519.495 150.601C517.107 150.969 515.471 153.207 515.839 155.596Z" fill="#E3E3E3"/>
    <g style="mix-blend-mode:multiply" opacity="0.3">
        <path d="M376.871 121.21L407.787 193.641L416.775 190.357C416.775 190.357 414.4 162.41 391.109 124.858C384.829 114.735 376.869 99.6472 376.869 99.6472V121.213L376.871 121.21Z" fill="#8FC4CD"/>
    </g>
    <g style="mix-blend-mode:multiply" opacity="0.3">
        <path d="M403.697 91.3833C403.697 91.3833 427.183 138.616 434.718 149.94C438.16 155.112 447.614 168.507 451.067 173.347C458.259 183.429 496.4 223.511 496.4 223.511L465.9 172.402L428.533 97.9755L403.697 91.3833Z" fill="#8FC4CD"/>
    </g>
    <g style="mix-blend-mode:multiply" opacity="0.3">
        <path d="M416.775 190.355C416.775 190.355 410.766 204.954 401.284 212.635C391.801 220.316 372.5 228.085 372.5 228.085L407.785 193.641L416.773 190.357L416.775 190.355Z" fill="#8FC4CD"/>
    </g>
    <path d="M361.162 107.859L334.565 134.383L282.408 164.967L288.966 178.671L349.598 151.48L368.24 138.143L361.162 107.859Z" fill="#C8DEEC"/>
    <path d="M376.89 90.8267C376.89 90.8267 391.044 156.752 393.137 176.71C395.773 201.836 396.239 223.513 396.239 223.513C396.239 223.513 377.683 229.094 371.379 224.83L360.902 111.999C359.952 108.84 362.557 104.033 364.82 101.682C366.538 99.8958 374.95 92.605 376.888 90.8285L376.89 90.8267Z" fill="#DFECF4"/>
    <path d="M413.004 73.8782C413.004 73.8782 416.817 72.5034 430.667 69.2419C443.877 66.1298 454.798 65.448 454.798 65.448L463.853 64.6914C463.853 64.6914 476.218 70.0769 481.432 73.1198C486.646 76.1628 515.266 97.3646 515.266 97.3646L507.115 107.127L462.189 81.3932L440.521 91.2563L413.004 73.8801V73.8782Z" fill="#DFECF4"/>
    <path d="M394.396 81.3071C394.396 81.3071 428.874 124.897 442.22 139.355C453.611 151.693 476.132 169.847 476.132 169.847C476.132 169.847 486.504 163.916 495.173 154.787L434.366 82.7156C434.366 82.7156 423.982 73.3401 420.227 72.6396C415.011 71.6663 394.395 81.3071 394.395 81.3071H394.396Z" fill="#DFECF4"/>
    <path d="M381.707 23.2199C384.583 21.7778 388.846 17.1097 388.9 13.7996C388.966 9.87866 386.983 6.54428 383.348 5.02186C380.328 3.75722 375.319 3.7759 372.245 4.4764C372.245 4.4764 347.608 11.8457 348.983 35.2162C348.983 35.2162 350.423 26.0425 360.934 23.8812C371.618 21.6844 373.15 27.5089 381.709 23.2199H381.707Z" fill="#533C42"/>
</svg>
