<svg width="124" height="19" viewBox="0 0 124 19" fill="none"
    xmlns="http://www.w3.org/2000/svg">
    <g clip-path="url(#clip0_175_4095)">
        <path d="M16.2239 18.2909C16.3064 18.8847 15.9433 19.165 15.3986 18.8847L10.8928 16.6251C10.3482 16.3612 9.45693 16.3447 8.91228 16.6251L4.38998 18.8517C3.84533 19.1156 3.48222 18.8517 3.56475 18.2579L4.32396 13.277C4.42299 12.6833 4.14241 11.8421 3.72979 11.3968L0.247297 7.78483C-0.181826 7.35601 -0.0332837 6.9107 0.560886 6.81174L5.52881 6.00358C6.12298 5.90462 6.84919 5.39333 7.12977 4.84906L9.47344 0.395938C9.75402 -0.148332 10.2162 -0.131839 10.4967 0.395938L12.8074 4.86556C13.088 5.40983 13.7977 5.92111 14.3918 6.03656L19.3598 6.8942C19.9539 6.99316 20.1025 7.43847 19.6734 7.86729L16.1248 11.4463C15.6957 11.8751 15.4151 12.7162 15.5142 13.31L16.2404 18.2909H16.2239Z" fill="url(#paint0_radial_175_4095)"/>
        <path style="mix-blend-mode:multiply" opacity="0.5" d="M9.98509 0.247396C10.0841 0.247396 10.1831 0.346354 10.2657 0.511285L12.5763 4.9809C12.8899 5.59115 13.6656 6.15191 14.3423 6.28385L19.3103 7.14149C19.4918 7.17448 19.6238 7.24045 19.6569 7.33941C19.6899 7.42187 19.6238 7.55382 19.4918 7.70226L15.9433 11.2812C15.4647 11.776 15.1511 12.6832 15.2501 13.3594L15.9763 18.3403C15.9928 18.5052 15.9763 18.6372 15.9268 18.7031C15.9268 18.7031 15.8773 18.7526 15.7947 18.7526C15.7122 18.7526 15.6132 18.7196 15.5142 18.6701L11.0084 16.4106C10.7113 16.2622 10.3152 16.1797 9.90256 16.1797C9.48994 16.1797 9.11033 16.2622 8.81325 16.4106L4.29095 18.6372C4.19193 18.6866 4.0929 18.7196 4.01037 18.7196C3.91135 18.7196 3.87834 18.6701 3.87834 18.6701C3.82882 18.6042 3.79581 18.4722 3.82882 18.3073L4.58804 13.3264C4.68707 12.6502 4.40649 11.7266 3.92785 11.2483L0.412344 7.6033C0.280306 7.47135 0.214287 7.33941 0.247297 7.24045C0.280306 7.15799 0.412344 7.07552 0.593896 7.04253L5.56182 6.23437C6.23851 6.11892 7.01423 5.55816 7.34433 4.94792L9.7045 0.511285C9.78703 0.346354 9.90256 0.247396 10.0016 0.247396M9.98509 0C9.80353 0 9.62198 0.131944 9.47344 0.395833L7.12977 4.84896C6.84919 5.39323 6.12298 5.90451 5.52881 6.00347L0.560886 6.81163C-0.0332837 6.91059 -0.181826 7.33941 0.247297 7.78472L3.7628 11.3967C4.19193 11.8255 4.456 12.6667 4.35697 13.2769L3.59776 18.2578C3.53174 18.7031 3.71329 18.967 4.02688 18.967C4.14241 18.967 4.27445 18.934 4.40649 18.8681L8.92878 16.6415C9.19286 16.5095 9.55596 16.4436 9.90256 16.4436C10.2492 16.4436 10.6288 16.5095 10.8928 16.6415L15.3986 18.901C15.5472 18.967 15.6792 19 15.7947 19C16.1083 19 16.2899 18.7361 16.2239 18.3073L15.4977 13.3264C15.4151 12.7326 15.6957 11.8915 16.1083 11.4627L19.6569 7.88368C20.086 7.45486 19.9374 7.02604 19.3433 6.91059L14.3753 6.05295C13.7812 5.95399 13.055 5.42622 12.7909 4.88194L10.4967 0.412326C10.3647 0.131944 10.1666 0 9.98509 0Z" fill="url(#paint1_radial_175_4095)"/>
        <path d="M42.252 18.2909C42.3345 18.8847 41.9714 19.165 41.4268 18.8847L36.921 16.6251C36.3763 16.3612 35.4851 16.3447 34.9404 16.6251L30.4181 18.8517C29.8735 19.1156 29.5104 18.8517 29.5929 18.2579L30.3521 13.277C30.4511 12.6833 30.1705 11.8421 29.7579 11.3968L26.2424 7.78483C25.8133 7.35601 25.9618 6.9107 26.556 6.81174L31.5239 6.00358C32.1181 5.90462 32.8443 5.39333 33.1249 4.84906L35.4686 0.395938C35.7491 -0.148332 36.2113 -0.131839 36.4918 0.395938L38.8025 4.86556C39.0831 5.40983 39.7928 5.92111 40.387 6.03656L45.3549 6.8942C45.9491 6.99316 46.0976 7.43847 45.6685 7.86729L42.12 11.4463C41.6908 11.8751 41.4103 12.7162 41.5093 13.31L42.2355 18.2909H42.252Z" fill="url(#paint2_radial_175_4095)"/>
        <path style="mix-blend-mode:multiply" opacity="0.5" d="M36.0134 0.247396C36.1124 0.247396 36.2115 0.346354 36.3105 0.511285L38.6212 4.9809C38.9347 5.59115 39.7105 6.15191 40.3872 6.28385L45.3551 7.14149C45.5366 7.17448 45.6687 7.24045 45.7017 7.33941C45.7347 7.42187 45.6687 7.55382 45.5366 7.70226L41.9881 11.2812C41.5095 11.776 41.1959 12.6832 41.2949 13.3594L42.0211 18.3403C42.0376 18.5052 42.0211 18.6372 41.9716 18.7031C41.9716 18.7031 41.9221 18.7526 41.8396 18.7526C41.7571 18.7526 41.658 18.7196 41.559 18.6701L37.0532 16.4106C36.7561 16.2622 36.36 16.1797 35.9474 16.1797C35.5348 16.1797 35.1552 16.2622 34.8581 16.4106L30.3358 18.6372C30.2367 18.6866 30.1377 18.7196 30.0552 18.7196C29.9562 18.7196 29.9232 18.6701 29.9067 18.6701C29.8571 18.6042 29.8241 18.4722 29.8571 18.3073L30.6164 13.3264C30.7154 12.6502 30.4183 11.7266 29.9397 11.2483L26.4242 7.63628C26.2921 7.50434 26.2261 7.3724 26.2591 7.27344C26.2921 7.19097 26.4242 7.10851 26.6057 7.07552L31.5736 6.26736C32.2503 6.15191 33.026 5.59115 33.3561 4.9809L35.6998 0.527778C35.7823 0.362847 35.8979 0.263889 35.9969 0.263889M36.0134 0C35.8319 0 35.6503 0.131944 35.5018 0.395833L33.1581 4.84896C32.8775 5.39323 32.1513 5.90451 31.5571 6.00347L26.5892 6.81163C25.995 6.91059 25.8465 7.33941 26.2756 7.78472L29.7911 11.3967C30.2202 11.8255 30.4843 12.6667 30.3853 13.2769L29.6261 18.2578C29.5601 18.7031 29.7416 18.967 30.0552 18.967C30.1707 18.967 30.3028 18.934 30.4348 18.8681L34.9571 16.6415C35.2212 16.5095 35.5843 16.4436 35.9309 16.4436C36.2775 16.4436 36.6571 16.5095 36.9212 16.6415L41.427 18.901C41.5755 18.967 41.7075 19 41.8231 19C42.1367 19 42.3182 18.7361 42.2522 18.3073L41.526 13.3264C41.4435 12.7326 41.724 11.8915 42.1367 11.4627L45.6852 7.88368C46.1143 7.45486 45.9658 7.02604 45.3716 6.91059L40.4037 6.05295C39.8095 5.95399 39.0998 5.42622 38.8192 4.88194L36.5085 0.412326C36.36 0.148438 36.1785 0 35.9969 0L36.0134 0Z" fill="url(#paint3_radial_175_4095)"/>
        <path d="M68.2628 18.2909C68.3454 18.8847 67.9823 19.165 67.4376 18.8847L62.9318 16.6251C62.3872 16.3612 61.4959 16.3447 60.9677 16.6251L56.4455 18.8517C55.9008 19.1156 55.5377 18.8517 55.6202 18.2579L56.3794 13.277C56.4785 12.6833 56.1979 11.8421 55.7853 11.3968L52.2698 7.78483C51.8406 7.35601 51.9892 6.9107 52.5833 6.81174L57.5513 6.00358C58.1454 5.90462 58.8716 5.39333 59.1522 4.84906L61.4959 0.395938C61.7765 -0.148332 62.2386 -0.131839 62.5192 0.395938L64.8299 4.86556C65.1104 5.40983 65.8201 5.92111 66.4143 6.03656L71.3822 6.8942C71.9764 6.99316 72.1249 7.43847 71.6958 7.86729L68.1473 11.4463C67.7182 11.8751 67.4376 12.7162 67.5366 13.31L68.2628 18.2909Z" fill="url(#paint4_radial_175_4095)"/>
        <path style="mix-blend-mode:multiply" opacity="0.5" d="M62.0241 0.247396C62.1232 0.247396 62.2222 0.346354 62.3212 0.511285L64.6319 4.9809C64.9455 5.59115 65.7212 6.15191 66.3979 6.28385L71.3658 7.14149C71.5474 7.17448 71.6794 7.24045 71.7124 7.33941C71.7454 7.42187 71.6794 7.55382 71.5474 7.70226L67.9989 11.2812C67.5202 11.776 67.2066 12.6832 67.3057 13.3594L68.0319 18.3403C68.0484 18.5052 68.0319 18.6372 67.9824 18.7031C67.9824 18.7031 67.9328 18.7526 67.8503 18.7526C67.7678 18.7526 67.6688 18.7196 67.5697 18.6701L63.0639 16.4106C62.7669 16.2622 62.3707 16.1797 61.9581 16.1797C61.5455 16.1797 61.1659 16.2622 60.8688 16.4106L56.3465 18.6372C56.2475 18.6866 56.1485 18.7196 56.0659 18.7196C55.9669 18.7196 55.9339 18.6701 55.9174 18.6701C55.8679 18.6042 55.8349 18.4722 55.8679 18.3073L56.6271 13.3264C56.7261 12.6502 56.429 11.7266 55.9504 11.2483L52.4349 7.63628C52.3029 7.50434 52.2368 7.3724 52.2699 7.27344C52.3029 7.19097 52.4349 7.10851 52.6165 7.07552L57.5844 6.26736C58.2611 6.15191 59.0368 5.59115 59.3669 4.9809L61.7106 0.527778C61.7931 0.362847 61.9086 0.263889 62.0076 0.263889M62.0241 0C61.8426 0 61.661 0.131944 61.5125 0.395833L59.1688 4.84896C58.8882 5.39323 58.162 5.90451 57.5679 6.00347L52.5999 6.81163C52.0058 6.91059 51.8572 7.33941 52.2864 7.78472L55.8019 11.3967C56.231 11.8255 56.4951 12.6667 56.396 13.2769L55.6368 18.2578C55.5708 18.7031 55.7524 18.967 56.0659 18.967C56.1815 18.967 56.3135 18.934 56.4456 18.8681L60.9678 16.6415C61.2319 16.5095 61.595 16.4436 61.9416 16.4436C62.2882 16.4436 62.6678 16.5095 62.9319 16.6415L67.4377 18.901C67.5862 18.967 67.7183 19 67.8338 19C68.1474 19 68.329 18.7361 68.2629 18.3073L67.5367 13.3264C67.4542 12.7326 67.7348 11.8915 68.1474 11.4627L71.6959 7.88368C72.125 7.45486 71.9765 7.02604 71.3823 6.91059L66.4144 6.05295C65.8202 5.95399 65.094 5.42622 64.8299 4.88194L62.5193 0.412326C62.3873 0.148438 62.1892 0 62.0076 0L62.0241 0Z" fill="url(#paint5_radial_175_4095)"/>
        <path d="M94.2911 18.2909C94.3736 18.8847 94.0105 19.165 93.4658 18.8847L88.96 16.6251C88.4154 16.3612 87.5241 16.3447 86.9795 16.6251L82.4572 18.8517C81.9125 19.1156 81.5494 18.8517 81.6319 18.2579L82.3912 13.277C82.4902 12.6833 82.2096 11.8421 81.797 11.3968L78.2815 7.78483C77.8524 7.35601 78.0009 6.9107 78.5951 6.81174L83.563 6.00358C84.1572 5.90462 84.8834 5.39333 85.1639 4.84906L87.5076 0.395938C87.7882 -0.148332 88.2503 -0.131839 88.5309 0.395938L90.8416 4.86556C91.1222 5.40983 91.8319 5.92111 92.426 6.03656L97.3939 6.8942C97.9881 6.99316 98.1367 7.43847 97.7075 7.86729L94.159 11.4463C93.7299 11.8751 93.4493 12.7162 93.5483 13.31L94.2746 18.2909H94.2911Z" fill="url(#paint6_radial_175_4095)"/>
        <path style="mix-blend-mode:multiply" opacity="0.5" d="M88.0525 0.247396C88.1515 0.247396 88.2505 0.346354 88.3495 0.511285L90.6602 4.9809C90.9738 5.59115 91.7495 6.15191 92.4262 6.28385L97.3941 7.14149C97.5757 7.17448 97.7077 7.24045 97.7407 7.33941C97.7738 7.42187 97.7077 7.55382 97.5757 7.70226L94.0272 11.2812C93.5485 11.776 93.2349 12.6832 93.334 13.3594L94.0602 18.3403C94.0767 18.5052 94.0602 18.6372 94.0107 18.7031C94.0107 18.7031 93.9612 18.7526 93.8786 18.7526C93.7961 18.7526 93.6971 18.7196 93.5981 18.6701L89.0923 16.4106C88.7952 16.2622 88.3991 16.1797 87.9865 16.1797C87.5738 16.1797 87.1942 16.2622 86.8971 16.4106L82.3748 18.6372C82.2758 18.6866 82.1768 18.7196 82.0943 18.7196C81.9952 18.7196 81.9622 18.6701 81.9457 18.6701C81.8962 18.6042 81.8632 18.4722 81.8962 18.3073L82.6554 13.3264C82.7545 12.6502 82.4739 11.7266 81.9952 11.2483L78.4797 7.63628C78.3477 7.50434 78.2817 7.3724 78.3147 7.27344C78.3477 7.19097 78.4797 7.10851 78.6613 7.07552L83.6292 6.26736C84.3059 6.15191 85.0816 5.59115 85.4117 4.9809L87.7554 0.527778C87.8379 0.362847 87.9534 0.263889 88.0525 0.263889M88.0525 0C87.8709 0 87.6894 0.131944 87.5408 0.395833L85.1971 4.84896C84.9166 5.39323 84.1904 5.90451 83.5962 6.00347L78.6283 6.81163C78.0341 6.91059 77.8856 7.33941 78.3147 7.78472L81.8302 11.3967C82.2593 11.8255 82.5234 12.6667 82.4244 13.2769L81.6651 18.2578C81.5991 18.7031 81.7807 18.967 82.0943 18.967C82.2098 18.967 82.3418 18.934 82.4739 18.8681L86.9962 16.6415C87.2602 16.5095 87.6233 16.4436 87.9699 16.4436C88.3165 16.4436 88.6962 16.5095 88.9602 16.6415L93.466 18.901C93.6146 18.967 93.7466 19 93.8621 19C94.1757 19 94.3573 18.7361 94.2913 18.3073L93.565 13.3264C93.4825 12.7326 93.7631 11.8915 94.1757 11.4627L97.7242 7.88368C98.1534 7.45486 98.0048 7.02604 97.4106 6.91059L92.4427 6.05295C91.8486 5.95399 91.1223 5.42622 90.8583 4.88194L88.5476 0.412326C88.4156 0.148438 88.2175 0 88.036 0L88.0525 0Z" fill="url(#paint7_radial_175_4095)"/>
        <path d="M120.303 18.2909C120.385 18.8847 120.022 19.165 119.478 18.8847L114.972 16.6251C114.427 16.3612 113.536 16.3447 113.008 16.6251L108.485 18.8517C107.941 19.1156 107.578 18.8517 107.66 18.2579L108.419 13.277C108.519 12.6833 108.238 11.8421 107.825 11.3968L104.31 7.78483C103.881 7.35601 104.029 6.9107 104.623 6.81174L109.591 6.00358C110.185 5.90462 110.912 5.39333 111.192 4.84906L113.536 0.395938C113.817 -0.148332 114.279 -0.131839 114.559 0.395938L116.87 4.86556C117.15 5.40983 117.86 5.92111 118.454 6.03656L123.422 6.8942C124.016 6.99316 124.165 7.43847 123.736 7.86729L120.187 11.4463C119.758 11.8751 119.478 12.7162 119.56 13.31L120.286 18.2909H120.303Z" fill="url(#paint8_radial_175_4095)"/>
        <path style="mix-blend-mode:multiply" opacity="0.5" d="M114.064 0.247396C114.163 0.247396 114.262 0.346354 114.361 0.511285L116.672 4.9809C116.986 5.59115 117.761 6.15191 118.438 6.28385L123.406 7.14149C123.587 7.17448 123.719 7.24045 123.752 7.33941C123.785 7.42187 123.719 7.55382 123.587 7.70226L120.039 11.2812C119.56 11.776 119.247 12.6832 119.346 13.3594L120.072 18.3403C120.088 18.5052 120.072 18.6372 120.022 18.7031C120.022 18.7031 119.973 18.7526 119.89 18.7526C119.808 18.7526 119.709 18.7196 119.61 18.6701L115.104 16.4106C114.807 16.2622 114.411 16.1797 113.998 16.1797C113.586 16.1797 113.206 16.2622 112.909 16.4106L108.387 18.6372C108.288 18.6866 108.189 18.7196 108.106 18.7196C108.007 18.7196 107.974 18.6701 107.974 18.6701C107.908 18.6042 107.891 18.4722 107.924 18.3073L108.684 13.3264C108.783 12.6502 108.502 11.7266 108.007 11.2483L104.491 7.63628C104.359 7.50434 104.293 7.3724 104.326 7.27344C104.359 7.19097 104.491 7.10851 104.673 7.07552L109.641 6.26736C110.318 6.15191 111.093 5.59115 111.423 4.9809L113.767 0.527778C113.85 0.362847 113.965 0.263889 114.064 0.263889M114.064 0C113.883 0 113.701 0.131944 113.553 0.395833L111.209 4.84896C110.928 5.39323 110.202 5.90451 109.608 6.00347L104.64 6.81163C104.046 6.91059 103.897 7.33941 104.326 7.78472L107.842 11.3967C108.271 11.8255 108.535 12.6667 108.436 13.2769L107.677 18.2578C107.611 18.7031 107.792 18.967 108.106 18.967C108.222 18.967 108.354 18.934 108.486 18.8681L113.008 16.6415C113.272 16.5095 113.635 16.4436 113.982 16.4436C114.328 16.4436 114.708 16.5095 114.972 16.6415L119.478 18.901C119.626 18.967 119.758 19 119.874 19C120.187 19 120.369 18.7361 120.303 18.3073L119.577 13.3264C119.494 12.7326 119.775 11.8915 120.204 11.4627L123.752 7.88368C124.182 7.45486 124.033 7.02604 123.439 6.91059L118.471 6.05295C117.877 5.95399 117.167 5.42622 116.886 4.88194L114.576 0.412326C114.444 0.148438 114.246 0 114.064 0Z" fill="url(#paint9_radial_175_4095)"/>
    </g>
    <defs>
        <radialGradient id="paint0_radial_175_4095" cx="0" cy="0" r="1" gradientUnits="userSpaceOnUse" gradientTransform="translate(3.38319 19.231) scale(20.829 20.8142)">
            <stop offset="0.35" stop-color="#FFC200"/>
            <stop offset="0.51" stop-color="#FFBC06"/>
            <stop offset="0.72" stop-color="#FFAE18"/>
            <stop offset="0.98" stop-color="#FF9736"/>
            <stop offset="1" stop-color="#FF953A"/>
        </radialGradient>
        <radialGradient id="paint1_radial_175_4095" cx="0" cy="0" r="1" gradientUnits="userSpaceOnUse" gradientTransform="translate(1.79874 24.3932) scale(30.1211 30.0998)">
            <stop offset="0.35" stop-color="#FFC200"/>
            <stop offset="0.51" stop-color="#FFBC06"/>
            <stop offset="0.72" stop-color="#FFAE18"/>
            <stop offset="0.98" stop-color="#FF9736"/>
            <stop offset="1" stop-color="#FF953A"/>
        </radialGradient>
        <radialGradient id="paint2_radial_175_4095" cx="0" cy="0" r="1" gradientUnits="userSpaceOnUse" gradientTransform="translate(29.3948 0.824758) scale(20.829 20.8142)">
            <stop offset="0.35" stop-color="#FFC200"/>
            <stop offset="0.51" stop-color="#FFBC06"/>
            <stop offset="0.72" stop-color="#FFAE18"/>
            <stop offset="0.98" stop-color="#FF9736"/>
            <stop offset="1" stop-color="#FF953A"/>
        </radialGradient>
        <radialGradient id="paint3_radial_175_4095" cx="0" cy="0" r="1" gradientUnits="userSpaceOnUse" gradientTransform="translate(27.8106 24.3932) scale(30.1211 30.0998)">
            <stop offset="0.35" stop-color="#FFC200"/>
            <stop offset="0.51" stop-color="#FFBC06"/>
            <stop offset="0.72" stop-color="#FFAE18"/>
            <stop offset="0.98" stop-color="#FF9736"/>
            <stop offset="1" stop-color="#FF953A"/>
        </radialGradient>
        <radialGradient id="paint4_radial_175_4095" cx="0" cy="0" r="1" gradientUnits="userSpaceOnUse" gradientTransform="translate(55.4222 0.824758) scale(20.829 20.8142)">
            <stop offset="0.35" stop-color="#FFC200"/>
            <stop offset="0.51" stop-color="#FFBC06"/>
            <stop offset="0.72" stop-color="#FFAE18"/>
            <stop offset="0.98" stop-color="#FF9736"/>
            <stop offset="1" stop-color="#FF953A"/>
        </radialGradient>
        <radialGradient id="paint5_radial_175_4095" cx="0" cy="0" r="1" gradientUnits="userSpaceOnUse" gradientTransform="translate(53.8378 24.3932) scale(30.1211 30.0998)">
            <stop offset="0.35" stop-color="#FFC200"/>
            <stop offset="0.51" stop-color="#FFBC06"/>
            <stop offset="0.72" stop-color="#FFAE18"/>
            <stop offset="0.98" stop-color="#FF9736"/>
            <stop offset="1" stop-color="#FF953A"/>
        </radialGradient>
        <radialGradient id="paint6_radial_175_4095" cx="0" cy="0" r="1" gradientUnits="userSpaceOnUse" gradientTransform="translate(81.4339 19.231) scale(20.829 20.8142)">
            <stop offset="0.35" stop-color="#DBDBDB"/>
            <stop offset="0.55" stop-color="#D4D4D4"/>
            <stop offset="0.82" stop-color="#C2C2C2"/>
            <stop offset="0.99" stop-color="#B3B3B3"/>
        </radialGradient>
        <radialGradient id="paint7_radial_175_4095" cx="0" cy="0" r="1" gradientUnits="userSpaceOnUse" gradientTransform="translate(79.8496 24.3932) scale(30.1211 30.0998)">
            <stop offset="0.35" stop-color="#DBDBDB"/>
            <stop offset="0.55" stop-color="#D4D4D4"/>
            <stop offset="0.82" stop-color="#C2C2C2"/>
            <stop offset="0.99" stop-color="#B3B3B3"/>
        </radialGradient>
        <radialGradient id="paint8_radial_175_4095" cx="0" cy="0" r="1" gradientUnits="userSpaceOnUse" gradientTransform="translate(107.462 0.824758) scale(20.829 20.8142)">
            <stop offset="0.35" stop-color="#DBDBDB"/>
            <stop offset="0.55" stop-color="#D4D4D4"/>
            <stop offset="0.82" stop-color="#C2C2C2"/>
            <stop offset="0.99" stop-color="#B3B3B3"/>
        </radialGradient>
        <radialGradient id="paint9_radial_175_4095" cx="0" cy="0" r="1" gradientUnits="userSpaceOnUse" gradientTransform="translate(105.878 24.3932) scale(30.1211 30.0998)">
            <stop offset="0.35" stop-color="#DBDBDB"/>
            <stop offset="0.55" stop-color="#D4D4D4"/>
            <stop offset="0.82" stop-color="#C2C2C2"/>
            <stop offset="0.99" stop-color="#B3B3B3"/>
        </radialGradient>
        <clipPath id="clip0_175_4095">
            <rect width="124" height="19" fill="white"/>
        </clipPath>
    </defs>
</svg>
