<svg width="124" height="19" viewBox="0 0 124 19" fill="none"
    xmlns="http://www.w3.org/2000/svg">
    <g clip-path="url(#clip0_175_4059)">
        <path d="M16.2239 18.2909C16.3064 18.8847 15.9433 19.165 15.3986 18.8847L10.8928 16.6251C10.3482 16.3447 9.45693 16.3447 8.91228 16.6251L4.38998 18.8517C3.84533 19.1156 3.48222 18.8517 3.56475 18.2414L4.32396 13.2605C4.42299 12.6668 4.14241 11.8091 3.72979 11.3803L0.247297 7.78483C-0.181826 7.35601 -0.0332837 6.9107 0.560886 6.81174L5.52881 6.00358C6.12298 5.90462 6.84919 5.39333 7.12977 4.84906L9.47344 0.395938C9.75402 -0.148332 10.2162 -0.131839 10.4967 0.395938L12.8074 4.86556C13.088 5.40983 13.7977 5.92111 14.3918 6.03656L19.3598 6.8942C19.9539 6.99316 20.1025 7.43847 19.6734 7.86729L16.1248 11.4463C15.6957 11.8751 15.4151 12.7162 15.5142 13.31L16.2404 18.2909H16.2239Z" fill="url(#paint0_radial_175_4059)"/>
        <path style="mix-blend-mode:multiply" opacity="0.5" d="M9.98518 0.247396C10.0842 0.247396 10.1832 0.346354 10.2658 0.511285L12.5764 4.9809C12.89 5.59115 13.6657 6.15191 14.3424 6.28385L19.3104 7.14149C19.4919 7.17448 19.6239 7.24045 19.6569 7.33941C19.69 7.42187 19.6239 7.55382 19.4919 7.70226L15.9434 11.2812C15.4648 11.776 15.1512 12.6832 15.2502 13.3594L15.9764 18.3403C15.9929 18.5052 15.9764 18.6372 15.9269 18.7031C15.9269 18.7031 15.8774 18.7526 15.7948 18.7526C15.7123 18.7526 15.6133 18.7196 15.5143 18.6701L11.0085 16.4106C10.7114 16.2622 10.3153 16.1797 9.90266 16.1797C9.49004 16.1797 9.11043 16.2622 8.81335 16.4106L4.29105 18.6372C4.19202 18.6866 4.09299 18.7196 4.01047 18.7196C3.91144 18.7196 3.87843 18.6866 3.87843 18.6701C3.82892 18.6042 3.79591 18.4722 3.82892 18.3073L4.58814 13.3264C4.68716 12.6502 4.40658 11.7266 3.92795 11.2318L0.412441 7.6033C0.280403 7.47135 0.214384 7.33941 0.247393 7.24045C0.280403 7.15799 0.412441 7.07552 0.593993 7.04253L5.56191 6.23437C6.23861 6.11892 7.01433 5.55816 7.34442 4.94792L9.7046 0.511285C9.78712 0.346354 9.90266 0.247396 10.0017 0.247396M10.0017 0C9.82013 0 9.63858 0.131944 9.49004 0.395833L7.14637 4.84896C6.86579 5.39323 6.13958 5.90451 5.54541 6.00347L0.577488 6.81163C-0.0166821 6.91059 -0.165225 7.33941 0.263898 7.78472L3.7794 11.3967C4.20853 11.8255 4.4726 12.6667 4.37357 13.2769L3.61436 18.2578C3.54834 18.7031 3.72989 18.967 4.04348 18.967C4.15901 18.967 4.29105 18.934 4.42309 18.8681L8.94538 16.6415C9.20946 16.5095 9.57256 16.4436 9.91916 16.4436C10.2658 16.4436 10.6454 16.5095 10.9094 16.6415L15.4152 18.901C15.5638 18.967 15.6958 19 15.8113 19C16.1249 19 16.3065 18.7361 16.2405 18.2908L15.5143 13.3099C15.4317 12.7161 15.7123 11.875 16.1249 11.4462L19.6735 7.86719C20.1026 7.43837 19.954 6.99305 19.3599 6.8941L14.3919 6.03646C13.7978 5.9375 13.0716 5.40972 12.8075 4.86545L10.4968 0.412326C10.3648 0.148438 10.1667 0 9.98518 0H10.0017Z" fill="url(#paint1_radial_175_4059)"/>
        <path d="M42.252 18.2908C42.3345 18.8845 41.9714 19.1649 41.4268 18.8845L36.921 16.625C36.3763 16.3446 35.4851 16.3446 34.9404 16.625L30.4181 18.8516C29.8735 19.1154 29.5104 18.8516 29.5929 18.2413L30.3521 13.2604C30.4511 12.6667 30.1705 11.809 29.7579 11.3802L26.2424 7.76823C25.8133 7.33941 25.9618 6.89409 26.556 6.79514L31.5239 5.98698C32.1181 5.88802 32.8443 5.37673 33.1249 4.83246L35.4686 0.379337C35.7491 -0.164934 36.2113 -0.148441 36.4918 0.379337L38.8025 4.84895C39.0831 5.39323 39.7928 5.90451 40.387 6.01996L45.3549 6.8776C45.9491 6.97656 46.0976 7.42187 45.6685 7.85069L42.12 11.4297C41.6908 11.8585 41.4103 12.6996 41.5093 13.2934L42.2355 18.2743L42.252 18.2908Z" fill="url(#paint2_radial_175_4059)"/>
        <path style="mix-blend-mode:multiply" opacity="0.5" d="M36.0133 0.247287C36.1123 0.247287 36.2114 0.346246 36.3104 0.511176L38.6211 4.98079C38.9346 5.59104 39.7104 6.1518 40.3871 6.28375L45.355 7.14138C45.5365 7.17437 45.6686 7.24034 45.7016 7.3393C45.7346 7.42177 45.6686 7.55371 45.5365 7.70215L41.988 11.2811C41.5094 11.7759 41.1958 12.6831 41.2948 13.3593L42.021 18.3402C42.0375 18.5051 42.021 18.637 41.9715 18.703C41.9715 18.703 41.922 18.7525 41.8395 18.7525C41.757 18.7525 41.6579 18.7195 41.5589 18.67L37.0531 16.4105C36.756 16.262 36.3599 16.1796 35.9473 16.1796C35.5347 16.1796 35.1551 16.262 34.858 16.4105L30.3357 18.637C30.2367 18.6865 30.1376 18.7195 30.0551 18.7195C29.9561 18.7195 29.9231 18.6865 29.9066 18.67C29.857 18.6041 29.824 18.4721 29.857 18.3072L30.6163 13.3263C30.7153 12.6501 30.4182 11.7265 29.9396 11.2317L26.4241 7.61968C26.292 7.48774 26.226 7.35579 26.259 7.25684C26.292 7.17437 26.4241 7.09191 26.6056 7.05892L31.5735 6.25076C32.2502 6.13531 33.026 5.57454 33.356 4.9643L35.6997 0.511176C35.7822 0.346246 35.8978 0.247287 35.9968 0.247287M35.9968 -0.000108508C35.8153 -0.000108508 35.6337 0.131836 35.4852 0.395725L33.1415 4.84885C32.8609 5.39312 32.1347 5.90441 31.5405 6.00336L26.5726 6.81152C25.9784 6.91048 25.8299 7.3393 26.259 7.78461L29.7745 11.3966C30.2036 11.8254 30.4677 12.6666 30.3687 13.2768L29.6095 18.2577C29.5435 18.703 29.725 18.9669 30.0386 18.9669C30.1541 18.9669 30.2862 18.9339 30.4182 18.8679L34.9405 16.6414C35.2046 16.5094 35.5677 16.4435 35.9143 16.4435C36.2609 16.4435 36.6405 16.5094 36.9046 16.6414L41.4104 18.9009C41.5589 18.9669 41.6909 18.9999 41.8065 18.9999C42.1201 18.9999 42.3016 18.736 42.2356 18.2907L41.5094 13.3098C41.4269 12.716 41.7074 11.8749 42.1201 11.4461L45.6686 7.86708C46.0977 7.43826 45.9492 6.99295 45.355 6.89399L40.3871 6.03635C39.7929 5.93739 39.0832 5.40961 38.8026 4.86534L36.4919 0.395725C36.3434 0.131836 36.1618 -0.0166016 35.9803 -0.0166016L35.9968 -0.000108508Z" fill="url(#paint3_radial_175_4059)"/>
        <path d="M68.2628 18.2908C68.3454 18.8845 67.9823 19.1649 67.4376 18.8845L62.9318 16.625C62.3872 16.3446 61.4959 16.3446 60.9677 16.625L56.4455 18.8516C55.9008 19.1154 55.5377 18.8516 55.6202 18.2413L56.3794 13.2604C56.4785 12.6667 56.1979 11.809 55.7853 11.3802L52.2698 7.76823C51.8406 7.33941 51.9892 6.89409 52.5833 6.79514L57.5513 5.98698C58.1454 5.88802 58.8716 5.37673 59.1522 4.83246L61.4959 0.379337C61.7765 -0.164934 62.2386 -0.148441 62.5192 0.379337L64.8299 4.84895C65.1104 5.39323 65.8201 5.90451 66.4143 6.01996L71.3822 6.8776C71.9764 6.97656 72.1249 7.42187 71.6958 7.85069L68.1473 11.4297C67.7182 11.8585 67.4376 12.6996 67.5366 13.2934L68.2628 18.2743V18.2908Z" fill="url(#paint4_radial_175_4059)"/>
        <path style="mix-blend-mode:multiply" opacity="0.5" d="M62.0241 0.247287C62.1231 0.247287 62.2221 0.346246 62.3211 0.511176L64.6318 4.98079C64.9454 5.59104 65.7211 6.1518 66.3978 6.28375L71.3657 7.14138C71.5473 7.17437 71.6793 7.24034 71.7123 7.3393C71.7453 7.42177 71.6793 7.55371 71.5473 7.70215L67.9988 11.2811C67.5201 11.7759 67.2065 12.6831 67.3056 13.3593L68.0318 18.3402C68.0483 18.5051 68.0318 18.637 67.9823 18.703C67.9823 18.703 67.9327 18.7525 67.8502 18.7525C67.7677 18.7525 67.6687 18.7195 67.5696 18.67L63.0638 16.4105C62.7668 16.262 62.3707 16.1796 61.958 16.1796C61.5454 16.1796 61.1658 16.262 60.8687 16.4105L56.3464 18.637C56.2474 18.6865 56.1484 18.7195 56.0658 18.7195C55.9668 18.7195 55.9338 18.6865 55.9173 18.67C55.8678 18.6041 55.8348 18.4721 55.8678 18.3072L56.627 13.3263C56.726 12.6501 56.429 11.7265 55.9503 11.2317L52.4348 7.61968C52.3028 7.48774 52.2367 7.35579 52.2698 7.25684C52.3028 7.17437 52.4348 7.09191 52.6164 7.05892L57.5843 6.25076C58.261 6.13531 59.0367 5.57454 59.3668 4.9643L61.7105 0.511176C61.793 0.346246 61.9085 0.247287 62.0075 0.247287M62.0075 -0.000108508C61.826 -0.000108508 61.6444 0.131836 61.4959 0.395725L59.1522 4.84885C58.8716 5.39312 58.1454 5.90441 57.5513 6.00336L52.5833 6.81152C51.9892 6.91048 51.8406 7.3393 52.2698 7.78461L55.7853 11.3966C56.2144 11.8254 56.4785 12.6666 56.3794 13.2768L55.6202 18.2577C55.5542 18.703 55.7357 18.9669 56.0493 18.9669C56.1649 18.9669 56.2969 18.9339 56.4289 18.8679L60.9512 16.6414C61.2153 16.5094 61.5784 16.4435 61.925 16.4435C62.2716 16.4435 62.6512 16.5094 62.9153 16.6414L67.4211 18.9009C67.5696 18.9669 67.7017 18.9999 67.8172 18.9999C68.1308 18.9999 68.3123 18.736 68.2463 18.2907L67.5201 13.3098C67.4376 12.716 67.7182 11.8749 68.1308 11.4461L71.6793 7.86708C72.1084 7.43826 71.9599 6.99295 71.3657 6.89399L66.3978 6.03635C65.8036 5.93739 65.0774 5.40961 64.8133 4.86534L62.5027 0.395725C62.3706 0.131836 62.1726 -0.0166016 61.991 -0.0166016L62.0075 -0.000108508Z" fill="url(#paint5_radial_175_4059)"/>
        <path d="M94.2911 18.2908C94.3736 18.8845 94.0105 19.1649 93.4658 18.8845L88.96 16.625C88.4154 16.3446 87.5241 16.3446 86.9795 16.625L82.4572 18.8516C81.9125 19.1154 81.5494 18.8516 81.6319 18.2413L82.3912 13.2604C82.4902 12.6667 82.2096 11.809 81.797 11.3802L78.2815 7.76823C77.8524 7.33941 78.0009 6.89409 78.5951 6.79514L83.563 5.98698C84.1572 5.88802 84.8834 5.37673 85.1639 4.83246L87.5076 0.379337C87.7882 -0.164934 88.2503 -0.148441 88.5309 0.379337L90.8416 4.84895C91.1222 5.39323 91.8319 5.90451 92.426 6.01996L97.3939 6.8776C97.9881 6.97656 98.1367 7.42187 97.7075 7.85069L94.159 11.4297C93.7299 11.8585 93.4493 12.6996 93.5483 13.2934L94.2746 18.2743L94.2911 18.2908Z" fill="url(#paint6_radial_175_4059)"/>
        <path style="mix-blend-mode:multiply" opacity="0.5" d="M88.0525 0.247287C88.1515 0.247287 88.2505 0.346246 88.3495 0.511176L90.6602 4.98079C90.9738 5.59104 91.7495 6.1518 92.4262 6.28375L97.3941 7.14138C97.5757 7.17437 97.7077 7.24034 97.7407 7.3393C97.7738 7.42177 97.7077 7.55371 97.5757 7.70215L94.0272 11.2811C93.5485 11.7759 93.2349 12.6831 93.334 13.3593L94.0602 18.3402C94.0767 18.5051 94.0602 18.637 94.0107 18.703C94.0107 18.703 93.9612 18.7525 93.8786 18.7525C93.7961 18.7525 93.6971 18.7195 93.5981 18.67L89.0923 16.4105C88.7952 16.262 88.3991 16.1796 87.9865 16.1796C87.5738 16.1796 87.1942 16.262 86.8971 16.4105L82.3748 18.637C82.2758 18.6865 82.1768 18.7195 82.0943 18.7195C81.9952 18.7195 81.9622 18.6865 81.9457 18.67C81.8962 18.6041 81.8632 18.4721 81.8962 18.3072L82.6554 13.3263C82.7545 12.6501 82.4739 11.7265 81.9952 11.2317L78.4797 7.61968C78.3477 7.48774 78.2817 7.35579 78.3147 7.25684C78.3477 7.17437 78.4797 7.09191 78.6613 7.05892L83.6292 6.25076C84.3059 6.13531 85.0816 5.57454 85.4117 4.9643L87.7554 0.511176C87.8379 0.346246 87.9534 0.247287 88.0525 0.247287ZM88.0525 -0.000108508C87.8709 -0.000108508 87.6894 0.131836 87.5408 0.395725L85.1971 4.84885C84.9166 5.39312 84.1904 5.90441 83.5962 6.00336L78.6283 6.81152C78.0341 6.91048 77.8856 7.3393 78.3147 7.78461L81.8302 11.3966C82.2593 11.8254 82.5234 12.6666 82.4244 13.2768L81.6651 18.2577C81.5991 18.703 81.7807 18.9669 82.0943 18.9669C82.2098 18.9669 82.3418 18.9339 82.4739 18.8679L86.9962 16.6414C87.2602 16.5094 87.6233 16.4435 87.9699 16.4435C88.3165 16.4435 88.6962 16.5094 88.9602 16.6414L93.466 18.9009C93.6146 18.9669 93.7466 18.9999 93.8621 18.9999C94.1757 18.9999 94.3573 18.736 94.2913 18.2907L93.565 13.3098C93.4825 12.716 93.7631 11.8749 94.1757 11.4461L97.7242 7.86708C98.1534 7.43826 98.0048 6.99295 97.4106 6.89399L92.4427 6.03635C91.8486 5.93739 91.1223 5.40961 90.8583 4.86534L88.5476 0.395725C88.4156 0.131836 88.2175 -0.0166016 88.036 -0.0166016L88.0525 -0.000108508Z" fill="url(#paint7_radial_175_4059)"/>
        <path d="M120.303 18.2908C120.385 18.8845 120.022 19.1649 119.478 18.8845L114.972 16.625C114.427 16.3446 113.536 16.3446 113.008 16.625L108.485 18.8516C107.941 19.1154 107.578 18.8516 107.66 18.2413L108.419 13.2604C108.519 12.6667 108.238 11.809 107.825 11.3802L104.31 7.76823C103.881 7.33941 104.029 6.89409 104.623 6.79514L109.591 5.98698C110.185 5.88802 110.912 5.37673 111.192 4.83246L113.536 0.379337C113.817 -0.164934 114.279 -0.148441 114.559 0.379337L116.87 4.84895C117.15 5.39323 117.86 5.90451 118.454 6.01996L123.422 6.8776C124.016 6.97656 124.165 7.42187 123.736 7.85069L120.187 11.4297C119.758 11.8585 119.478 12.6996 119.56 13.2934L120.286 18.2743L120.303 18.2908Z" fill="url(#paint8_radial_175_4059)"/>
        <path style="mix-blend-mode:multiply" opacity="0.5" d="M114.064 0.247287C114.163 0.247287 114.262 0.346246 114.361 0.511176L116.672 4.98079C116.986 5.59104 117.761 6.1518 118.438 6.28375L123.406 7.14138C123.587 7.17437 123.719 7.24034 123.752 7.3393C123.785 7.42177 123.719 7.55371 123.587 7.70215L120.039 11.2811C119.56 11.7759 119.247 12.6831 119.346 13.3593L120.072 18.3402C120.088 18.5051 120.072 18.637 120.022 18.703C120.022 18.703 119.973 18.7525 119.89 18.7525C119.808 18.7525 119.709 18.7195 119.61 18.67L115.104 16.4105C114.807 16.262 114.411 16.1796 113.998 16.1796C113.586 16.1796 113.206 16.262 112.909 16.4105L108.387 18.637C108.288 18.6865 108.189 18.7195 108.106 18.7195C108.007 18.7195 107.974 18.6865 107.974 18.67C107.908 18.6041 107.891 18.4721 107.924 18.3072L108.684 13.3263C108.783 12.6501 108.502 11.7265 108.007 11.2317L104.491 7.61968C104.359 7.48774 104.293 7.35579 104.326 7.25684C104.359 7.17437 104.491 7.09191 104.673 7.05892L109.641 6.25076C110.318 6.13531 111.093 5.57454 111.423 4.9643L113.767 0.511176C113.85 0.346246 113.965 0.247287 114.064 0.247287ZM114.064 -0.000108508C113.883 -0.000108508 113.701 0.131836 113.553 0.395725L111.209 4.84885C110.928 5.39312 110.202 5.90441 109.608 6.00336L104.64 6.81152C104.046 6.91048 103.897 7.3393 104.326 7.78461L107.842 11.3966C108.271 11.8254 108.535 12.6666 108.436 13.2768L107.677 18.2577C107.611 18.703 107.792 18.9669 108.106 18.9669C108.222 18.9669 108.354 18.9339 108.486 18.8679L113.008 16.6414C113.272 16.5094 113.635 16.4435 113.982 16.4435C114.328 16.4435 114.708 16.5094 114.972 16.6414L119.478 18.9009C119.626 18.9669 119.758 18.9999 119.874 18.9999C120.187 18.9999 120.369 18.736 120.303 18.2907L119.577 13.3098C119.494 12.716 119.775 11.8749 120.204 11.4461L123.752 7.86708C124.182 7.43826 124.033 6.99295 123.439 6.89399L118.471 6.03635C117.877 5.93739 117.167 5.40961 116.886 4.86534L114.576 0.395725C114.444 0.131836 114.246 -0.0166016 114.064 -0.0166016V-0.000108508Z" fill="url(#paint9_radial_175_4059)"/>
    </g>
    <defs>
        <radialGradient id="paint0_radial_175_4059" cx="0" cy="0" r="1" gradientUnits="userSpaceOnUse" gradientTransform="translate(3.38319 19.231) scale(20.829 20.8142)">
            <stop offset="0.35" stop-color="#FFC200"/>
            <stop offset="0.51" stop-color="#FFBC06"/>
            <stop offset="0.72" stop-color="#FFAE18"/>
            <stop offset="0.98" stop-color="#FF9736"/>
            <stop offset="1" stop-color="#FF953A"/>
        </radialGradient>
        <radialGradient id="paint1_radial_175_4059" cx="0" cy="0" r="1" gradientUnits="userSpaceOnUse" gradientTransform="translate(1.79884 24.3932) scale(30.1211 30.0998)">
            <stop offset="0.35" stop-color="#FFC200"/>
            <stop offset="0.51" stop-color="#FFBC06"/>
            <stop offset="0.72" stop-color="#FFAE18"/>
            <stop offset="0.98" stop-color="#FF9736"/>
            <stop offset="1" stop-color="#FF953A"/>
        </radialGradient>
        <radialGradient id="paint2_radial_175_4059" cx="0" cy="0" r="1" gradientUnits="userSpaceOnUse" gradientTransform="translate(29.3948 0.824649) scale(20.829 20.8142)">
            <stop offset="0.35" stop-color="#FFC200"/>
            <stop offset="0.51" stop-color="#FFBC06"/>
            <stop offset="0.72" stop-color="#FFAE18"/>
            <stop offset="0.98" stop-color="#FF9736"/>
            <stop offset="1" stop-color="#FF953A"/>
        </radialGradient>
        <radialGradient id="paint3_radial_175_4059" cx="0" cy="0" r="1" gradientUnits="userSpaceOnUse" gradientTransform="translate(27.8105 24.3931) scale(30.1211 30.0998)">
            <stop offset="0.35" stop-color="#FFC200"/>
            <stop offset="0.51" stop-color="#FFBC06"/>
            <stop offset="0.72" stop-color="#FFAE18"/>
            <stop offset="0.98" stop-color="#FF9736"/>
            <stop offset="1" stop-color="#FF953A"/>
        </radialGradient>
        <radialGradient id="paint4_radial_175_4059" cx="0" cy="0" r="1" gradientUnits="userSpaceOnUse" gradientTransform="translate(55.4222 0.824649) scale(20.829 20.8142)">
            <stop offset="0.35" stop-color="#FFC200"/>
            <stop offset="0.51" stop-color="#FFBC06"/>
            <stop offset="0.72" stop-color="#FFAE18"/>
            <stop offset="0.98" stop-color="#FF9736"/>
            <stop offset="1" stop-color="#FF953A"/>
        </radialGradient>
        <radialGradient id="paint5_radial_175_4059" cx="0" cy="0" r="1" gradientUnits="userSpaceOnUse" gradientTransform="translate(53.8377 24.3931) scale(30.1211 30.0998)">
            <stop offset="0.35" stop-color="#FFC200"/>
            <stop offset="0.51" stop-color="#FFBC06"/>
            <stop offset="0.72" stop-color="#FFAE18"/>
            <stop offset="0.98" stop-color="#FF9736"/>
            <stop offset="1" stop-color="#FF953A"/>
        </radialGradient>
        <radialGradient id="paint6_radial_175_4059" cx="0" cy="0" r="1" gradientUnits="userSpaceOnUse" gradientTransform="translate(81.4339 0.824649) scale(20.829 20.8142)">
            <stop offset="0.35" stop-color="#FFC200"/>
            <stop offset="0.51" stop-color="#FFBC06"/>
            <stop offset="0.72" stop-color="#FFAE18"/>
            <stop offset="0.98" stop-color="#FF9736"/>
            <stop offset="1" stop-color="#FF953A"/>
        </radialGradient>
        <radialGradient id="paint7_radial_175_4059" cx="0" cy="0" r="1" gradientUnits="userSpaceOnUse" gradientTransform="translate(79.8496 24.3931) scale(30.1211 30.0998)">
            <stop offset="0.35" stop-color="#FFC200"/>
            <stop offset="0.51" stop-color="#FFBC06"/>
            <stop offset="0.72" stop-color="#FFAE18"/>
            <stop offset="0.98" stop-color="#FF9736"/>
            <stop offset="1" stop-color="#FF953A"/>
        </radialGradient>
        <radialGradient id="paint8_radial_175_4059" cx="0" cy="0" r="1" gradientUnits="userSpaceOnUse" gradientTransform="translate(107.462 19.2309) scale(20.829 20.8142)">
            <stop offset="0.35" stop-color="#DBDBDB"/>
            <stop offset="0.55" stop-color="#D4D4D4"/>
            <stop offset="0.82" stop-color="#C2C2C2"/>
            <stop offset="0.99" stop-color="#B3B3B3"/>
        </radialGradient>
        <radialGradient id="paint9_radial_175_4059" cx="0" cy="0" r="1" gradientUnits="userSpaceOnUse" gradientTransform="translate(105.878 24.3931) scale(30.1211 30.0998)">
            <stop offset="0.35" stop-color="#DBDBDB"/>
            <stop offset="0.55" stop-color="#D4D4D4"/>
            <stop offset="0.82" stop-color="#C2C2C2"/>
            <stop offset="0.99" stop-color="#B3B3B3"/>
        </radialGradient>
        <clipPath id="clip0_175_4059">
            <rect width="124" height="19" fill="white"/>
        </clipPath>
    </defs>
</svg>
