<svg width="20" height="21" viewBox="0 0 20 21" fill="none"
    xmlns="http://www.w3.org/2000/svg">
    <path d="M12.5026 15.4692C16.6465 15.4692 20.005 12.2093 20.005 8.19072C20.005 4.17219 16.6465 0.921051 12.5026 0.921051C8.35873 0.921051 5.00317 4.17805 5.00317 8.19365C5.00317 12.2093 8.36175 15.4721 12.5026 15.4721V15.4692ZM6.87878 8.19072C6.87878 5.18268 9.40376 2.73408 12.5026 2.73408C15.6014 2.73408 18.1294 5.18268 18.1294 8.19072C18.1294 11.1988 15.6045 13.6474 12.5026 13.6474C9.40074 13.6474 6.87878 11.2017 6.87878 8.19072Z" fill="#023E8A"/>
    <path d="M3.20304 19.7865L7.7939 15.3344C6.72773 14.6754 5.82466 13.7967 5.14207 12.7687L0.548186 17.2119C-0.182729 17.9207 -0.182729 19.0747 0.548186 19.7865C1.28212 20.4953 2.4691 20.4953 3.20304 19.7865Z" fill="#023E8A"/>
</svg>
