<svg width="33" height="33" viewBox="0 0 33 33" fill="none"
    xmlns="http://www.w3.org/2000/svg">
    <path d="M20.9442 24.027C27.581 24.027 32.9601 18.6431 32.9601 12.0062C32.9601 5.36943 27.581 0 20.9442 0C14.3074 0 8.93311 5.37911 8.93311 12.0111C8.93311 18.6431 14.3122 24.0318 20.9442 24.0318V24.027ZM11.9371 12.0062C11.9371 7.03831 15.9811 2.9943 20.9442 2.9943C25.9073 2.9943 29.9561 7.03831 29.9561 12.0062C29.9561 16.9742 25.9121 21.0182 20.9442 21.0182C15.9763 21.0182 11.9371 16.979 11.9371 12.0062Z" fill="#0C254E"/>
    <path d="M6.05003 31.1572L13.4028 23.8045C11.6952 22.7161 10.2488 21.2649 9.15559 19.567L1.79802 26.9052C0.627386 28.0758 0.627386 29.9817 1.79802 31.1572C2.97349 32.3278 4.87456 32.3278 6.05003 31.1572Z" fill="#0C254E"/>
</svg>
