<svg width="284" height="57" viewBox="0 0 284 57" fill="none"
    xmlns="http://www.w3.org/2000/svg">
    <path d="M56.5218 24.1492V32.367C56.5218 34.372 55.726 36.2951 54.3091 37.7137C52.8923 39.1324 50.9703 39.9307 48.9653 39.9333H44.5824V35.2828H48.9653C49.7375 35.281 50.4775 34.973 51.023 34.4264C51.5686 33.8799 51.8751 33.1393 51.8755 32.367V24.1492C51.8751 23.3764 51.5685 22.6353 51.0227 22.0883C50.477 21.5412 49.7366 21.2327 48.9639 21.2305H35.2913V7.55651C35.289 6.78292 34.9798 6.04187 34.4315 5.49617C33.8831 4.95048 33.1406 4.64479 32.367 4.64628H24.1492C23.3774 4.64776 22.6377 4.955 22.092 5.50071C21.5462 6.04643 21.239 6.78615 21.2375 7.55791V18.9074C21.2383 20.7705 21.9781 22.5571 23.2947 23.8753C24.6113 25.1935 26.3971 25.9355 28.2602 25.9384C30.9518 25.9413 33.56 26.8727 35.6447 28.5753C37.7295 30.2778 39.163 32.6475 39.7035 35.2842C39.8599 36.0487 39.9378 36.8271 39.9361 37.6074V48.9569C39.9361 49.9505 39.7404 50.9344 39.3602 51.8524C38.9799 52.7704 38.4226 53.6045 37.72 54.3071C37.0174 55.0097 36.1833 55.567 35.2653 55.9472C34.3473 56.3275 33.3634 56.5232 32.3698 56.5232H24.1492C22.1441 56.5206 20.2221 55.7223 18.8053 54.3036C17.3885 52.8849 16.5926 50.9619 16.5926 48.9569V39.9333H7.56632C5.5596 39.9333 3.63508 39.1362 2.21612 37.7172C0.797163 36.2983 0 34.3737 0 32.367L0 24.1492C0 22.1424 0.797163 20.2179 2.21612 18.799C3.63508 17.38 5.5596 16.5828 7.56632 16.5828H11.9464V21.2291H7.56632C6.79247 21.2299 6.05054 21.5376 5.50335 22.0848C4.95616 22.632 4.64842 23.3739 4.64768 24.1478V32.367C4.64879 33.1405 4.95674 33.8819 5.50393 34.4286C6.05112 34.9752 6.79284 35.2825 7.56632 35.2828H21.2403V48.9569C21.2407 49.7296 21.5474 50.4707 22.0931 51.0178C22.6389 51.5648 23.3792 51.8733 24.152 51.8755H32.367C33.1409 51.8748 33.8828 51.567 34.43 51.0198C34.9772 50.4726 35.2849 49.7307 35.2857 48.9569V37.6074C35.2827 35.7446 34.5409 33.959 33.223 32.6424C31.9051 31.3259 30.1188 30.5858 28.256 30.5847C25.5641 30.5817 22.9558 29.6494 20.872 27.9452C18.7882 26.2411 17.3568 23.8697 16.8196 21.2319C16.6633 20.4675 16.5853 19.6891 16.587 18.9088V7.55931C16.5889 5.55454 17.3863 3.63245 18.8042 2.21513C20.222 0.797806 22.1444 0.0011129 24.1492 0L32.367 0C34.372 -1.68459e-06 36.2951 0.795815 37.7137 2.21265C39.1324 3.62949 39.9307 5.5515 39.9333 7.55651V16.5842H48.9611C50.9661 16.5868 52.8881 17.3852 54.3049 18.8038C55.7218 20.2225 56.5176 22.1455 56.5176 24.1506" fill="white"/>
    <path d="M266.683 46.2163L256.595 21.6006H264.918L271.324 41.1217H268.247L274.804 21.6006H283.127L272.635 46.2163H266.683ZM260.378 56.4561L267.743 40.5668L272.635 46.2163L268.297 56.4561H260.378Z" fill="white"/>
    <path d="M240.818 46.1153V19.4819C240.818 17.4978 241.255 15.7155 242.129 14.135C243.037 12.5208 244.298 11.2598 245.913 10.3518C247.527 9.41025 249.444 8.93945 251.663 8.93945C253.344 8.93945 254.807 9.22529 256.051 9.79697C257.329 10.335 258.439 11.0916 259.381 12.0669L254.538 16.9093C254.202 16.573 253.815 16.3208 253.378 16.1527C252.975 15.9509 252.487 15.85 251.915 15.85C250.873 15.85 250.049 16.1527 249.444 16.758C248.838 17.3633 248.536 18.1872 248.536 19.2296V46.1153H240.818ZM235.421 28.1579V21.6004H255.597V28.1579H235.421Z" fill="white"/>
    <path d="M224.539 46.1149V21.6H232.257V46.1149H224.539ZM228.423 18.2204C227.212 18.2204 226.204 17.8168 225.397 17.0098C224.623 16.1691 224.236 15.1602 224.236 13.9832C224.236 12.7726 224.623 11.7638 225.397 10.9567C226.204 10.1496 227.212 9.74609 228.423 9.74609C229.634 9.74609 230.626 10.1496 231.399 10.9567C232.173 11.7638 232.559 12.7726 232.559 13.9832C232.559 15.1602 232.173 16.1691 231.399 17.0098C230.626 17.8168 229.634 18.2204 228.423 18.2204Z" fill="white"/>
    <path d="M180.501 46.115V21.6001H188.219V46.115H180.501ZM196.189 46.115V31.7894C196.189 30.5452 195.802 29.5868 195.029 28.9142C194.289 28.208 193.364 27.8549 192.254 27.8549C191.481 27.8549 190.792 28.0231 190.186 28.3594C189.581 28.662 189.093 29.0992 188.724 29.6709C188.387 30.2425 188.219 30.9487 188.219 31.7894L185.243 30.4779C185.243 28.5275 185.663 26.8629 186.504 25.4842C187.345 24.0718 188.488 22.9957 189.934 22.2559C191.38 21.4824 193.011 21.0957 194.827 21.0957C196.542 21.0957 198.072 21.4824 199.417 22.2559C200.796 23.0293 201.889 24.1054 202.696 25.4842C203.503 26.8629 203.907 28.5107 203.907 30.4275V46.115H196.189ZM211.876 46.115V31.7894C211.876 30.5452 211.49 29.5868 210.716 28.9142C209.976 28.208 209.052 27.8549 207.942 27.8549C207.169 27.8549 206.479 28.0231 205.874 28.3594C205.269 28.662 204.781 29.0992 204.411 29.6709C204.075 30.2425 203.907 30.9487 203.907 31.7894L199.468 31.1841C199.535 29.0992 200.023 27.3169 200.931 25.8373C201.872 24.324 203.1 23.1638 204.613 22.3568C206.16 21.5161 207.892 21.0957 209.808 21.0957C211.692 21.0957 213.356 21.4992 214.802 22.3063C216.282 23.0798 217.442 24.2063 218.283 25.6859C219.157 27.1319 219.594 28.8806 219.594 30.9319V46.115H211.876Z" fill="white"/>
    <path d="M159.12 46.115V21.6001H166.837V46.115H159.12ZM166.837 32.6469L163.609 30.1248C164.248 27.2665 165.324 25.047 166.837 23.4665C168.35 21.886 170.452 21.0957 173.142 21.0957C174.319 21.0957 175.345 21.2807 176.219 21.6506C177.127 21.9868 177.918 22.5249 178.59 23.2647L174 29.0656C173.664 28.6956 173.243 28.4098 172.739 28.208C172.234 28.0063 171.663 27.9054 171.024 27.9054C169.746 27.9054 168.72 28.3089 167.947 29.116C167.207 29.8894 166.837 31.0664 166.837 32.6469Z" fill="white"/>
    <path d="M139.36 46.6194C137.107 46.6194 135.09 46.0645 133.307 44.9548C131.559 43.8451 130.163 42.3318 129.121 40.415C128.112 38.4982 127.607 36.3124 127.607 33.8576C127.607 31.4027 128.112 29.2169 129.121 27.3001C130.163 25.3833 131.559 23.87 133.307 22.7603C135.09 21.6506 137.107 21.0957 139.36 21.0957C141.008 21.0957 142.488 21.4152 143.799 22.0541C145.144 22.693 146.237 23.5842 147.078 24.7275C147.919 25.8373 148.39 27.1151 148.49 28.5611V39.154C148.39 40.6 147.919 41.8947 147.078 43.038C146.271 44.1477 145.195 45.0221 143.85 45.661C142.505 46.2999 141.008 46.6194 139.36 46.6194ZM140.924 39.6584C142.572 39.6584 143.9 39.1203 144.909 38.0443C145.918 36.9345 146.422 35.539 146.422 33.8576C146.422 32.7142 146.187 31.7054 145.716 30.831C145.279 29.9567 144.64 29.2841 143.799 28.8133C142.992 28.3089 142.051 28.0567 140.975 28.0567C139.898 28.0567 138.94 28.3089 138.099 28.8133C137.292 29.2841 136.637 29.9567 136.132 30.831C135.661 31.7054 135.426 32.7142 135.426 33.8576C135.426 34.9673 135.661 35.9593 136.132 36.8336C136.603 37.708 137.259 38.3973 138.099 38.9018C138.94 39.4062 139.882 39.6584 140.924 39.6584ZM146.12 46.115V39.5071L147.28 33.5549L146.12 27.6027V21.6001H153.686V46.115H146.12Z" fill="white"/>
    <path d="M116.446 46.1151V32.1426C116.446 30.8648 116.043 29.8391 115.236 29.0657C114.462 28.2586 113.47 27.8551 112.259 27.8551C111.419 27.8551 110.679 28.04 110.04 28.4099C109.401 28.7462 108.897 29.2506 108.527 29.9232C108.157 30.5621 107.972 31.3019 107.972 32.1426L104.996 30.6798C104.996 28.763 105.399 27.0816 106.206 25.6356C107.014 24.1896 108.14 23.0799 109.586 22.3064C111.032 21.4994 112.697 21.0958 114.58 21.0958C116.497 21.0958 118.178 21.4994 119.624 22.3064C121.07 23.0799 122.18 24.1728 122.953 25.5852C123.76 26.9639 124.164 28.5781 124.164 30.4276V46.1151H116.446ZM100.254 46.1151V9.49414H107.972V46.1151H100.254Z" fill="white"/>
    <path d="M75.3404 33.1514V26.9975H83.0076C83.9828 26.9975 84.874 26.7957 85.681 26.3922C86.4881 25.9887 87.127 25.4002 87.5978 24.6267C88.0686 23.8533 88.304 22.9117 88.304 21.802C88.304 20.7259 88.0686 19.8011 87.5978 19.0276C87.127 18.2542 86.4881 17.6657 85.681 17.2622C84.874 16.8586 83.9828 16.6569 83.0076 16.6569H75.3404V10.5029H84.1678C86.4209 10.5029 88.4554 10.9569 90.2713 11.8649C92.0872 12.7728 93.5164 14.0843 94.5588 15.7994C95.6349 17.4808 96.173 19.4816 96.173 21.802C96.173 24.1223 95.6349 26.14 94.5588 27.855C93.5164 29.5364 92.0872 30.8479 90.2713 31.7895C88.4554 32.6975 86.4209 33.1514 84.1678 33.1514H75.3404ZM69.2874 46.1151V10.5029H77.2068V46.1151H69.2874Z" fill="white"/>
</svg>
